SplineFontDB: 3.2
FontName: Haversham
FullName: Haversham
FamilyName: Haversham
Weight: Regular
Copyright: Copyright (c) Sean Noonan, 2015
UComments: "2021-4-30: Created with FontForge (http://fontforge.org)"
Version: 001.000
ItalicAngle: 0
UnderlinePosition: 1
UnderlineWidth: 50
Ascent: 750
Descent: 250
InvalidEm: 0
LayerCount: 2
Layer: 0 0 "Back" 1
Layer: 1 0 "Fore" 0
XUID: [1021 287 -832661044 6854199]
StyleMap: 0x0000
FSType: 0
OS2Version: 0
OS2_WeightWidthSlopeOnly: 0
OS2_UseTypoMetrics: 1
CreationTime: 1619790673
ModificationTime: 1619790676
PfmFamily: 17
TTFWeight: 400
TTFWidth: 5
LineGap: 90
VLineGap: 90
Panose: 2 0 5 3 0 0 0 0 0 0
OS2TypoAscent: 0
OS2TypoAOffset: 1
OS2TypoDescent: 0
OS2TypoDOffset: 1
OS2TypoLinegap: 90
OS2WinAscent: 0
OS2WinAOffset: 1
OS2WinDescent: 0
OS2WinDOffset: 1
HheadAscent: 0
HheadAOffset: 1
HheadDescent: 0
HheadDOffset: 1
OS2SubXSize: 650
OS2SubYSize: 700
OS2SubXOff: 0
OS2SubYOff: 140
OS2SupXSize: 650
OS2SupYSize: 700
OS2SupXOff: 0
OS2SupYOff: 480
OS2StrikeYSize: 49
OS2StrikeYPos: 258
OS2Vendor: 'PfEd'
DEI: 91125
Encoding: UnicodeBmp
UnicodeInterp: none
NameList: AGL For New Fonts
DisplaySize: 32
AntiAlias: 1
FitToEm: 0
BeginChars: 65536 179

StartChar: exclam
Encoding: 33 33 3
Width: 312
Flags: HW
LayerCount: 2
Back
Fore
SplineSet
187.5 125 m 1
 250 125 l 1
 250 83.3333333333 250 41.6666666667 250 0 c 1
 229.166666667 -0 208.333333333 0 187.5 0 c 1
 187.5 41.6666666667 187.5 83.3333333333 187.5 125 c 1
187.5 750 m 1
 250 750 l 1
 250 562.5 250 375 250 187.5 c 1
 229.166666667 187.5 208.333333333 187.5 187.5 187.5 c 1
 187.5 333.333333333 187.5 479.166666667 187.5 625 c 1
 166.666666667 625 145.833333333 625 125 625 c 1
 125 645.833333333 125 666.666666667 125 687.5 c 1
 145.833333333 687.5 166.666666667 687.5 187.5 687.5 c 1
 187.5 708.333333333 187.5 729.166666667 187.5 750 c 1
EndSplineSet
EndChar

StartChar: quotedbl
Encoding: 34 34 4
Width: 375
Flags: HW
LayerCount: 2
Back
Fore
SplineSet
62.5 750 m 1
 312.5 750 l 1
 312.5 708.333333333 312.5 666.666666667 312.5 625 c 1
 291.666666667 625 270.833333333 625 250 625 c 1
 250 645.833333333 250 666.666666667 250 687.5 c 1
 229.166666667 687.5 208.333333333 687.5 187.5 687.5 c 1
 187.5 666.666666667 187.5 645.833333333 187.5 625 c 1
 166.666666667 625 145.833333333 625 125 625 c 1
 125 645.833333333 125 666.666666667 125 687.5 c 1
 104.166666667 687.5 83.3333333333 687.5 62.5 687.5 c 1
 62.5 708.333333333 62.5 729.166666667 62.5 750 c 1
EndSplineSet
EndChar

StartChar: numbersign
Encoding: 35 35 5
Width: 562
Flags: HW
LayerCount: 2
Back
Fore
SplineSet
250 312.5 m 1
 250 270.833333333 250 229.166666667 250 187.5 c 1
 291.666666667 187.5 333.333333333 187.5 375 187.5 c 1
 375 229.166666667 375 270.833333333 375 312.5 c 1
 250 312.5 l 1
187.5 500 m 1
 250 500 l 1
 250 458.333333333 250 416.666666667 250 375 c 1
 291.666666667 375 333.333333333 375 375 375 c 1
 375 416.666666667 375 458.333333333 375 500 c 1
 395.833333333 500 416.666666667 500 437.5 500 c 1
 437.5 458.333333333 437.5 416.666666667 437.5 375 c 1
 458.333333333 375 479.166666667 375 500 375 c 1
 500 354.166666667 500 333.333333333 500 312.5 c 1
 479.166666667 312.5 458.333333333 312.5 437.5 312.5 c 1
 437.5 270.833333333 437.5 229.166666667 437.5 187.5 c 1
 458.333333333 187.5 479.166666667 187.5 500 187.5 c 1
 500 166.666666667 500 145.833333333 500 125 c 1
 479.166666667 125 458.333333333 125 437.5 125 c 1
 437.5 83.3333333333 437.5 41.6666666667 437.5 0 c 1
 416.666666667 -0 395.833333333 0 375 0 c 1
 375 41.6666666667 375 83.3333333333 375 125 c 1
 333.333333333 125 291.666666667 125 250 125 c 1
 250 83.3333333333 250 41.6666666667 250 0 c 1
 229.166666667 -0 208.333333333 0 187.5 0 c 1
 187.5 41.6666666667 187.5 83.3333333333 187.5 125 c 1
 145.833333333 125 104.166666667 125 62.5 125 c 1
 62.5 145.833333333 62.5 166.666666667 62.5 187.5 c 1
 104.166666667 187.5 145.833333333 187.5 187.5 187.5 c 1
 187.5 229.166666667 187.5 270.833333333 187.5 312.5 c 1
 145.833333333 312.5 104.166666667 312.5 62.5 312.5 c 1
 62.5 333.333333333 62.5 354.166666667 62.5 375 c 1
 104.166666667 375 145.833333333 375 187.5 375 c 1
 187.5 416.666666667 187.5 458.333333333 187.5 500 c 1
EndSplineSet
EndChar

StartChar: dollar
Encoding: 36 36 6
Width: 500
Flags: HW
LayerCount: 2
Back
Fore
SplineSet
125 187.5 m 1
 187.5 187.5 l 1
 187.5 166.666666667 187.5 145.833333333 187.5 125 c 1
 166.666666667 125 145.833333333 125 125 125 c 1
 125 145.833333333 125 166.666666667 125 187.5 c 1
312.5 250 m 1
 312.5 208.333333333 312.5 166.666666667 312.5 125 c 1
 333.333333333 125 354.166666667 125 375 125 c 1
 375 166.666666667 375 208.333333333 375 250 c 1
 312.5 250 l 1
125 437.5 m 1
 187.5 437.5 l 1
 187.5 395.833333333 187.5 354.166666667 187.5 312.5 c 1
 166.666666667 312.5 145.833333333 312.5 125 312.5 c 1
 125 354.166666667 125 395.833333333 125 437.5 c 1
250 562.5 m 1
 312.5 562.5 l 1
 312.5 541.666666667 312.5 520.833333333 312.5 500 c 1
 333.333333333 500 354.166666667 500 375 500 c 1
 375 479.166666667 375 458.333333333 375 437.5 c 1
 395.833333333 437.5 416.666666667 437.5 437.5 437.5 c 1
 437.5 416.666666667 437.5 395.833333333 437.5 375 c 1
 416.666666667 375 395.833333333 375 375 375 c 1
 375 395.833333333 375 416.666666667 375 437.5 c 1
 354.166666667 437.5 333.333333333 437.5 312.5 437.5 c 1
 312.5 395.833333333 312.5 354.166666667 312.5 312.5 c 1
 333.333333333 312.5 354.166666667 312.5 375 312.5 c 1
 375 291.666666667 375 270.833333333 375 250 c 1
 395.833333333 250 416.666666667 250 437.5 250 c 1
 437.5 208.333333333 437.5 166.666666667 437.5 125 c 1
 416.666666667 125 395.833333333 125 375 125 c 1
 375 104.166666667 375 83.3333333333 375 62.5 c 1
 354.166666667 62.5 333.333333333 62.5 312.5 62.5 c 1
 312.5 41.6666666667 312.5 20.8333333333 312.5 0 c 1
 291.666666667 -0 270.833333333 0 250 0 c 1
 250 20.8333333333 250 41.6666666667 250 62.5 c 1
 229.166666667 62.5 208.333333333 62.5 187.5 62.5 c 1
 187.5 83.3333333333 187.5 104.166666667 187.5 125 c 1
 208.333333333 125 229.166666667 125 250 125 c 1
 250 166.666666667 250 208.333333333 250 250 c 1
 229.166666667 250 208.333333333 250 187.5 250 c 1
 187.5 270.833333333 187.5 291.666666667 187.5 312.5 c 1
 208.333333333 312.5 229.166666667 312.5 250 312.5 c 1
 250 354.166666667 250 395.833333333 250 437.5 c 1
 229.166666667 437.5 208.333333333 437.5 187.5 437.5 c 1
 187.5 458.333333333 187.5 479.166666667 187.5 500 c 1
 208.333333333 500 229.166666667 500 250 500 c 1
 250 520.833333333 250 541.666666667 250 562.5 c 1
EndSplineSet
EndChar

StartChar: percent
Encoding: 37 37 7
Width: 562
Flags: HW
LayerCount: 2
Back
Fore
SplineSet
125 500 m 1
 187.5 500 l 1
 187.5 479.166666667 187.5 458.333333333 187.5 437.5 c 1
 166.666666667 437.5 145.833333333 437.5 125 437.5 c 1
 125 458.333333333 125 479.166666667 125 500 c 1
375 500 m 1
 437.5 500 l 1
 437.5 479.166666667 437.5 458.333333333 437.5 437.5 c 1
 416.666666667 437.5 395.833333333 437.5 375 437.5 c 1
 375 458.333333333 375 479.166666667 375 500 c 1
62.5 437.5 m 1
 125 437.5 l 1
 125 416.666666667 125 395.833333333 125 375 c 1
 104.166666667 375 83.3333333333 375 62.5 375 c 1
 62.5 395.833333333 62.5 416.666666667 62.5 437.5 c 1
187.5 437.5 m 1
 250 437.5 l 1
 250 416.666666667 250 395.833333333 250 375 c 1
 229.166666667 375 208.333333333 375 187.5 375 c 1
 187.5 354.166666667 187.5 333.333333333 187.5 312.5 c 1
 166.666666667 312.5 145.833333333 312.5 125 312.5 c 1
 125 333.333333333 125 354.166666667 125 375 c 1
 145.833333333 375 166.666666667 375 187.5 375 c 1
 187.5 395.833333333 187.5 416.666666667 187.5 437.5 c 1
312.5 437.5 m 1
 375 437.5 l 1
 375 395.833333333 375 354.166666667 375 312.5 c 1
 354.166666667 312.5 333.333333333 312.5 312.5 312.5 c 1
 312.5 270.833333333 312.5 229.166666667 312.5 187.5 c 1
 291.666666667 187.5 270.833333333 187.5 250 187.5 c 1
 250 145.833333333 250 104.166666667 250 62.5 c 1
 229.166666667 62.5 208.333333333 62.5 187.5 62.5 c 1
 187.5 104.166666667 187.5 145.833333333 187.5 187.5 c 1
 208.333333333 187.5 229.166666667 187.5 250 187.5 c 1
 250 229.166666667 250 270.833333333 250 312.5 c 1
 270.833333333 312.5 291.666666667 312.5 312.5 312.5 c 1
 312.5 354.166666667 312.5 395.833333333 312.5 437.5 c 1
375 187.5 m 1
 437.5 187.5 l 1
 437.5 166.666666667 437.5 145.833333333 437.5 125 c 1
 416.666666667 125 395.833333333 125 375 125 c 1
 375 104.166666667 375 83.3333333333 375 62.5 c 1
 354.166666667 62.5 333.333333333 62.5 312.5 62.5 c 1
 312.5 83.3333333333 312.5 104.166666667 312.5 125 c 1
 333.333333333 125 354.166666667 125 375 125 c 1
 375 145.833333333 375 166.666666667 375 187.5 c 1
437.5 125 m 1
 500 125 l 1
 500 104.166666667 500 83.3333333333 500 62.5 c 1
 479.166666667 62.5 458.333333333 62.5 437.5 62.5 c 1
 437.5 83.3333333333 437.5 104.166666667 437.5 125 c 1
125 62.5 m 1
 187.5 62.5 l 1
 187.5 41.6666666667 187.5 20.8333333333 187.5 0 c 1
 166.666666667 -0 145.833333333 0 125 0 c 1
 125 20.8333333333 125 41.6666666667 125 62.5 c 1
375 62.5 m 1
 437.5 62.5 l 1
 437.5 41.6666666667 437.5 20.8333333333 437.5 0 c 1
 416.666666667 -0 395.833333333 0 375 0 c 1
 375 20.8333333333 375 41.6666666667 375 62.5 c 1
EndSplineSet
EndChar

StartChar: ampersand
Encoding: 38 38 8
Width: 562
Flags: HW
LayerCount: 2
Back
Fore
SplineSet
187.5 375 m 1
 312.5 375 l 1
 312.5 354.166666667 312.5 333.333333333 312.5 312.5 c 1
 270.833333333 312.5 229.166666667 312.5 187.5 312.5 c 1
 187.5 333.333333333 187.5 354.166666667 187.5 375 c 1
125 312.5 m 1
 187.5 312.5 l 1
 187.5 291.666666667 187.5 270.833333333 187.5 250 c 1
 166.666666667 250 145.833333333 250 125 250 c 1
 125 270.833333333 125 291.666666667 125 312.5 c 1
312.5 312.5 m 1
 375 312.5 l 1
 375 291.666666667 375 270.833333333 375 250 c 1
 354.166666667 250 333.333333333 250 312.5 250 c 1
 312.5 229.166666667 312.5 208.333333333 312.5 187.5 c 1
 333.333333333 187.5 354.166666667 187.5 375 187.5 c 1
 375 166.666666667 375 145.833333333 375 125 c 1
 395.833333333 125 416.666666667 125 437.5 125 c 1
 437.5 104.166666667 437.5 83.3333333333 437.5 62.5 c 1
 416.666666667 62.5 395.833333333 62.5 375 62.5 c 1
 375 83.3333333333 375 104.166666667 375 125 c 1
 354.166666667 125 333.333333333 125 312.5 125 c 1
 312.5 145.833333333 312.5 166.666666667 312.5 187.5 c 1
 270.833333333 187.5 229.166666667 187.5 187.5 187.5 c 1
 187.5 208.333333333 187.5 229.166666667 187.5 250 c 1
 229.166666667 250 270.833333333 250 312.5 250 c 1
 312.5 270.833333333 312.5 291.666666667 312.5 312.5 c 1
125 187.5 m 1
 187.5 187.5 l 1
 187.5 145.833333333 187.5 104.166666667 187.5 62.5 c 1
 166.666666667 62.5 145.833333333 62.5 125 62.5 c 1
 125 104.166666667 125 145.833333333 125 187.5 c 1
437.5 187.5 m 1
 500 187.5 l 1
 500 166.666666667 500 145.833333333 500 125 c 1
 479.166666667 125 458.333333333 125 437.5 125 c 1
 437.5 145.833333333 437.5 166.666666667 437.5 187.5 c 1
187.5 62.5 m 1
 375 62.5 l 1
 375 41.6666666667 375 20.8333333333 375 0 c 1
 312.5 -0 250 0 187.5 0 c 1
 187.5 20.8333333333 187.5 41.6666666667 187.5 62.5 c 1
437.5 62.5 m 1
 500 62.5 l 1
 500 41.6666666667 500 20.8333333333 500 0 c 1
 479.166666667 -0 458.333333333 0 437.5 0 c 1
 437.5 20.8333333333 437.5 41.6666666667 437.5 62.5 c 1
EndSplineSet
EndChar

StartChar: quotesingle
Encoding: 39 39 9
Width: 250
Flags: HW
LayerCount: 2
Back
Fore
SplineSet
62.5 750 m 1
 187.5 750 l 1
 187.5 708.333333333 187.5 666.666666667 187.5 625 c 1
 166.666666667 625 145.833333333 625 125 625 c 1
 125 645.833333333 125 666.666666667 125 687.5 c 1
 104.166666667 687.5 83.3333333333 687.5 62.5 687.5 c 1
 62.5 708.333333333 62.5 729.166666667 62.5 750 c 1
EndSplineSet
EndChar

StartChar: parenleft
Encoding: 40 40 10
Width: 312
Flags: HW
LayerCount: 2
Back
Fore
SplineSet
187.5 750 m 1
 250 750 l 1
 250 729.166666667 250 708.333333333 250 687.5 c 1
 229.166666667 687.5 208.333333333 687.5 187.5 687.5 c 1
 187.5 708.333333333 187.5 729.166666667 187.5 750 c 1
125 687.5 m 1
 187.5 687.5 l 1
 187.5 645.833333333 187.5 604.166666667 187.5 562.5 c 1
 166.666666667 562.5 145.833333333 562.5 125 562.5 c 1
 125 604.166666667 125 645.833333333 125 687.5 c 1
62.5 562.5 m 1
 125 562.5 l 1
 125 395.833333333 125 229.166666667 125 62.5 c 1
 104.166666667 62.5 83.3333333333 62.5 62.5 62.5 c 1
 62.5 187.5 62.5 312.5 62.5 437.5 c 1
 41.6666666667 437.5 20.8333333333 437.5 0 437.5 c 1
 -0 458.333333333 0 479.166666667 0 500 c 1
 20.8333333333 500 41.6666666667 500 62.5 500 c 1
 62.5 520.833333333 62.5 541.666666667 62.5 562.5 c 1
125 62.5 m 1
 187.5 62.5 l 1
 187.5 20.8333333333 187.5 -20.8333333333 187.5 -62.5 c 1
 166.666666667 -62.5 145.833333333 -62.5 125 -62.5 c 1
 125 -20.8333333333 125 20.8333333333 125 62.5 c 1
187.5 -62.5 m 1
 250 -62.5 l 1
 250 -83.3333333333 250 -104.166666667 250 -125 c 1
 229.166666667 -125 208.333333333 -125 187.5 -125 c 1
 187.5 -104.166666667 187.5 -83.3333333333 187.5 -62.5 c 1
EndSplineSet
EndChar

StartChar: parenright
Encoding: 41 41 11
Width: 312
Flags: HW
LayerCount: 2
Back
Fore
SplineSet
62.5 750 m 1
 125 750 l 1
 125 729.166666667 125 708.333333333 125 687.5 c 1
 145.833333333 687.5 166.666666667 687.5 187.5 687.5 c 1
 187.5 645.833333333 187.5 604.166666667 187.5 562.5 c 1
 208.333333333 562.5 229.166666667 562.5 250 562.5 c 1
 250 395.833333333 250 229.166666667 250 62.5 c 1
 229.166666667 62.5 208.333333333 62.5 187.5 62.5 c 1
 187.5 20.8333333333 187.5 -20.8333333333 187.5 -62.5 c 1
 166.666666667 -62.5 145.833333333 -62.5 125 -62.5 c 1
 125 -83.3333333333 125 -104.166666667 125 -125 c 1
 104.166666667 -125 83.3333333333 -125 62.5 -125 c 1
 62.5 -104.166666667 62.5 -83.3333333333 62.5 -62.5 c 1
 83.3333333333 -62.5 104.166666667 -62.5 125 -62.5 c 1
 125 -20.8333333333 125 20.8333333333 125 62.5 c 1
 145.833333333 62.5 166.666666667 62.5 187.5 62.5 c 1
 187.5 229.166666667 187.5 395.833333333 187.5 562.5 c 1
 166.666666667 562.5 145.833333333 562.5 125 562.5 c 1
 125 604.166666667 125 645.833333333 125 687.5 c 1
 104.166666667 687.5 83.3333333333 687.5 62.5 687.5 c 1
 62.5 708.333333333 62.5 729.166666667 62.5 750 c 1
EndSplineSet
EndChar

StartChar: asterisk
Encoding: 42 42 12
Width: 500
Flags: HW
LayerCount: 2
Back
Fore
SplineSet
250 687.5 m 1
 312.5 687.5 l 1
 312.5 666.666666667 312.5 645.833333333 312.5 625 c 1
 354.166666667 625 395.833333333 625 437.5 625 c 1
 437.5 604.166666667 437.5 583.333333333 437.5 562.5 c 1
 416.666666667 562.5 395.833333333 562.5 375 562.5 c 1
 375 541.666666667 375 520.833333333 375 500 c 1
 395.833333333 500 416.666666667 500 437.5 500 c 1
 437.5 479.166666667 437.5 458.333333333 437.5 437.5 c 1
 416.666666667 437.5 395.833333333 437.5 375 437.5 c 1
 375 458.333333333 375 479.166666667 375 500 c 1
 354.166666667 500 333.333333333 500 312.5 500 c 1
 312.5 458.333333333 312.5 416.666666667 312.5 375 c 1
 291.666666667 375 270.833333333 375 250 375 c 1
 250 416.666666667 250 458.333333333 250 500 c 1
 229.166666667 500 208.333333333 500 187.5 500 c 1
 187.5 479.166666667 187.5 458.333333333 187.5 437.5 c 1
 166.666666667 437.5 145.833333333 437.5 125 437.5 c 1
 125 458.333333333 125 479.166666667 125 500 c 1
 145.833333333 500 166.666666667 500 187.5 500 c 1
 187.5 520.833333333 187.5 541.666666667 187.5 562.5 c 1
 166.666666667 562.5 145.833333333 562.5 125 562.5 c 1
 125 583.333333333 125 604.166666667 125 625 c 1
 166.666666667 625 208.333333333 625 250 625 c 1
 250 645.833333333 250 666.666666667 250 687.5 c 1
EndSplineSet
EndChar

StartChar: plus
Encoding: 43 43 13
Width: 500
Flags: HW
LayerCount: 2
Back
Fore
SplineSet
250 312.5 m 1
 312.5 312.5 l 1
 312.5 270.833333333 312.5 229.166666667 312.5 187.5 c 1
 354.166666667 187.5 395.833333333 187.5 437.5 187.5 c 1
 437.5 166.666666667 437.5 145.833333333 437.5 125 c 1
 395.833333333 125 354.166666667 125 312.5 125 c 1
 312.5 83.3333333333 312.5 41.6666666667 312.5 0 c 1
 291.666666667 -0 270.833333333 0 250 0 c 1
 250 41.6666666667 250 83.3333333333 250 125 c 1
 208.333333333 125 166.666666667 125 125 125 c 1
 125 145.833333333 125 166.666666667 125 187.5 c 1
 166.666666667 187.5 208.333333333 187.5 250 187.5 c 1
 250 229.166666667 250 270.833333333 250 312.5 c 1
EndSplineSet
EndChar

StartChar: comma
Encoding: 44 44 14
Width: 250
Flags: HW
LayerCount: 2
Back
Fore
SplineSet
62.5 62.5 m 1
 187.5 62.5 l 1
 187.5 20.8333333333 187.5 -20.8333333333 187.5 -62.5 c 1
 166.666666667 -62.5 145.833333333 -62.5 125 -62.5 c 1
 125 -41.6666666667 125 -20.8333333333 125 0 c 1
 104.166666667 -0 83.3333333333 0 62.5 0 c 1
 62.5 20.8333333333 62.5 41.6666666667 62.5 62.5 c 1
EndSplineSet
EndChar

StartChar: hyphen
Encoding: 45 45 15
Width: 437
Flags: HW
LayerCount: 2
Back
Fore
SplineSet
187.5 187.5 m 1
 375 187.5 l 1
 375 166.666666667 375 145.833333333 375 125 c 1
 312.5 125 250 125 187.5 125 c 1
 187.5 145.833333333 187.5 166.666666667 187.5 187.5 c 1
EndSplineSet
EndChar

StartChar: period
Encoding: 46 46 16
Width: 250
Flags: HW
LayerCount: 2
Back
Fore
SplineSet
125 62.5 m 1
 187.5 62.5 l 1
 187.5 41.6666666667 187.5 20.8333333333 187.5 0 c 1
 166.666666667 -0 145.833333333 0 125 0 c 1
 125 20.8333333333 125 41.6666666667 125 62.5 c 1
EndSplineSet
EndChar

StartChar: slash
Encoding: 47 47 17
Width: 562
Flags: HW
LayerCount: 2
Back
Fore
SplineSet
437.5 750 m 1
 500 750 l 1
 500 708.333333333 500 666.666666667 500 625 c 1
 479.166666667 625 458.333333333 625 437.5 625 c 1
 437.5 666.666666667 437.5 708.333333333 437.5 750 c 1
312.5 625 m 1
 437.5 625 l 1
 437.5 583.333333333 437.5 541.666666667 437.5 500 c 1
 416.666666667 500 395.833333333 500 375 500 c 1
 375 458.333333333 375 416.666666667 375 375 c 1
 354.166666667 375 333.333333333 375 312.5 375 c 1
 312.5 333.333333333 312.5 291.666666667 312.5 250 c 1
 291.666666667 250 270.833333333 250 250 250 c 1
 250 208.333333333 250 166.666666667 250 125 c 1
 229.166666667 125 208.333333333 125 187.5 125 c 1
 187.5 166.666666667 187.5 208.333333333 187.5 250 c 1
 208.333333333 250 229.166666667 250 250 250 c 1
 250 291.666666667 250 333.333333333 250 375 c 1
 270.833333333 375 291.666666667 375 312.5 375 c 1
 312.5 416.666666667 312.5 458.333333333 312.5 500 c 1
 333.333333333 500 354.166666667 500 375 500 c 1
 375 520.833333333 375 541.666666667 375 562.5 c 1
 354.166666667 562.5 333.333333333 562.5 312.5 562.5 c 1
 312.5 583.333333333 312.5 604.166666667 312.5 625 c 1
125 125 m 1
 187.5 125 l 1
 187.5 83.3333333333 187.5 41.6666666667 187.5 0 c 1
 166.666666667 -0 145.833333333 0 125 0 c 1
 125 41.6666666667 125 83.3333333333 125 125 c 1
EndSplineSet
EndChar

StartChar: zero
Encoding: 48 48 18
Width: 500
Flags: HW
LayerCount: 2
Back
Fore
SplineSet
187.5 500 m 1
 375 500 l 1
 375 479.166666667 375 458.333333333 375 437.5 c 1
 312.5 437.5 250 437.5 187.5 437.5 c 1
 187.5 458.333333333 187.5 479.166666667 187.5 500 c 1
125 437.5 m 1
 187.5 437.5 l 1
 187.5 312.5 187.5 187.5 187.5 62.5 c 1
 166.666666667 62.5 145.833333333 62.5 125 62.5 c 1
 125 187.5 125 312.5 125 437.5 c 1
375 437.5 m 1
 437.5 437.5 l 1
 437.5 312.5 437.5 187.5 437.5 62.5 c 1
 416.666666667 62.5 395.833333333 62.5 375 62.5 c 1
 375 187.5 375 312.5 375 437.5 c 1
187.5 62.5 m 1
 375 62.5 l 1
 375 41.6666666667 375 20.8333333333 375 0 c 1
 312.5 -0 250 0 187.5 0 c 1
 187.5 20.8333333333 187.5 41.6666666667 187.5 62.5 c 1
EndSplineSet
EndChar

StartChar: one
Encoding: 49 49 19
Width: 437
Flags: HW
LayerCount: 2
Back
Fore
SplineSet
250 500 m 1
 312.5 500 l 1
 312.5 354.166666667 312.5 208.333333333 312.5 62.5 c 1
 333.333333333 62.5 354.166666667 62.5 375 62.5 c 1
 375 41.6666666667 375 20.8333333333 375 0 c 1
 312.5 -0 250 0 187.5 0 c 1
 187.5 20.8333333333 187.5 41.6666666667 187.5 62.5 c 1
 208.333333333 62.5 229.166666667 62.5 250 62.5 c 1
 250 166.666666667 250 270.833333333 250 375 c 1
 229.166666667 375 208.333333333 375 187.5 375 c 1
 187.5 395.833333333 187.5 416.666666667 187.5 437.5 c 1
 208.333333333 437.5 229.166666667 437.5 250 437.5 c 1
 250 458.333333333 250 479.166666667 250 500 c 1
EndSplineSet
EndChar

StartChar: two
Encoding: 50 50 20
Width: 500
Flags: HW
LayerCount: 2
Back
Fore
SplineSet
250 500 m 1
 375 500 l 1
 375 479.166666667 375 458.333333333 375 437.5 c 1
 333.333333333 437.5 291.666666667 437.5 250 437.5 c 1
 250 458.333333333 250 479.166666667 250 500 c 1
125 437.5 m 1
 250 437.5 l 1
 250 416.666666667 250 395.833333333 250 375 c 1
 208.333333333 375 166.666666667 375 125 375 c 1
 125 395.833333333 125 416.666666667 125 437.5 c 1
375 437.5 m 1
 437.5 437.5 l 1
 437.5 375 437.5 312.5 437.5 250 c 1
 416.666666667 250 395.833333333 250 375 250 c 1
 375 312.5 375 375 375 437.5 c 1
250 250 m 1
 375 250 l 1
 375 229.166666667 375 208.333333333 375 187.5 c 1
 333.333333333 187.5 291.666666667 187.5 250 187.5 c 1
 250 166.666666667 250 145.833333333 250 125 c 1
 229.166666667 125 208.333333333 125 187.5 125 c 1
 187.5 145.833333333 187.5 166.666666667 187.5 187.5 c 1
 208.333333333 187.5 229.166666667 187.5 250 187.5 c 1
 250 208.333333333 250 229.166666667 250 250 c 1
125 125 m 1
 187.5 125 l 1
 187.5 104.166666667 187.5 83.3333333333 187.5 62.5 c 1
 270.833333333 62.5 354.166666667 62.5 437.5 62.5 c 1
 437.5 41.6666666667 437.5 20.8333333333 437.5 0 c 1
 333.333333333 -0 229.166666667 0 125 0 c 1
 125 41.6666666667 125 83.3333333333 125 125 c 1
EndSplineSet
EndChar

StartChar: three
Encoding: 51 51 21
Width: 500
Flags: HW
LayerCount: 2
Back
Fore
SplineSet
250 500 m 1
 375 500 l 1
 375 479.166666667 375 458.333333333 375 437.5 c 1
 333.333333333 437.5 291.666666667 437.5 250 437.5 c 1
 250 458.333333333 250 479.166666667 250 500 c 1
125 437.5 m 1
 250 437.5 l 1
 250 416.666666667 250 395.833333333 250 375 c 1
 208.333333333 375 166.666666667 375 125 375 c 1
 125 395.833333333 125 416.666666667 125 437.5 c 1
375 437.5 m 1
 437.5 437.5 l 1
 437.5 375 437.5 312.5 437.5 250 c 1
 416.666666667 250 395.833333333 250 375 250 c 1
 375 312.5 375 375 375 437.5 c 1
250 250 m 1
 375 250 l 1
 375 229.166666667 375 208.333333333 375 187.5 c 1
 333.333333333 187.5 291.666666667 187.5 250 187.5 c 1
 250 208.333333333 250 229.166666667 250 250 c 1
375 187.5 m 1
 437.5 187.5 l 1
 437.5 145.833333333 437.5 104.166666667 437.5 62.5 c 1
 416.666666667 62.5 395.833333333 62.5 375 62.5 c 1
 375 104.166666667 375 145.833333333 375 187.5 c 1
125 125 m 1
 187.5 125 l 1
 187.5 104.166666667 187.5 83.3333333333 187.5 62.5 c 1
 166.666666667 62.5 145.833333333 62.5 125 62.5 c 1
 125 83.3333333333 125 104.166666667 125 125 c 1
187.5 62.5 m 1
 375 62.5 l 1
 375 41.6666666667 375 20.8333333333 375 0 c 1
 312.5 -0 250 0 187.5 0 c 1
 187.5 20.8333333333 187.5 41.6666666667 187.5 62.5 c 1
EndSplineSet
EndChar

StartChar: four
Encoding: 52 52 22
Width: 500
Flags: HW
LayerCount: 2
Back
Fore
SplineSet
125 500 m 1
 187.5 500 l 1
 187.5 416.666666667 187.5 333.333333333 187.5 250 c 1
 208.333333333 250 229.166666667 250 250 250 c 1
 250 291.666666667 250 333.333333333 250 375 c 1
 270.833333333 375 291.666666667 375 312.5 375 c 1
 312.5 333.333333333 312.5 291.666666667 312.5 250 c 1
 354.166666667 250 395.833333333 250 437.5 250 c 1
 437.5 229.166666667 437.5 208.333333333 437.5 187.5 c 1
 395.833333333 187.5 354.166666667 187.5 312.5 187.5 c 1
 312.5 125 312.5 62.5 312.5 0 c 1
 270.833333333 -0 229.166666667 0 187.5 0 c 1
 187.5 20.8333333333 187.5 41.6666666667 187.5 62.5 c 1
 208.333333333 62.5 229.166666667 62.5 250 62.5 c 1
 250 104.166666667 250 145.833333333 250 187.5 c 1
 208.333333333 187.5 166.666666667 187.5 125 187.5 c 1
 125 250 125 312.5 125 375 c 1
 104.166666667 375 83.3333333333 375 62.5 375 c 1
 62.5 395.833333333 62.5 416.666666667 62.5 437.5 c 1
 83.3333333333 437.5 104.166666667 437.5 125 437.5 c 1
 125 458.333333333 125 479.166666667 125 500 c 1
EndSplineSet
EndChar

StartChar: five
Encoding: 53 53 23
Width: 500
Flags: HW
LayerCount: 2
Back
Fore
SplineSet
125 500 m 1
 437.5 500 l 1
 437.5 479.166666667 437.5 458.333333333 437.5 437.5 c 1
 354.166666667 437.5 270.833333333 437.5 187.5 437.5 c 1
 187.5 395.833333333 187.5 354.166666667 187.5 312.5 c 1
 250 312.5 312.5 312.5 375 312.5 c 1
 375 291.666666667 375 270.833333333 375 250 c 1
 395.833333333 250 416.666666667 250 437.5 250 c 1
 437.5 187.5 437.5 125 437.5 62.5 c 1
 416.666666667 62.5 395.833333333 62.5 375 62.5 c 1
 375 41.6666666667 375 20.8333333333 375 0 c 1
 312.5 -0 250 0 187.5 0 c 1
 187.5 20.8333333333 187.5 41.6666666667 187.5 62.5 c 1
 166.666666667 62.5 145.833333333 62.5 125 62.5 c 1
 125 83.3333333333 125 104.166666667 125 125 c 1
 145.833333333 125 166.666666667 125 187.5 125 c 1
 187.5 104.166666667 187.5 83.3333333333 187.5 62.5 c 1
 250 62.5 312.5 62.5 375 62.5 c 1
 375 125 375 187.5 375 250 c 1
 312.5 250 250 250 187.5 250 c 1
 187.5 270.833333333 187.5 291.666666667 187.5 312.5 c 1
 166.666666667 312.5 145.833333333 312.5 125 312.5 c 1
 125 375 125 437.5 125 500 c 1
EndSplineSet
EndChar

StartChar: six
Encoding: 54 54 24
Width: 500
Flags: HW
LayerCount: 2
Back
Fore
SplineSet
250 500 m 1
 375 500 l 1
 375 479.166666667 375 458.333333333 375 437.5 c 1
 333.333333333 437.5 291.666666667 437.5 250 437.5 c 1
 250 458.333333333 250 479.166666667 250 500 c 1
187.5 437.5 m 1
 250 437.5 l 1
 250 416.666666667 250 395.833333333 250 375 c 1
 229.166666667 375 208.333333333 375 187.5 375 c 1
 187.5 395.833333333 187.5 416.666666667 187.5 437.5 c 1
125 375 m 1
 187.5 375 l 1
 187.5 333.333333333 187.5 291.666666667 187.5 250 c 1
 208.333333333 250 229.166666667 250 250 250 c 1
 250 229.166666667 250 208.333333333 250 187.5 c 1
 229.166666667 187.5 208.333333333 187.5 187.5 187.5 c 1
 187.5 145.833333333 187.5 104.166666667 187.5 62.5 c 1
 166.666666667 62.5 145.833333333 62.5 125 62.5 c 1
 125 166.666666667 125 270.833333333 125 375 c 1
250 312.5 m 1
 375 312.5 l 1
 375 291.666666667 375 270.833333333 375 250 c 1
 333.333333333 250 291.666666667 250 250 250 c 1
 250 270.833333333 250 291.666666667 250 312.5 c 1
375 250 m 1
 437.5 250 l 1
 437.5 187.5 437.5 125 437.5 62.5 c 1
 416.666666667 62.5 395.833333333 62.5 375 62.5 c 1
 375 125 375 187.5 375 250 c 1
187.5 62.5 m 1
 375 62.5 l 1
 375 41.6666666667 375 20.8333333333 375 0 c 1
 312.5 -0 250 0 187.5 0 c 1
 187.5 20.8333333333 187.5 41.6666666667 187.5 62.5 c 1
EndSplineSet
EndChar

StartChar: seven
Encoding: 55 55 25
Width: 500
Flags: HW
LayerCount: 2
Back
Fore
SplineSet
125 500 m 1
 437.5 500 l 1
 437.5 479.166666667 437.5 458.333333333 437.5 437.5 c 1
 416.666666667 437.5 395.833333333 437.5 375 437.5 c 1
 375 395.833333333 375 354.166666667 375 312.5 c 1
 354.166666667 312.5 333.333333333 312.5 312.5 312.5 c 1
 312.5 291.666666667 312.5 270.833333333 312.5 250 c 1
 333.333333333 250 354.166666667 250 375 250 c 1
 375 229.166666667 375 208.333333333 375 187.5 c 1
 333.333333333 187.5 291.666666667 187.5 250 187.5 c 1
 250 145.833333333 250 104.166666667 250 62.5 c 1
 229.166666667 62.5 208.333333333 62.5 187.5 62.5 c 1
 187.5 41.6666666667 187.5 20.8333333333 187.5 0 c 1
 166.666666667 -0 145.833333333 0 125 0 c 1
 125 20.8333333333 125 41.6666666667 125 62.5 c 1
 145.833333333 62.5 166.666666667 62.5 187.5 62.5 c 1
 187.5 104.166666667 187.5 145.833333333 187.5 187.5 c 1
 166.666666667 187.5 145.833333333 187.5 125 187.5 c 1
 125 208.333333333 125 229.166666667 125 250 c 1
 166.666666667 250 208.333333333 250 250 250 c 1
 250 270.833333333 250 291.666666667 250 312.5 c 1
 270.833333333 312.5 291.666666667 312.5 312.5 312.5 c 1
 312.5 354.166666667 312.5 395.833333333 312.5 437.5 c 1
 250 437.5 187.5 437.5 125 437.5 c 1
 125 458.333333333 125 479.166666667 125 500 c 1
EndSplineSet
EndChar

StartChar: eight
Encoding: 56 56 26
Width: 500
Flags: HW
LayerCount: 2
Back
Fore
SplineSet
187.5 500 m 1
 375 500 l 1
 375 479.166666667 375 458.333333333 375 437.5 c 1
 312.5 437.5 250 437.5 187.5 437.5 c 1
 187.5 458.333333333 187.5 479.166666667 187.5 500 c 1
62.5 437.5 m 1
 187.5 437.5 l 1
 187.5 395.833333333 187.5 354.166666667 187.5 312.5 c 1
 166.666666667 312.5 145.833333333 312.5 125 312.5 c 1
 125 333.333333333 125 354.166666667 125 375 c 1
 104.166666667 375 83.3333333333 375 62.5 375 c 1
 62.5 395.833333333 62.5 416.666666667 62.5 437.5 c 1
375 437.5 m 1
 437.5 437.5 l 1
 437.5 395.833333333 437.5 354.166666667 437.5 312.5 c 1
 416.666666667 312.5 395.833333333 312.5 375 312.5 c 1
 375 354.166666667 375 395.833333333 375 437.5 c 1
187.5 312.5 m 1
 375 312.5 l 1
 375 291.666666667 375 270.833333333 375 250 c 1
 312.5 250 250 250 187.5 250 c 1
 187.5 187.5 187.5 125 187.5 62.5 c 1
 166.666666667 62.5 145.833333333 62.5 125 62.5 c 1
 125 125 125 187.5 125 250 c 1
 145.833333333 250 166.666666667 250 187.5 250 c 1
 187.5 270.833333333 187.5 291.666666667 187.5 312.5 c 1
375 250 m 1
 437.5 250 l 1
 437.5 187.5 437.5 125 437.5 62.5 c 1
 416.666666667 62.5 395.833333333 62.5 375 62.5 c 1
 375 125 375 187.5 375 250 c 1
187.5 62.5 m 1
 375 62.5 l 1
 375 41.6666666667 375 20.8333333333 375 0 c 1
 312.5 -0 250 0 187.5 0 c 1
 187.5 20.8333333333 187.5 41.6666666667 187.5 62.5 c 1
EndSplineSet
EndChar

StartChar: nine
Encoding: 57 57 27
Width: 500
Flags: HW
LayerCount: 2
Back
Fore
SplineSet
187.5 500 m 1
 375 500 l 1
 375 479.166666667 375 458.333333333 375 437.5 c 1
 312.5 437.5 250 437.5 187.5 437.5 c 1
 187.5 458.333333333 187.5 479.166666667 187.5 500 c 1
125 437.5 m 1
 187.5 437.5 l 1
 187.5 375 187.5 312.5 187.5 250 c 1
 166.666666667 250 145.833333333 250 125 250 c 1
 125 312.5 125 375 125 437.5 c 1
375 437.5 m 1
 437.5 437.5 l 1
 437.5 333.333333333 437.5 229.166666667 437.5 125 c 1
 416.666666667 125 395.833333333 125 375 125 c 1
 375 166.666666667 375 208.333333333 375 250 c 1
 354.166666667 250 333.333333333 250 312.5 250 c 1
 312.5 270.833333333 312.5 291.666666667 312.5 312.5 c 1
 333.333333333 312.5 354.166666667 312.5 375 312.5 c 1
 375 354.166666667 375 395.833333333 375 437.5 c 1
187.5 250 m 1
 312.5 250 l 1
 312.5 229.166666667 312.5 208.333333333 312.5 187.5 c 1
 270.833333333 187.5 229.166666667 187.5 187.5 187.5 c 1
 187.5 208.333333333 187.5 229.166666667 187.5 250 c 1
312.5 125 m 1
 375 125 l 1
 375 104.166666667 375 83.3333333333 375 62.5 c 1
 354.166666667 62.5 333.333333333 62.5 312.5 62.5 c 1
 312.5 83.3333333333 312.5 104.166666667 312.5 125 c 1
187.5 62.5 m 1
 312.5 62.5 l 1
 312.5 41.6666666667 312.5 20.8333333333 312.5 0 c 1
 270.833333333 -0 229.166666667 0 187.5 0 c 1
 187.5 20.8333333333 187.5 41.6666666667 187.5 62.5 c 1
EndSplineSet
EndChar

StartChar: colon
Encoding: 58 58 28
Width: 250
Flags: HW
LayerCount: 2
Back
Fore
SplineSet
125 62.5 m 1
 187.5 62.5 l 1
 187.5 41.6666666667 187.5 20.8333333333 187.5 0 c 1
 166.666666667 -0 145.833333333 0 125 0 c 1
 125 20.8333333333 125 41.6666666667 125 62.5 c 1
125 437.5 m 1
 187.5 437.5 l 1
 187.5 416.666666667 187.5 395.833333333 187.5 375 c 1
 166.666666667 375 145.833333333 375 125 375 c 1
 125 395.833333333 125 416.666666667 125 437.5 c 1
EndSplineSet
EndChar

StartChar: semicolon
Encoding: 59 59 29
Width: 250
Flags: HW
LayerCount: 2
Back
Fore
SplineSet
125 437.5 m 1
 187.5 437.5 l 1
 187.5 416.666666667 187.5 395.833333333 187.5 375 c 1
 166.666666667 375 145.833333333 375 125 375 c 1
 125 395.833333333 125 416.666666667 125 437.5 c 1
125 62.5 m 1
 187.5 62.5 l 1
 187.5 20.8333333333 187.5 -20.8333333333 187.5 -62.5 c 1
 145.833333333 -62.5 104.166666667 -62.5 62.5 -62.5 c 1
 62.5 -41.6666666667 62.5 -20.8333333333 62.5 0 c 1
 83.3333333333 -0 104.166666667 0 125 0 c 1
 125 20.8333333333 125 41.6666666667 125 62.5 c 1
EndSplineSet
EndChar

StartChar: less
Encoding: 60 60 30
Width: 312
Flags: HW
LayerCount: 2
Back
Fore
SplineSet
187.5 312.5 m 1
 250 312.5 l 1
 250 291.666666667 250 270.833333333 250 250 c 1
 229.166666667 250 208.333333333 250 187.5 250 c 1
 187.5 270.833333333 187.5 291.666666667 187.5 312.5 c 1
125 250 m 1
 187.5 250 l 1
 187.5 229.166666667 187.5 208.333333333 187.5 187.5 c 1
 166.666666667 187.5 145.833333333 187.5 125 187.5 c 1
 125 208.333333333 125 229.166666667 125 250 c 1
62.5 187.5 m 1
 125 187.5 l 1
 125 166.666666667 125 145.833333333 125 125 c 1
 104.166666667 125 83.3333333333 125 62.5 125 c 1
 62.5 145.833333333 62.5 166.666666667 62.5 187.5 c 1
125 125 m 1
 187.5 125 l 1
 187.5 104.166666667 187.5 83.3333333333 187.5 62.5 c 1
 166.666666667 62.5 145.833333333 62.5 125 62.5 c 1
 125 83.3333333333 125 104.166666667 125 125 c 1
187.5 62.5 m 1
 250 62.5 l 1
 250 41.6666666667 250 20.8333333333 250 0 c 1
 229.166666667 -0 208.333333333 0 187.5 0 c 1
 187.5 20.8333333333 187.5 41.6666666667 187.5 62.5 c 1
EndSplineSet
EndChar

StartChar: equal
Encoding: 61 61 31
Width: 375
Flags: HW
LayerCount: 2
Back
Fore
SplineSet
62.5 125 m 1
 312.5 125 l 1
 312.5 104.166666667 312.5 83.3333333333 312.5 62.5 c 1
 229.166666667 62.5 145.833333333 62.5 62.5 62.5 c 1
 62.5 83.3333333333 62.5 104.166666667 62.5 125 c 1
62.5 250 m 1
 312.5 250 l 1
 312.5 229.166666667 312.5 208.333333333 312.5 187.5 c 1
 229.166666667 187.5 145.833333333 187.5 62.5 187.5 c 1
 62.5 208.333333333 62.5 229.166666667 62.5 250 c 1
EndSplineSet
EndChar

StartChar: greater
Encoding: 62 62 32
Width: 312
Flags: HW
LayerCount: 2
Back
Fore
SplineSet
62.5 312.5 m 1
 125 312.5 l 1
 125 291.666666667 125 270.833333333 125 250 c 1
 145.833333333 250 166.666666667 250 187.5 250 c 1
 187.5 229.166666667 187.5 208.333333333 187.5 187.5 c 1
 208.333333333 187.5 229.166666667 187.5 250 187.5 c 1
 250 166.666666667 250 145.833333333 250 125 c 1
 229.166666667 125 208.333333333 125 187.5 125 c 1
 187.5 104.166666667 187.5 83.3333333333 187.5 62.5 c 1
 166.666666667 62.5 145.833333333 62.5 125 62.5 c 1
 125 41.6666666667 125 20.8333333333 125 0 c 1
 104.166666667 -0 83.3333333333 0 62.5 0 c 1
 62.5 20.8333333333 62.5 41.6666666667 62.5 62.5 c 1
 83.3333333333 62.5 104.166666667 62.5 125 62.5 c 1
 125 83.3333333333 125 104.166666667 125 125 c 1
 145.833333333 125 166.666666667 125 187.5 125 c 1
 187.5 145.833333333 187.5 166.666666667 187.5 187.5 c 1
 166.666666667 187.5 145.833333333 187.5 125 187.5 c 1
 125 208.333333333 125 229.166666667 125 250 c 1
 104.166666667 250 83.3333333333 250 62.5 250 c 1
 62.5 270.833333333 62.5 291.666666667 62.5 312.5 c 1
EndSplineSet
EndChar

StartChar: question
Encoding: 63 63 33
Width: 562
Flags: HW
LayerCount: 2
Back
Fore
SplineSet
125 750 m 1
 437.5 750 l 1
 437.5 729.166666667 437.5 708.333333333 437.5 687.5 c 1
 333.333333333 687.5 229.166666667 687.5 125 687.5 c 1
 125 708.333333333 125 729.166666667 125 750 c 1
62.5 687.5 m 1
 125 687.5 l 1
 125 645.833333333 125 604.166666667 125 562.5 c 1
 104.166666667 562.5 83.3333333333 562.5 62.5 562.5 c 1
 62.5 604.166666667 62.5 645.833333333 62.5 687.5 c 1
437.5 687.5 m 1
 500 687.5 l 1
 500 625 500 562.5 500 500 c 1
 479.166666667 500 458.333333333 500 437.5 500 c 1
 437.5 562.5 437.5 625 437.5 687.5 c 1
125 562.5 m 1
 250 562.5 l 1
 250 541.666666667 250 520.833333333 250 500 c 1
 208.333333333 500 166.666666667 500 125 500 c 1
 125 520.833333333 125 541.666666667 125 562.5 c 1
375 500 m 1
 437.5 500 l 1
 437.5 479.166666667 437.5 458.333333333 437.5 437.5 c 1
 416.666666667 437.5 395.833333333 437.5 375 437.5 c 1
 375 416.666666667 375 395.833333333 375 375 c 1
 354.166666667 375 333.333333333 375 312.5 375 c 1
 312.5 312.5 312.5 250 312.5 187.5 c 1
 291.666666667 187.5 270.833333333 187.5 250 187.5 c 1
 250 250 250 312.5 250 375 c 1
 270.833333333 375 291.666666667 375 312.5 375 c 1
 312.5 395.833333333 312.5 416.666666667 312.5 437.5 c 1
 333.333333333 437.5 354.166666667 437.5 375 437.5 c 1
 375 458.333333333 375 479.166666667 375 500 c 1
250 125 m 1
 312.5 125 l 1
 312.5 83.3333333333 312.5 41.6666666667 312.5 0 c 1
 291.666666667 -0 270.833333333 0 250 0 c 1
 250 41.6666666667 250 83.3333333333 250 125 c 1
EndSplineSet
EndChar

StartChar: at
Encoding: 64 64 34
Width: 812
Flags: HW
LayerCount: 2
Back
Fore
SplineSet
125 187.5 m 1
 187.5 187.5 l 1
 187.5 166.666666667 187.5 145.833333333 187.5 125 c 1
 208.333333333 125 229.166666667 125 250 125 c 1
 250 104.166666667 250 83.3333333333 250 62.5 c 1
 229.166666667 62.5 208.333333333 62.5 187.5 62.5 c 1
 187.5 83.3333333333 187.5 104.166666667 187.5 125 c 1
 166.666666667 125 145.833333333 125 125 125 c 1
 125 145.833333333 125 166.666666667 125 187.5 c 1
250 62.5 m 1
 625 62.5 l 1
 625 41.6666666667 625 20.8333333333 625 0 c 1
 500 -0 375 0 250 0 c 1
 250 20.8333333333 250 41.6666666667 250 62.5 c 1
312.5 375 m 1
 312.5 333.333333333 312.5 291.666666667 312.5 250 c 1
 354.166666667 250 395.833333333 250 437.5 250 c 1
 437.5 270.833333333 437.5 291.666666667 437.5 312.5 c 1
 458.333333333 312.5 479.166666667 312.5 500 312.5 c 1
 500 333.333333333 500 354.166666667 500 375 c 1
 312.5 375 l 1
250 625 m 1
 562.5 625 l 1
 562.5 604.166666667 562.5 583.333333333 562.5 562.5 c 1
 458.333333333 562.5 354.166666667 562.5 250 562.5 c 1
 250 583.333333333 250 604.166666667 250 625 c 1
187.5 562.5 m 1
 250 562.5 l 1
 250 541.666666667 250 520.833333333 250 500 c 1
 229.166666667 500 208.333333333 500 187.5 500 c 1
 187.5 479.166666667 187.5 458.333333333 187.5 437.5 c 1
 166.666666667 437.5 145.833333333 437.5 125 437.5 c 1
 125 458.333333333 125 479.166666667 125 500 c 1
 145.833333333 500 166.666666667 500 187.5 500 c 1
 187.5 520.833333333 187.5 541.666666667 187.5 562.5 c 1
562.5 562.5 m 1
 625 562.5 l 1
 625 541.666666667 625 520.833333333 625 500 c 1
 645.833333333 500 666.666666667 500 687.5 500 c 1
 687.5 479.166666667 687.5 458.333333333 687.5 437.5 c 1
 666.666666667 437.5 645.833333333 437.5 625 437.5 c 1
 625 458.333333333 625 479.166666667 625 500 c 1
 604.166666667 500 583.333333333 500 562.5 500 c 1
 562.5 520.833333333 562.5 541.666666667 562.5 562.5 c 1
62.5 437.5 m 1
 125 437.5 l 1
 125 354.166666667 125 270.833333333 125 187.5 c 1
 104.166666667 187.5 83.3333333333 187.5 62.5 187.5 c 1
 62.5 270.833333333 62.5 354.166666667 62.5 437.5 c 1
312.5 437.5 m 1
 500 437.5 l 1
 500 416.666666667 500 395.833333333 500 375 c 1
 520.833333333 375 541.666666667 375 562.5 375 c 1
 562.5 312.5 562.5 250 562.5 187.5 c 1
 604.166666667 187.5 645.833333333 187.5 687.5 187.5 c 1
 687.5 166.666666667 687.5 145.833333333 687.5 125 c 1
 645.833333333 125 604.166666667 125 562.5 125 c 1
 562.5 145.833333333 562.5 166.666666667 562.5 187.5 c 1
 541.666666667 187.5 520.833333333 187.5 500 187.5 c 1
 500 208.333333333 500 229.166666667 500 250 c 1
 479.166666667 250 458.333333333 250 437.5 250 c 1
 437.5 229.166666667 437.5 208.333333333 437.5 187.5 c 1
 395.833333333 187.5 354.166666667 187.5 312.5 187.5 c 1
 312.5 208.333333333 312.5 229.166666667 312.5 250 c 1
 291.666666667 250 270.833333333 250 250 250 c 1
 250 291.666666667 250 333.333333333 250 375 c 1
 270.833333333 375 291.666666667 375 312.5 375 c 1
 312.5 395.833333333 312.5 416.666666667 312.5 437.5 c 1
687.5 437.5 m 1
 750 437.5 l 1
 750 354.166666667 750 270.833333333 750 187.5 c 1
 729.166666667 187.5 708.333333333 187.5 687.5 187.5 c 1
 687.5 270.833333333 687.5 354.166666667 687.5 437.5 c 1
EndSplineSet
EndChar

StartChar: A
Encoding: 65 65 35
Width: 500
Flags: HW
LayerCount: 2
Back
Fore
SplineSet
187.5 687.5 m 1
 187.5 604.166666667 187.5 520.833333333 187.5 437.5 c 1
 250 437.5 312.5 437.5 375 437.5 c 1
 375 520.833333333 375 604.166666667 375 687.5 c 1
 187.5 687.5 l 1
125 750 m 1
 437.5 750 l 1
 437.5 500 437.5 250 437.5 0 c 1
 395.833333333 -0 354.166666667 0 312.5 0 c 1
 312.5 20.8333333333 312.5 41.6666666667 312.5 62.5 c 1
 333.333333333 62.5 354.166666667 62.5 375 62.5 c 1
 375 166.666666667 375 270.833333333 375 375 c 1
 312.5 375 250 375 187.5 375 c 1
 187.5 250 187.5 125 187.5 0 c 1
 145.833333333 -0 104.166666667 0 62.5 0 c 1
 62.5 20.8333333333 62.5 41.6666666667 62.5 62.5 c 1
 83.3333333333 62.5 104.166666667 62.5 125 62.5 c 1
 125 250 125 437.5 125 625 c 1
 104.166666667 625 83.3333333333 625 62.5 625 c 1
 62.5 645.833333333 62.5 666.666666667 62.5 687.5 c 1
 83.3333333333 687.5 104.166666667 687.5 125 687.5 c 1
 125 708.333333333 125 729.166666667 125 750 c 1
EndSplineSet
EndChar

StartChar: B
Encoding: 66 66 36
Width: 500
Flags: HW
LayerCount: 2
Back
Fore
SplineSet
187.5 687.5 m 1
 187.5 604.166666667 187.5 520.833333333 187.5 437.5 c 1
 250 437.5 312.5 437.5 375 437.5 c 1
 375 520.833333333 375 604.166666667 375 687.5 c 1
 187.5 687.5 l 1
187.5 375 m 1
 187.5 270.833333333 187.5 166.666666667 187.5 62.5 c 1
 250 62.5 312.5 62.5 375 62.5 c 1
 375 166.666666667 375 270.833333333 375 375 c 1
 187.5 375 l 1
125 750 m 1
 375 750 l 1
 375 729.166666667 375 708.333333333 375 687.5 c 1
 395.833333333 687.5 416.666666667 687.5 437.5 687.5 c 1
 437.5 604.166666667 437.5 520.833333333 437.5 437.5 c 1
 416.666666667 437.5 395.833333333 437.5 375 437.5 c 1
 375 416.666666667 375 395.833333333 375 375 c 1
 395.833333333 375 416.666666667 375 437.5 375 c 1
 437.5 270.833333333 437.5 166.666666667 437.5 62.5 c 1
 416.666666667 62.5 395.833333333 62.5 375 62.5 c 1
 375 41.6666666667 375 20.8333333333 375 0 c 1
 270.833333333 -0 166.666666667 0 62.5 0 c 1
 62.5 20.8333333333 62.5 41.6666666667 62.5 62.5 c 1
 83.3333333333 62.5 104.166666667 62.5 125 62.5 c 1
 125 250 125 437.5 125 625 c 1
 104.166666667 625 83.3333333333 625 62.5 625 c 1
 62.5 645.833333333 62.5 666.666666667 62.5 687.5 c 1
 83.3333333333 687.5 104.166666667 687.5 125 687.5 c 1
 125 708.333333333 125 729.166666667 125 750 c 1
EndSplineSet
EndChar

StartChar: C
Encoding: 67 67 37
Width: 500
Flags: HW
LayerCount: 2
Back
Fore
SplineSet
187.5 750 m 1
 375 750 l 1
 375 729.166666667 375 708.333333333 375 687.5 c 1
 312.5 687.5 250 687.5 187.5 687.5 c 1
 187.5 708.333333333 187.5 729.166666667 187.5 750 c 1
62.5 687.5 m 1
 187.5 687.5 l 1
 187.5 479.166666667 187.5 270.833333333 187.5 62.5 c 1
 166.666666667 62.5 145.833333333 62.5 125 62.5 c 1
 125 250 125 437.5 125 625 c 1
 104.166666667 625 83.3333333333 625 62.5 625 c 1
 62.5 645.833333333 62.5 666.666666667 62.5 687.5 c 1
375 687.5 m 1
 437.5 687.5 l 1
 437.5 666.666666667 437.5 645.833333333 437.5 625 c 1
 416.666666667 625 395.833333333 625 375 625 c 1
 375 645.833333333 375 666.666666667 375 687.5 c 1
375 125 m 1
 437.5 125 l 1
 437.5 104.166666667 437.5 83.3333333333 437.5 62.5 c 1
 416.666666667 62.5 395.833333333 62.5 375 62.5 c 1
 375 83.3333333333 375 104.166666667 375 125 c 1
187.5 62.5 m 1
 375 62.5 l 1
 375 41.6666666667 375 20.8333333333 375 0 c 1
 312.5 -0 250 0 187.5 0 c 1
 187.5 20.8333333333 187.5 41.6666666667 187.5 62.5 c 1
EndSplineSet
EndChar

StartChar: D
Encoding: 68 68 38
Width: 500
Flags: HW
LayerCount: 2
Back
Fore
SplineSet
187.5 687.5 m 1
 187.5 479.166666667 187.5 270.833333333 187.5 62.5 c 1
 250 62.5 312.5 62.5 375 62.5 c 1
 375 270.833333333 375 479.166666667 375 687.5 c 1
 187.5 687.5 l 1
125 750 m 1
 375 750 l 1
 375 729.166666667 375 708.333333333 375 687.5 c 1
 395.833333333 687.5 416.666666667 687.5 437.5 687.5 c 1
 437.5 479.166666667 437.5 270.833333333 437.5 62.5 c 1
 416.666666667 62.5 395.833333333 62.5 375 62.5 c 1
 375 41.6666666667 375 20.8333333333 375 0 c 1
 270.833333333 -0 166.666666667 0 62.5 0 c 1
 62.5 20.8333333333 62.5 41.6666666667 62.5 62.5 c 1
 83.3333333333 62.5 104.166666667 62.5 125 62.5 c 1
 125 250 125 437.5 125 625 c 1
 104.166666667 625 83.3333333333 625 62.5 625 c 1
 62.5 645.833333333 62.5 666.666666667 62.5 687.5 c 1
 83.3333333333 687.5 104.166666667 687.5 125 687.5 c 1
 125 708.333333333 125 729.166666667 125 750 c 1
EndSplineSet
EndChar

StartChar: E
Encoding: 69 69 39
Width: 437
Flags: HW
LayerCount: 2
Back
Fore
SplineSet
125 750 m 1
 375 750 l 1
 375 729.166666667 375 708.333333333 375 687.5 c 1
 312.5 687.5 250 687.5 187.5 687.5 c 1
 187.5 604.166666667 187.5 520.833333333 187.5 437.5 c 1
 229.166666667 437.5 270.833333333 437.5 312.5 437.5 c 1
 312.5 416.666666667 312.5 395.833333333 312.5 375 c 1
 270.833333333 375 229.166666667 375 187.5 375 c 1
 187.5 270.833333333 187.5 166.666666667 187.5 62.5 c 1
 250 62.5 312.5 62.5 375 62.5 c 1
 375 41.6666666667 375 20.8333333333 375 0 c 1
 270.833333333 -0 166.666666667 0 62.5 0 c 1
 62.5 20.8333333333 62.5 41.6666666667 62.5 62.5 c 1
 83.3333333333 62.5 104.166666667 62.5 125 62.5 c 1
 125 250 125 437.5 125 625 c 1
 104.166666667 625 83.3333333333 625 62.5 625 c 1
 62.5 645.833333333 62.5 666.666666667 62.5 687.5 c 1
 83.3333333333 687.5 104.166666667 687.5 125 687.5 c 1
 125 708.333333333 125 729.166666667 125 750 c 1
EndSplineSet
EndChar

StartChar: F
Encoding: 70 70 40
Width: 500
Flags: HW
LayerCount: 2
Back
Fore
SplineSet
125 750 m 1
 437.5 750 l 1
 437.5 729.166666667 437.5 708.333333333 437.5 687.5 c 1
 354.166666667 687.5 270.833333333 687.5 187.5 687.5 c 1
 187.5 604.166666667 187.5 520.833333333 187.5 437.5 c 1
 250 437.5 312.5 437.5 375 437.5 c 1
 375 416.666666667 375 395.833333333 375 375 c 1
 312.5 375 250 375 187.5 375 c 1
 187.5 250 187.5 125 187.5 0 c 1
 145.833333333 -0 104.166666667 0 62.5 0 c 1
 62.5 20.8333333333 62.5 41.6666666667 62.5 62.5 c 1
 83.3333333333 62.5 104.166666667 62.5 125 62.5 c 1
 125 250 125 437.5 125 625 c 1
 104.166666667 625 83.3333333333 625 62.5 625 c 1
 62.5 645.833333333 62.5 666.666666667 62.5 687.5 c 1
 83.3333333333 687.5 104.166666667 687.5 125 687.5 c 1
 125 708.333333333 125 729.166666667 125 750 c 1
EndSplineSet
EndChar

StartChar: G
Encoding: 71 71 41
Width: 500
Flags: HW
LayerCount: 2
Back
Fore
SplineSet
125 750 m 1
 375 750 l 1
 375 729.166666667 375 708.333333333 375 687.5 c 1
 395.833333333 687.5 416.666666667 687.5 437.5 687.5 c 1
 437.5 666.666666667 437.5 645.833333333 437.5 625 c 1
 416.666666667 625 395.833333333 625 375 625 c 1
 375 645.833333333 375 666.666666667 375 687.5 c 1
 312.5 687.5 250 687.5 187.5 687.5 c 1
 187.5 479.166666667 187.5 270.833333333 187.5 62.5 c 1
 250 62.5 312.5 62.5 375 62.5 c 1
 375 166.666666667 375 270.833333333 375 375 c 1
 354.166666667 375 333.333333333 375 312.5 375 c 1
 312.5 395.833333333 312.5 416.666666667 312.5 437.5 c 1
 354.166666667 437.5 395.833333333 437.5 437.5 437.5 c 1
 437.5 312.5 437.5 187.5 437.5 62.5 c 1
 416.666666667 62.5 395.833333333 62.5 375 62.5 c 1
 375 41.6666666667 375 20.8333333333 375 0 c 1
 270.833333333 -0 166.666666667 0 62.5 0 c 1
 62.5 20.8333333333 62.5 41.6666666667 62.5 62.5 c 1
 83.3333333333 62.5 104.166666667 62.5 125 62.5 c 1
 125 250 125 437.5 125 625 c 1
 104.166666667 625 83.3333333333 625 62.5 625 c 1
 62.5 645.833333333 62.5 666.666666667 62.5 687.5 c 1
 83.3333333333 687.5 104.166666667 687.5 125 687.5 c 1
 125 708.333333333 125 729.166666667 125 750 c 1
EndSplineSet
EndChar

StartChar: H
Encoding: 72 72 42
Width: 500
Flags: HW
LayerCount: 2
Back
Fore
SplineSet
125 750 m 1
 187.5 750 l 1
 187.5 645.833333333 187.5 541.666666667 187.5 437.5 c 1
 250 437.5 312.5 437.5 375 437.5 c 1
 375 500 375 562.5 375 625 c 1
 354.166666667 625 333.333333333 625 312.5 625 c 1
 312.5 645.833333333 312.5 666.666666667 312.5 687.5 c 1
 333.333333333 687.5 354.166666667 687.5 375 687.5 c 1
 375 708.333333333 375 729.166666667 375 750 c 1
 395.833333333 750 416.666666667 750 437.5 750 c 1
 437.5 500 437.5 250 437.5 0 c 1
 395.833333333 -0 354.166666667 0 312.5 0 c 1
 312.5 20.8333333333 312.5 41.6666666667 312.5 62.5 c 1
 333.333333333 62.5 354.166666667 62.5 375 62.5 c 1
 375 166.666666667 375 270.833333333 375 375 c 1
 312.5 375 250 375 187.5 375 c 1
 187.5 250 187.5 125 187.5 0 c 1
 145.833333333 -0 104.166666667 0 62.5 0 c 1
 62.5 20.8333333333 62.5 41.6666666667 62.5 62.5 c 1
 83.3333333333 62.5 104.166666667 62.5 125 62.5 c 1
 125 250 125 437.5 125 625 c 1
 104.166666667 625 83.3333333333 625 62.5 625 c 1
 62.5 645.833333333 62.5 666.666666667 62.5 687.5 c 1
 83.3333333333 687.5 104.166666667 687.5 125 687.5 c 1
 125 708.333333333 125 729.166666667 125 750 c 1
EndSplineSet
EndChar

StartChar: I
Encoding: 73 73 43
Width: 312
Flags: HW
LayerCount: 2
Back
Fore
SplineSet
62.5 750 m 1
 250 750 l 1
 250 729.166666667 250 708.333333333 250 687.5 c 1
 229.166666667 687.5 208.333333333 687.5 187.5 687.5 c 1
 187.5 479.166666667 187.5 270.833333333 187.5 62.5 c 1
 208.333333333 62.5 229.166666667 62.5 250 62.5 c 1
 250 41.6666666667 250 20.8333333333 250 0 c 1
 187.5 -0 125 0 62.5 0 c 1
 62.5 20.8333333333 62.5 41.6666666667 62.5 62.5 c 1
 83.3333333333 62.5 104.166666667 62.5 125 62.5 c 1
 125 270.833333333 125 479.166666667 125 687.5 c 1
 104.166666667 687.5 83.3333333333 687.5 62.5 687.5 c 1
 62.5 708.333333333 62.5 729.166666667 62.5 750 c 1
EndSplineSet
EndChar

StartChar: J
Encoding: 74 74 44
Width: 375
Flags: HW
LayerCount: 2
Back
Fore
SplineSet
250 750 m 1
 312.5 750 l 1
 312.5 520.833333333 312.5 291.666666667 312.5 62.5 c 1
 291.666666667 62.5 270.833333333 62.5 250 62.5 c 1
 250 250 250 437.5 250 625 c 1
 229.166666667 625 208.333333333 625 187.5 625 c 1
 187.5 645.833333333 187.5 666.666666667 187.5 687.5 c 1
 208.333333333 687.5 229.166666667 687.5 250 687.5 c 1
 250 708.333333333 250 729.166666667 250 750 c 1
62.5 125 m 1
 125 125 l 1
 125 104.166666667 125 83.3333333333 125 62.5 c 1
 104.166666667 62.5 83.3333333333 62.5 62.5 62.5 c 1
 62.5 83.3333333333 62.5 104.166666667 62.5 125 c 1
125 62.5 m 1
 250 62.5 l 1
 250 41.6666666667 250 20.8333333333 250 0 c 1
 208.333333333 -0 166.666666667 0 125 0 c 1
 125 20.8333333333 125 41.6666666667 125 62.5 c 1
EndSplineSet
EndChar

StartChar: K
Encoding: 75 75 45
Width: 500
Flags: HW
LayerCount: 2
Back
Fore
SplineSet
125 750 m 1
 187.5 750 l 1
 187.5 645.833333333 187.5 541.666666667 187.5 437.5 c 1
 208.333333333 437.5 229.166666667 437.5 250 437.5 c 1
 250 479.166666667 250 520.833333333 250 562.5 c 1
 270.833333333 562.5 291.666666667 562.5 312.5 562.5 c 1
 312.5 604.166666667 312.5 645.833333333 312.5 687.5 c 1
 333.333333333 687.5 354.166666667 687.5 375 687.5 c 1
 375 708.333333333 375 729.166666667 375 750 c 1
 395.833333333 750 416.666666667 750 437.5 750 c 1
 437.5 729.166666667 437.5 708.333333333 437.5 687.5 c 1
 416.666666667 687.5 395.833333333 687.5 375 687.5 c 1
 375 645.833333333 375 604.166666667 375 562.5 c 1
 354.166666667 562.5 333.333333333 562.5 312.5 562.5 c 1
 312.5 520.833333333 312.5 479.166666667 312.5 437.5 c 1
 291.666666667 437.5 270.833333333 437.5 250 437.5 c 1
 250 416.666666667 250 395.833333333 250 375 c 1
 270.833333333 375 291.666666667 375 312.5 375 c 1
 312.5 333.333333333 312.5 291.666666667 312.5 250 c 1
 333.333333333 250 354.166666667 250 375 250 c 1
 375 187.5 375 125 375 62.5 c 1
 395.833333333 62.5 416.666666667 62.5 437.5 62.5 c 1
 437.5 41.6666666667 437.5 20.8333333333 437.5 0 c 1
 416.666666667 -0 395.833333333 0 375 0 c 1
 375 20.8333333333 375 41.6666666667 375 62.5 c 1
 354.166666667 62.5 333.333333333 62.5 312.5 62.5 c 1
 312.5 125 312.5 187.5 312.5 250 c 1
 291.666666667 250 270.833333333 250 250 250 c 1
 250 291.666666667 250 333.333333333 250 375 c 1
 229.166666667 375 208.333333333 375 187.5 375 c 1
 187.5 250 187.5 125 187.5 0 c 1
 145.833333333 -0 104.166666667 0 62.5 0 c 1
 62.5 20.8333333333 62.5 41.6666666667 62.5 62.5 c 1
 83.3333333333 62.5 104.166666667 62.5 125 62.5 c 1
 125 250 125 437.5 125 625 c 1
 104.166666667 625 83.3333333333 625 62.5 625 c 1
 62.5 645.833333333 62.5 666.666666667 62.5 687.5 c 1
 83.3333333333 687.5 104.166666667 687.5 125 687.5 c 1
 125 708.333333333 125 729.166666667 125 750 c 1
EndSplineSet
EndChar

StartChar: L
Encoding: 76 76 46
Width: 500
Flags: HW
LayerCount: 2
Back
Fore
SplineSet
125 750 m 1
 187.5 750 l 1
 187.5 520.833333333 187.5 291.666666667 187.5 62.5 c 1
 270.833333333 62.5 354.166666667 62.5 437.5 62.5 c 1
 437.5 41.6666666667 437.5 20.8333333333 437.5 0 c 1
 312.5 -0 187.5 0 62.5 0 c 1
 62.5 20.8333333333 62.5 41.6666666667 62.5 62.5 c 1
 83.3333333333 62.5 104.166666667 62.5 125 62.5 c 1
 125 250 125 437.5 125 625 c 1
 104.166666667 625 83.3333333333 625 62.5 625 c 1
 62.5 645.833333333 62.5 666.666666667 62.5 687.5 c 1
 83.3333333333 687.5 104.166666667 687.5 125 687.5 c 1
 125 708.333333333 125 729.166666667 125 750 c 1
EndSplineSet
EndChar

StartChar: M
Encoding: 77 77 47
Width: 625
Flags: HW
LayerCount: 2
Back
Fore
SplineSet
125 750 m 1
 250 750 l 1
 250 729.166666667 250 708.333333333 250 687.5 c 1
 270.833333333 687.5 291.666666667 687.5 312.5 687.5 c 1
 312.5 645.833333333 312.5 604.166666667 312.5 562.5 c 1
 333.333333333 562.5 354.166666667 562.5 375 562.5 c 1
 375 604.166666667 375 645.833333333 375 687.5 c 1
 395.833333333 687.5 416.666666667 687.5 437.5 687.5 c 1
 437.5 708.333333333 437.5 729.166666667 437.5 750 c 1
 479.166666667 750 520.833333333 750 562.5 750 c 1
 562.5 500 562.5 250 562.5 0 c 1
 520.833333333 -0 479.166666667 0 437.5 0 c 1
 437.5 20.8333333333 437.5 41.6666666667 437.5 62.5 c 1
 458.333333333 62.5 479.166666667 62.5 500 62.5 c 1
 500 270.833333333 500 479.166666667 500 687.5 c 1
 479.166666667 687.5 458.333333333 687.5 437.5 687.5 c 1
 437.5 645.833333333 437.5 604.166666667 437.5 562.5 c 1
 416.666666667 562.5 395.833333333 562.5 375 562.5 c 1
 375 500 375 437.5 375 375 c 1
 354.166666667 375 333.333333333 375 312.5 375 c 1
 312.5 437.5 312.5 500 312.5 562.5 c 1
 291.666666667 562.5 270.833333333 562.5 250 562.5 c 1
 250 604.166666667 250 645.833333333 250 687.5 c 1
 229.166666667 687.5 208.333333333 687.5 187.5 687.5 c 1
 187.5 458.333333333 187.5 229.166666667 187.5 0 c 1
 145.833333333 -0 104.166666667 0 62.5 0 c 1
 62.5 20.8333333333 62.5 41.6666666667 62.5 62.5 c 1
 83.3333333333 62.5 104.166666667 62.5 125 62.5 c 1
 125 250 125 437.5 125 625 c 1
 104.166666667 625 83.3333333333 625 62.5 625 c 1
 62.5 645.833333333 62.5 666.666666667 62.5 687.5 c 1
 83.3333333333 687.5 104.166666667 687.5 125 687.5 c 1
 125 708.333333333 125 729.166666667 125 750 c 1
EndSplineSet
EndChar

StartChar: N
Encoding: 78 78 48
Width: 562
Flags: HW
LayerCount: 2
Back
Fore
SplineSet
125 750 m 1
 187.5 750 l 1
 187.5 729.166666667 187.5 708.333333333 187.5 687.5 c 1
 208.333333333 687.5 229.166666667 687.5 250 687.5 c 1
 250 645.833333333 250 604.166666667 250 562.5 c 1
 270.833333333 562.5 291.666666667 562.5 312.5 562.5 c 1
 312.5 500 312.5 437.5 312.5 375 c 1
 333.333333333 375 354.166666667 375 375 375 c 1
 375 312.5 375 250 375 187.5 c 1
 395.833333333 187.5 416.666666667 187.5 437.5 187.5 c 1
 437.5 333.333333333 437.5 479.166666667 437.5 625 c 1
 416.666666667 625 395.833333333 625 375 625 c 1
 375 645.833333333 375 666.666666667 375 687.5 c 1
 395.833333333 687.5 416.666666667 687.5 437.5 687.5 c 1
 437.5 708.333333333 437.5 729.166666667 437.5 750 c 1
 458.333333333 750 479.166666667 750 500 750 c 1
 500 500 500 250 500 0 c 1
 479.166666667 -0 458.333333333 0 437.5 0 c 1
 437.5 20.8333333333 437.5 41.6666666667 437.5 62.5 c 1
 416.666666667 62.5 395.833333333 62.5 375 62.5 c 1
 375 104.166666667 375 145.833333333 375 187.5 c 1
 354.166666667 187.5 333.333333333 187.5 312.5 187.5 c 1
 312.5 250 312.5 312.5 312.5 375 c 1
 291.666666667 375 270.833333333 375 250 375 c 1
 250 437.5 250 500 250 562.5 c 1
 229.166666667 562.5 208.333333333 562.5 187.5 562.5 c 1
 187.5 375 187.5 187.5 187.5 0 c 1
 145.833333333 -0 104.166666667 0 62.5 0 c 1
 62.5 20.8333333333 62.5 41.6666666667 62.5 62.5 c 1
 83.3333333333 62.5 104.166666667 62.5 125 62.5 c 1
 125 250 125 437.5 125 625 c 1
 104.166666667 625 83.3333333333 625 62.5 625 c 1
 62.5 645.833333333 62.5 666.666666667 62.5 687.5 c 1
 83.3333333333 687.5 104.166666667 687.5 125 687.5 c 1
 125 708.333333333 125 729.166666667 125 750 c 1
EndSplineSet
EndChar

StartChar: O
Encoding: 79 79 49
Width: 500
Flags: HW
LayerCount: 2
Back
Fore
SplineSet
187.5 750 m 1
 375 750 l 1
 375 729.166666667 375 708.333333333 375 687.5 c 1
 312.5 687.5 250 687.5 187.5 687.5 c 1
 187.5 708.333333333 187.5 729.166666667 187.5 750 c 1
125 687.5 m 1
 187.5 687.5 l 1
 187.5 479.166666667 187.5 270.833333333 187.5 62.5 c 1
 166.666666667 62.5 145.833333333 62.5 125 62.5 c 1
 125 229.166666667 125 395.833333333 125 562.5 c 1
 104.166666667 562.5 83.3333333333 562.5 62.5 562.5 c 1
 62.5 583.333333333 62.5 604.166666667 62.5 625 c 1
 83.3333333333 625 104.166666667 625 125 625 c 1
 125 645.833333333 125 666.666666667 125 687.5 c 1
375 687.5 m 1
 437.5 687.5 l 1
 437.5 479.166666667 437.5 270.833333333 437.5 62.5 c 1
 416.666666667 62.5 395.833333333 62.5 375 62.5 c 1
 375 270.833333333 375 479.166666667 375 687.5 c 1
187.5 62.5 m 1
 375 62.5 l 1
 375 41.6666666667 375 20.8333333333 375 0 c 1
 312.5 -0 250 0 187.5 0 c 1
 187.5 20.8333333333 187.5 41.6666666667 187.5 62.5 c 1
EndSplineSet
EndChar

StartChar: P
Encoding: 80 80 50
Width: 500
Flags: HW
LayerCount: 2
Back
Fore
SplineSet
187.5 687.5 m 1
 187.5 604.166666667 187.5 520.833333333 187.5 437.5 c 1
 250 437.5 312.5 437.5 375 437.5 c 1
 375 520.833333333 375 604.166666667 375 687.5 c 1
 187.5 687.5 l 1
125 750 m 1
 375 750 l 1
 375 729.166666667 375 708.333333333 375 687.5 c 1
 395.833333333 687.5 416.666666667 687.5 437.5 687.5 c 1
 437.5 604.166666667 437.5 520.833333333 437.5 437.5 c 1
 416.666666667 437.5 395.833333333 437.5 375 437.5 c 1
 375 416.666666667 375 395.833333333 375 375 c 1
 312.5 375 250 375 187.5 375 c 1
 187.5 250 187.5 125 187.5 0 c 1
 145.833333333 -0 104.166666667 0 62.5 0 c 1
 62.5 20.8333333333 62.5 41.6666666667 62.5 62.5 c 1
 83.3333333333 62.5 104.166666667 62.5 125 62.5 c 1
 125 250 125 437.5 125 625 c 1
 104.166666667 625 83.3333333333 625 62.5 625 c 1
 62.5 645.833333333 62.5 666.666666667 62.5 687.5 c 1
 83.3333333333 687.5 104.166666667 687.5 125 687.5 c 1
 125 708.333333333 125 729.166666667 125 750 c 1
EndSplineSet
EndChar

StartChar: Q
Encoding: 81 81 51
Width: 562
Flags: HW
LayerCount: 2
Back
Fore
SplineSet
187.5 750 m 1
 375 750 l 1
 375 729.166666667 375 708.333333333 375 687.5 c 1
 312.5 687.5 250 687.5 187.5 687.5 c 1
 187.5 708.333333333 187.5 729.166666667 187.5 750 c 1
125 687.5 m 1
 187.5 687.5 l 1
 187.5 479.166666667 187.5 270.833333333 187.5 62.5 c 1
 166.666666667 62.5 145.833333333 62.5 125 62.5 c 1
 125 229.166666667 125 395.833333333 125 562.5 c 1
 104.166666667 562.5 83.3333333333 562.5 62.5 562.5 c 1
 62.5 583.333333333 62.5 604.166666667 62.5 625 c 1
 83.3333333333 625 104.166666667 625 125 625 c 1
 125 645.833333333 125 666.666666667 125 687.5 c 1
375 687.5 m 1
 437.5 687.5 l 1
 437.5 479.166666667 437.5 270.833333333 437.5 62.5 c 1
 416.666666667 62.5 395.833333333 62.5 375 62.5 c 1
 375 83.3333333333 375 104.166666667 375 125 c 1
 354.166666667 125 333.333333333 125 312.5 125 c 1
 312.5 145.833333333 312.5 166.666666667 312.5 187.5 c 1
 291.666666667 187.5 270.833333333 187.5 250 187.5 c 1
 250 208.333333333 250 229.166666667 250 250 c 1
 270.833333333 250 291.666666667 250 312.5 250 c 1
 312.5 229.166666667 312.5 208.333333333 312.5 187.5 c 1
 333.333333333 187.5 354.166666667 187.5 375 187.5 c 1
 375 354.166666667 375 520.833333333 375 687.5 c 1
187.5 62.5 m 1
 375 62.5 l 1
 375 41.6666666667 375 20.8333333333 375 0 c 1
 312.5 -0 250 0 187.5 0 c 1
 187.5 20.8333333333 187.5 41.6666666667 187.5 62.5 c 1
437.5 62.5 m 1
 500 62.5 l 1
 500 41.6666666667 500 20.8333333333 500 0 c 1
 479.166666667 -0 458.333333333 0 437.5 0 c 1
 437.5 20.8333333333 437.5 41.6666666667 437.5 62.5 c 1
EndSplineSet
EndChar

StartChar: R
Encoding: 82 82 52
Width: 500
Flags: HW
LayerCount: 2
Back
Fore
SplineSet
187.5 687.5 m 1
 187.5 604.166666667 187.5 520.833333333 187.5 437.5 c 1
 250 437.5 312.5 437.5 375 437.5 c 1
 375 520.833333333 375 604.166666667 375 687.5 c 1
 187.5 687.5 l 1
125 750 m 1
 375 750 l 1
 375 729.166666667 375 708.333333333 375 687.5 c 1
 395.833333333 687.5 416.666666667 687.5 437.5 687.5 c 1
 437.5 604.166666667 437.5 520.833333333 437.5 437.5 c 1
 416.666666667 437.5 395.833333333 437.5 375 437.5 c 1
 375 395.833333333 375 354.166666667 375 312.5 c 1
 395.833333333 312.5 416.666666667 312.5 437.5 312.5 c 1
 437.5 208.333333333 437.5 104.166666667 437.5 0 c 1
 395.833333333 -0 354.166666667 0 312.5 0 c 1
 312.5 20.8333333333 312.5 41.6666666667 312.5 62.5 c 1
 333.333333333 62.5 354.166666667 62.5 375 62.5 c 1
 375 145.833333333 375 229.166666667 375 312.5 c 1
 354.166666667 312.5 333.333333333 312.5 312.5 312.5 c 1
 312.5 333.333333333 312.5 354.166666667 312.5 375 c 1
 270.833333333 375 229.166666667 375 187.5 375 c 1
 187.5 250 187.5 125 187.5 0 c 1
 145.833333333 -0 104.166666667 0 62.5 0 c 1
 62.5 20.8333333333 62.5 41.6666666667 62.5 62.5 c 1
 83.3333333333 62.5 104.166666667 62.5 125 62.5 c 1
 125 250 125 437.5 125 625 c 1
 104.166666667 625 83.3333333333 625 62.5 625 c 1
 62.5 645.833333333 62.5 666.666666667 62.5 687.5 c 1
 83.3333333333 687.5 104.166666667 687.5 125 687.5 c 1
 125 708.333333333 125 729.166666667 125 750 c 1
EndSplineSet
EndChar

StartChar: S
Encoding: 83 83 53
Width: 437
Flags: HW
LayerCount: 2
Back
Fore
SplineSet
125 750 m 1
 312.5 750 l 1
 312.5 729.166666667 312.5 708.333333333 312.5 687.5 c 1
 250 687.5 187.5 687.5 125 687.5 c 1
 125 708.333333333 125 729.166666667 125 750 c 1
62.5 687.5 m 1
 125 687.5 l 1
 125 604.166666667 125 520.833333333 125 437.5 c 1
 104.166666667 437.5 83.3333333333 437.5 62.5 437.5 c 1
 62.5 520.833333333 62.5 604.166666667 62.5 687.5 c 1
312.5 687.5 m 1
 375 687.5 l 1
 375 666.666666667 375 645.833333333 375 625 c 1
 354.166666667 625 333.333333333 625 312.5 625 c 1
 312.5 645.833333333 312.5 666.666666667 312.5 687.5 c 1
250 625 m 1
 312.5 625 l 1
 312.5 604.166666667 312.5 583.333333333 312.5 562.5 c 1
 291.666666667 562.5 270.833333333 562.5 250 562.5 c 1
 250 583.333333333 250 604.166666667 250 625 c 1
125 437.5 m 1
 312.5 437.5 l 1
 312.5 416.666666667 312.5 395.833333333 312.5 375 c 1
 250 375 187.5 375 125 375 c 1
 125 395.833333333 125 416.666666667 125 437.5 c 1
312.5 375 m 1
 375 375 l 1
 375 270.833333333 375 166.666666667 375 62.5 c 1
 354.166666667 62.5 333.333333333 62.5 312.5 62.5 c 1
 312.5 166.666666667 312.5 270.833333333 312.5 375 c 1
125 187.5 m 1
 187.5 187.5 l 1
 187.5 166.666666667 187.5 145.833333333 187.5 125 c 1
 166.666666667 125 145.833333333 125 125 125 c 1
 125 145.833333333 125 166.666666667 125 187.5 c 1
62.5 125 m 1
 125 125 l 1
 125 104.166666667 125 83.3333333333 125 62.5 c 1
 104.166666667 62.5 83.3333333333 62.5 62.5 62.5 c 1
 62.5 83.3333333333 62.5 104.166666667 62.5 125 c 1
125 62.5 m 1
 312.5 62.5 l 1
 312.5 41.6666666667 312.5 20.8333333333 312.5 0 c 1
 250 -0 187.5 0 125 0 c 1
 125 20.8333333333 125 41.6666666667 125 62.5 c 1
EndSplineSet
EndChar

StartChar: T
Encoding: 84 84 54
Width: 625
Flags: HW
LayerCount: 2
Back
Fore
SplineSet
125 750 m 1
 625 750 l 1
 625 729.166666667 625 708.333333333 625 687.5 c 1
 604.166666667 687.5 583.333333333 687.5 562.5 687.5 c 1
 562.5 666.666666667 562.5 645.833333333 562.5 625 c 1
 541.666666667 625 520.833333333 625 500 625 c 1
 500 645.833333333 500 666.666666667 500 687.5 c 1
 458.333333333 687.5 416.666666667 687.5 375 687.5 c 1
 375 458.333333333 375 229.166666667 375 0 c 1
 333.333333333 -0 291.666666667 0 250 0 c 1
 250 20.8333333333 250 41.6666666667 250 62.5 c 1
 270.833333333 62.5 291.666666667 62.5 312.5 62.5 c 1
 312.5 270.833333333 312.5 479.166666667 312.5 687.5 c 1
 250 687.5 187.5 687.5 125 687.5 c 1
 125 708.333333333 125 729.166666667 125 750 c 1
62.5 687.5 m 1
 125 687.5 l 1
 125 666.666666667 125 645.833333333 125 625 c 1
 104.166666667 625 83.3333333333 625 62.5 625 c 1
 62.5 645.833333333 62.5 666.666666667 62.5 687.5 c 1
EndSplineSet
EndChar

StartChar: U
Encoding: 85 85 55
Width: 500
Flags: HW
LayerCount: 2
Back
Fore
SplineSet
125 750 m 1
 187.5 750 l 1
 187.5 520.833333333 187.5 291.666666667 187.5 62.5 c 1
 250 62.5 312.5 62.5 375 62.5 c 1
 375 250 375 437.5 375 625 c 1
 354.166666667 625 333.333333333 625 312.5 625 c 1
 312.5 645.833333333 312.5 666.666666667 312.5 687.5 c 1
 333.333333333 687.5 354.166666667 687.5 375 687.5 c 1
 375 708.333333333 375 729.166666667 375 750 c 1
 395.833333333 750 416.666666667 750 437.5 750 c 1
 437.5 520.833333333 437.5 291.666666667 437.5 62.5 c 1
 416.666666667 62.5 395.833333333 62.5 375 62.5 c 1
 375 41.6666666667 375 20.8333333333 375 0 c 1
 270.833333333 -0 166.666666667 0 62.5 0 c 1
 62.5 20.8333333333 62.5 41.6666666667 62.5 62.5 c 1
 83.3333333333 62.5 104.166666667 62.5 125 62.5 c 1
 125 250 125 437.5 125 625 c 1
 104.166666667 625 83.3333333333 625 62.5 625 c 1
 62.5 645.833333333 62.5 666.666666667 62.5 687.5 c 1
 83.3333333333 687.5 104.166666667 687.5 125 687.5 c 1
 125 708.333333333 125 729.166666667 125 750 c 1
EndSplineSet
EndChar

StartChar: V
Encoding: 86 86 56
Width: 500
Flags: HW
LayerCount: 2
Back
Fore
SplineSet
125 750 m 1
 187.5 750 l 1
 187.5 562.5 187.5 375 187.5 187.5 c 1
 208.333333333 187.5 229.166666667 187.5 250 187.5 c 1
 250 145.833333333 250 104.166666667 250 62.5 c 1
 270.833333333 62.5 291.666666667 62.5 312.5 62.5 c 1
 312.5 104.166666667 312.5 145.833333333 312.5 187.5 c 1
 333.333333333 187.5 354.166666667 187.5 375 187.5 c 1
 375 333.333333333 375 479.166666667 375 625 c 1
 354.166666667 625 333.333333333 625 312.5 625 c 1
 312.5 645.833333333 312.5 666.666666667 312.5 687.5 c 1
 333.333333333 687.5 354.166666667 687.5 375 687.5 c 1
 375 708.333333333 375 729.166666667 375 750 c 1
 395.833333333 750 416.666666667 750 437.5 750 c 1
 437.5 562.5 437.5 375 437.5 187.5 c 1
 416.666666667 187.5 395.833333333 187.5 375 187.5 c 1
 375 145.833333333 375 104.166666667 375 62.5 c 1
 354.166666667 62.5 333.333333333 62.5 312.5 62.5 c 1
 312.5 41.6666666667 312.5 20.8333333333 312.5 0 c 1
 291.666666667 -0 270.833333333 0 250 0 c 1
 250 20.8333333333 250 41.6666666667 250 62.5 c 1
 229.166666667 62.5 208.333333333 62.5 187.5 62.5 c 1
 187.5 104.166666667 187.5 145.833333333 187.5 187.5 c 1
 166.666666667 187.5 145.833333333 187.5 125 187.5 c 1
 125 333.333333333 125 479.166666667 125 625 c 1
 104.166666667 625 83.3333333333 625 62.5 625 c 1
 62.5 645.833333333 62.5 666.666666667 62.5 687.5 c 1
 83.3333333333 687.5 104.166666667 687.5 125 687.5 c 1
 125 708.333333333 125 729.166666667 125 750 c 1
EndSplineSet
EndChar

StartChar: W
Encoding: 87 87 57
Width: 625
Flags: HW
LayerCount: 2
Back
Fore
SplineSet
125 750 m 1
 187.5 750 l 1
 187.5 520.833333333 187.5 291.666666667 187.5 62.5 c 1
 208.333333333 62.5 229.166666667 62.5 250 62.5 c 1
 250 104.166666667 250 145.833333333 250 187.5 c 1
 270.833333333 187.5 291.666666667 187.5 312.5 187.5 c 1
 312.5 291.666666667 312.5 395.833333333 312.5 500 c 1
 291.666666667 500 270.833333333 500 250 500 c 1
 250 520.833333333 250 541.666666667 250 562.5 c 1
 270.833333333 562.5 291.666666667 562.5 312.5 562.5 c 1
 312.5 583.333333333 312.5 604.166666667 312.5 625 c 1
 333.333333333 625 354.166666667 625 375 625 c 1
 375 479.166666667 375 333.333333333 375 187.5 c 1
 395.833333333 187.5 416.666666667 187.5 437.5 187.5 c 1
 437.5 145.833333333 437.5 104.166666667 437.5 62.5 c 1
 458.333333333 62.5 479.166666667 62.5 500 62.5 c 1
 500 250 500 437.5 500 625 c 1
 479.166666667 625 458.333333333 625 437.5 625 c 1
 437.5 645.833333333 437.5 666.666666667 437.5 687.5 c 1
 458.333333333 687.5 479.166666667 687.5 500 687.5 c 1
 500 708.333333333 500 729.166666667 500 750 c 1
 520.833333333 750 541.666666667 750 562.5 750 c 1
 562.5 500 562.5 250 562.5 0 c 1
 520.833333333 -0 479.166666667 0 437.5 0 c 1
 437.5 20.8333333333 437.5 41.6666666667 437.5 62.5 c 1
 416.666666667 62.5 395.833333333 62.5 375 62.5 c 1
 375 104.166666667 375 145.833333333 375 187.5 c 1
 354.166666667 187.5 333.333333333 187.5 312.5 187.5 c 1
 312.5 145.833333333 312.5 104.166666667 312.5 62.5 c 1
 291.666666667 62.5 270.833333333 62.5 250 62.5 c 1
 250 41.6666666667 250 20.8333333333 250 0 c 1
 187.5 -0 125 0 62.5 0 c 1
 62.5 20.8333333333 62.5 41.6666666667 62.5 62.5 c 1
 83.3333333333 62.5 104.166666667 62.5 125 62.5 c 1
 125 250 125 437.5 125 625 c 1
 104.166666667 625 83.3333333333 625 62.5 625 c 1
 62.5 645.833333333 62.5 666.666666667 62.5 687.5 c 1
 83.3333333333 687.5 104.166666667 687.5 125 687.5 c 1
 125 708.333333333 125 729.166666667 125 750 c 1
EndSplineSet
EndChar

StartChar: X
Encoding: 88 88 58
Width: 500
Flags: HW
LayerCount: 2
Back
Fore
SplineSet
125 750 m 1
 187.5 750 l 1
 187.5 687.5 187.5 625 187.5 562.5 c 1
 208.333333333 562.5 229.166666667 562.5 250 562.5 c 1
 250 520.833333333 250 479.166666667 250 437.5 c 1
 270.833333333 437.5 291.666666667 437.5 312.5 437.5 c 1
 312.5 479.166666667 312.5 520.833333333 312.5 562.5 c 1
 333.333333333 562.5 354.166666667 562.5 375 562.5 c 1
 375 583.333333333 375 604.166666667 375 625 c 1
 354.166666667 625 333.333333333 625 312.5 625 c 1
 312.5 645.833333333 312.5 666.666666667 312.5 687.5 c 1
 333.333333333 687.5 354.166666667 687.5 375 687.5 c 1
 375 708.333333333 375 729.166666667 375 750 c 1
 395.833333333 750 416.666666667 750 437.5 750 c 1
 437.5 687.5 437.5 625 437.5 562.5 c 1
 416.666666667 562.5 395.833333333 562.5 375 562.5 c 1
 375 520.833333333 375 479.166666667 375 437.5 c 1
 354.166666667 437.5 333.333333333 437.5 312.5 437.5 c 1
 312.5 395.833333333 312.5 354.166666667 312.5 312.5 c 1
 333.333333333 312.5 354.166666667 312.5 375 312.5 c 1
 375 270.833333333 375 229.166666667 375 187.5 c 1
 395.833333333 187.5 416.666666667 187.5 437.5 187.5 c 1
 437.5 125 437.5 62.5 437.5 0 c 1
 395.833333333 -0 354.166666667 0 312.5 0 c 1
 312.5 20.8333333333 312.5 41.6666666667 312.5 62.5 c 1
 333.333333333 62.5 354.166666667 62.5 375 62.5 c 1
 375 104.166666667 375 145.833333333 375 187.5 c 1
 354.166666667 187.5 333.333333333 187.5 312.5 187.5 c 1
 312.5 229.166666667 312.5 270.833333333 312.5 312.5 c 1
 291.666666667 312.5 270.833333333 312.5 250 312.5 c 1
 250 270.833333333 250 229.166666667 250 187.5 c 1
 229.166666667 187.5 208.333333333 187.5 187.5 187.5 c 1
 187.5 125 187.5 62.5 187.5 0 c 1
 145.833333333 -0 104.166666667 0 62.5 0 c 1
 62.5 20.8333333333 62.5 41.6666666667 62.5 62.5 c 1
 83.3333333333 62.5 104.166666667 62.5 125 62.5 c 1
 125 104.166666667 125 145.833333333 125 187.5 c 1
 145.833333333 187.5 166.666666667 187.5 187.5 187.5 c 1
 187.5 229.166666667 187.5 270.833333333 187.5 312.5 c 1
 208.333333333 312.5 229.166666667 312.5 250 312.5 c 1
 250 354.166666667 250 395.833333333 250 437.5 c 1
 229.166666667 437.5 208.333333333 437.5 187.5 437.5 c 1
 187.5 479.166666667 187.5 520.833333333 187.5 562.5 c 1
 166.666666667 562.5 145.833333333 562.5 125 562.5 c 1
 125 583.333333333 125 604.166666667 125 625 c 1
 104.166666667 625 83.3333333333 625 62.5 625 c 1
 62.5 645.833333333 62.5 666.666666667 62.5 687.5 c 1
 83.3333333333 687.5 104.166666667 687.5 125 687.5 c 1
 125 708.333333333 125 729.166666667 125 750 c 1
EndSplineSet
EndChar

StartChar: Y
Encoding: 89 89 59
Width: 500
Flags: HW
LayerCount: 2
Back
Fore
SplineSet
125 750 m 1
 187.5 750 l 1
 187.5 645.833333333 187.5 541.666666667 187.5 437.5 c 1
 250 437.5 312.5 437.5 375 437.5 c 1
 375 500 375 562.5 375 625 c 1
 354.166666667 625 333.333333333 625 312.5 625 c 1
 312.5 645.833333333 312.5 666.666666667 312.5 687.5 c 1
 333.333333333 687.5 354.166666667 687.5 375 687.5 c 1
 375 708.333333333 375 729.166666667 375 750 c 1
 395.833333333 750 416.666666667 750 437.5 750 c 1
 437.5 520.833333333 437.5 291.666666667 437.5 62.5 c 1
 416.666666667 62.5 395.833333333 62.5 375 62.5 c 1
 375 41.6666666667 375 20.8333333333 375 0 c 1
 312.5 -0 250 0 187.5 0 c 1
 187.5 20.8333333333 187.5 41.6666666667 187.5 62.5 c 1
 166.666666667 62.5 145.833333333 62.5 125 62.5 c 1
 125 83.3333333333 125 104.166666667 125 125 c 1
 145.833333333 125 166.666666667 125 187.5 125 c 1
 187.5 104.166666667 187.5 83.3333333333 187.5 62.5 c 1
 250 62.5 312.5 62.5 375 62.5 c 1
 375 166.666666667 375 270.833333333 375 375 c 1
 312.5 375 250 375 187.5 375 c 1
 187.5 395.833333333 187.5 416.666666667 187.5 437.5 c 1
 166.666666667 437.5 145.833333333 437.5 125 437.5 c 1
 125 500 125 562.5 125 625 c 1
 104.166666667 625 83.3333333333 625 62.5 625 c 1
 62.5 645.833333333 62.5 666.666666667 62.5 687.5 c 1
 83.3333333333 687.5 104.166666667 687.5 125 687.5 c 1
 125 708.333333333 125 729.166666667 125 750 c 1
EndSplineSet
EndChar

StartChar: Z
Encoding: 90 90 60
Width: 437
Flags: HW
LayerCount: 2
Back
Fore
SplineSet
125 750 m 1
 375 750 l 1
 375 687.5 375 625 375 562.5 c 1
 354.166666667 562.5 333.333333333 562.5 312.5 562.5 c 1
 312.5 604.166666667 312.5 645.833333333 312.5 687.5 c 1
 250 687.5 187.5 687.5 125 687.5 c 1
 125 708.333333333 125 729.166666667 125 750 c 1
62.5 687.5 m 1
 125 687.5 l 1
 125 666.666666667 125 645.833333333 125 625 c 1
 104.166666667 625 83.3333333333 625 62.5 625 c 1
 62.5 645.833333333 62.5 666.666666667 62.5 687.5 c 1
250 562.5 m 1
 312.5 562.5 l 1
 312.5 500 312.5 437.5 312.5 375 c 1
 291.666666667 375 270.833333333 375 250 375 c 1
 250 312.5 250 250 250 187.5 c 1
 229.166666667 187.5 208.333333333 187.5 187.5 187.5 c 1
 187.5 250 187.5 312.5 187.5 375 c 1
 208.333333333 375 229.166666667 375 250 375 c 1
 250 437.5 250 500 250 562.5 c 1
125 187.5 m 1
 187.5 187.5 l 1
 187.5 145.833333333 187.5 104.166666667 187.5 62.5 c 1
 250 62.5 312.5 62.5 375 62.5 c 1
 375 41.6666666667 375 20.8333333333 375 0 c 1
 270.833333333 -0 166.666666667 0 62.5 0 c 1
 62.5 20.8333333333 62.5 41.6666666667 62.5 62.5 c 1
 83.3333333333 62.5 104.166666667 62.5 125 62.5 c 1
 125 104.166666667 125 145.833333333 125 187.5 c 1
EndSplineSet
EndChar

StartChar: bracketleft
Encoding: 91 91 61
Width: 375
Flags: HW
LayerCount: 2
Back
Fore
SplineSet
125 750 m 1
 312.5 750 l 1
 312.5 708.333333333 312.5 666.666666667 312.5 625 c 1
 291.666666667 625 270.833333333 625 250 625 c 1
 250 645.833333333 250 666.666666667 250 687.5 c 1
 229.166666667 687.5 208.333333333 687.5 187.5 687.5 c 1
 187.5 437.5 187.5 187.5 187.5 -62.5 c 1
 208.333333333 -62.5 229.166666667 -62.5 250 -62.5 c 1
 250 -41.6666666667 250 -20.8333333333 250 0 c 1
 270.833333333 -0 291.666666667 0 312.5 0 c 1
 312.5 -41.6666666667 312.5 -83.3333333333 312.5 -125 c 1
 250 -125 187.5 -125 125 -125 c 1
 125 125 125 375 125 625 c 1
 104.166666667 625 83.3333333333 625 62.5 625 c 1
 62.5 645.833333333 62.5 666.666666667 62.5 687.5 c 1
 83.3333333333 687.5 104.166666667 687.5 125 687.5 c 1
 125 708.333333333 125 729.166666667 125 750 c 1
EndSplineSet
EndChar

StartChar: backslash
Encoding: 92 92 62
Width: 562
Flags: HW
LayerCount: 2
Back
Fore
SplineSet
125 750 m 1
 187.5 750 l 1
 187.5 708.333333333 187.5 666.666666667 187.5 625 c 1
 208.333333333 625 229.166666667 625 250 625 c 1
 250 583.333333333 250 541.666666667 250 500 c 1
 270.833333333 500 291.666666667 500 312.5 500 c 1
 312.5 458.333333333 312.5 416.666666667 312.5 375 c 1
 333.333333333 375 354.166666667 375 375 375 c 1
 375 333.333333333 375 291.666666667 375 250 c 1
 395.833333333 250 416.666666667 250 437.5 250 c 1
 437.5 208.333333333 437.5 166.666666667 437.5 125 c 1
 458.333333333 125 479.166666667 125 500 125 c 1
 500 83.3333333333 500 41.6666666667 500 0 c 1
 479.166666667 -0 458.333333333 0 437.5 0 c 1
 437.5 41.6666666667 437.5 83.3333333333 437.5 125 c 1
 416.666666667 125 395.833333333 125 375 125 c 1
 375 166.666666667 375 208.333333333 375 250 c 1
 354.166666667 250 333.333333333 250 312.5 250 c 1
 312.5 291.666666667 312.5 333.333333333 312.5 375 c 1
 291.666666667 375 270.833333333 375 250 375 c 1
 250 416.666666667 250 458.333333333 250 500 c 1
 229.166666667 500 208.333333333 500 187.5 500 c 1
 187.5 541.666666667 187.5 583.333333333 187.5 625 c 1
 166.666666667 625 145.833333333 625 125 625 c 1
 125 666.666666667 125 708.333333333 125 750 c 1
EndSplineSet
EndChar

StartChar: bracketright
Encoding: 93 93 63
Width: 312
Flags: HW
LayerCount: 2
Back
Fore
SplineSet
62.5 750 m 1
 250 750 l 1
 250 458.333333333 250 166.666666667 250 -125 c 1
 187.5 -125 125 -125 62.5 -125 c 1
 62.5 -83.3333333333 62.5 -41.6666666667 62.5 0 c 1
 83.3333333333 -0 104.166666667 0 125 0 c 1
 125 -20.8333333333 125 -41.6666666667 125 -62.5 c 1
 145.833333333 -62.5 166.666666667 -62.5 187.5 -62.5 c 1
 187.5 187.5 187.5 437.5 187.5 687.5 c 1
 166.666666667 687.5 145.833333333 687.5 125 687.5 c 1
 125 666.666666667 125 645.833333333 125 625 c 1
 104.166666667 625 83.3333333333 625 62.5 625 c 1
 62.5 666.666666667 62.5 708.333333333 62.5 750 c 1
EndSplineSet
EndChar

StartChar: asciicircum
Encoding: 94 94 64
Width: 437
Flags: HW
LayerCount: 2
Back
Fore
SplineSet
187.5 687.5 m 1
 250 687.5 l 1
 250 666.666666667 250 645.833333333 250 625 c 1
 229.166666667 625 208.333333333 625 187.5 625 c 1
 187.5 645.833333333 187.5 666.666666667 187.5 687.5 c 1
125 625 m 1
 187.5 625 l 1
 187.5 604.166666667 187.5 583.333333333 187.5 562.5 c 1
 166.666666667 562.5 145.833333333 562.5 125 562.5 c 1
 125 583.333333333 125 604.166666667 125 625 c 1
250 625 m 1
 312.5 625 l 1
 312.5 604.166666667 312.5 583.333333333 312.5 562.5 c 1
 291.666666667 562.5 270.833333333 562.5 250 562.5 c 1
 250 583.333333333 250 604.166666667 250 625 c 1
62.5 562.5 m 1
 125 562.5 l 1
 125 541.666666667 125 520.833333333 125 500 c 1
 104.166666667 500 83.3333333333 500 62.5 500 c 1
 62.5 520.833333333 62.5 541.666666667 62.5 562.5 c 1
312.5 562.5 m 1
 375 562.5 l 1
 375 541.666666667 375 520.833333333 375 500 c 1
 354.166666667 500 333.333333333 500 312.5 500 c 1
 312.5 520.833333333 312.5 541.666666667 312.5 562.5 c 1
EndSplineSet
EndChar

StartChar: underscore
Encoding: 95 95 65
Width: 500
Flags: HW
LayerCount: 2
Back
Fore
SplineSet
125 62.5 m 1
 437.5 62.5 l 1
 437.5 41.6666666667 437.5 20.8333333333 437.5 0 c 1
 333.333333333 -0 229.166666667 0 125 0 c 1
 125 20.8333333333 125 41.6666666667 125 62.5 c 1
EndSplineSet
EndChar

StartChar: grave
Encoding: 96 96 66
Width: 312
Flags: HW
LayerCount: 2
Back
Fore
SplineSet
125 687.5 m 1
 187.5 687.5 l 1
 187.5 645.833333333 187.5 604.166666667 187.5 562.5 c 1
 208.333333333 562.5 229.166666667 562.5 250 562.5 c 1
 250 541.666666667 250 520.833333333 250 500 c 1
 229.166666667 500 208.333333333 500 187.5 500 c 1
 187.5 520.833333333 187.5 541.666666667 187.5 562.5 c 1
 166.666666667 562.5 145.833333333 562.5 125 562.5 c 1
 125 604.166666667 125 645.833333333 125 687.5 c 1
EndSplineSet
EndChar

StartChar: a
Encoding: 97 97 67
Width: 500
Flags: HW
LayerCount: 2
Back
Fore
SplineSet
187.5 437.5 m 1
 375 437.5 l 1
 375 416.666666667 375 395.833333333 375 375 c 1
 312.5 375 250 375 187.5 375 c 1
 187.5 395.833333333 187.5 416.666666667 187.5 437.5 c 1
125 375 m 1
 187.5 375 l 1
 187.5 354.166666667 187.5 333.333333333 187.5 312.5 c 1
 166.666666667 312.5 145.833333333 312.5 125 312.5 c 1
 125 333.333333333 125 354.166666667 125 375 c 1
375 375 m 1
 437.5 375 l 1
 437.5 250 437.5 125 437.5 0 c 1
 416.666666667 -0 395.833333333 0 375 0 c 1
 375 20.8333333333 375 41.6666666667 375 62.5 c 1
 354.166666667 62.5 333.333333333 62.5 312.5 62.5 c 1
 312.5 83.3333333333 312.5 104.166666667 312.5 125 c 1
 333.333333333 125 354.166666667 125 375 125 c 1
 375 145.833333333 375 166.666666667 375 187.5 c 1
 312.5 187.5 250 187.5 187.5 187.5 c 1
 187.5 208.333333333 187.5 229.166666667 187.5 250 c 1
 250 250 312.5 250 375 250 c 1
 375 291.666666667 375 333.333333333 375 375 c 1
125 187.5 m 1
 187.5 187.5 l 1
 187.5 145.833333333 187.5 104.166666667 187.5 62.5 c 1
 166.666666667 62.5 145.833333333 62.5 125 62.5 c 1
 125 104.166666667 125 145.833333333 125 187.5 c 1
187.5 62.5 m 1
 312.5 62.5 l 1
 312.5 41.6666666667 312.5 20.8333333333 312.5 0 c 1
 270.833333333 -0 229.166666667 0 187.5 0 c 1
 187.5 20.8333333333 187.5 41.6666666667 187.5 62.5 c 1
EndSplineSet
EndChar

StartChar: b
Encoding: 98 98 68
Width: 500
Flags: HW
LayerCount: 2
Back
Fore
SplineSet
187.5 375 m 1
 187.5 270.833333333 187.5 166.666666667 187.5 62.5 c 1
 250 62.5 312.5 62.5 375 62.5 c 1
 375 166.666666667 375 270.833333333 375 375 c 1
 187.5 375 l 1
125 750 m 1
 187.5 750 l 1
 187.5 645.833333333 187.5 541.666666667 187.5 437.5 c 1
 250 437.5 312.5 437.5 375 437.5 c 1
 375 416.666666667 375 395.833333333 375 375 c 1
 395.833333333 375 416.666666667 375 437.5 375 c 1
 437.5 270.833333333 437.5 166.666666667 437.5 62.5 c 1
 416.666666667 62.5 395.833333333 62.5 375 62.5 c 1
 375 41.6666666667 375 20.8333333333 375 0 c 1
 270.833333333 -0 166.666666667 0 62.5 0 c 1
 62.5 20.8333333333 62.5 41.6666666667 62.5 62.5 c 1
 83.3333333333 62.5 104.166666667 62.5 125 62.5 c 1
 125 250 125 437.5 125 625 c 1
 104.166666667 625 83.3333333333 625 62.5 625 c 1
 62.5 645.833333333 62.5 666.666666667 62.5 687.5 c 1
 83.3333333333 687.5 104.166666667 687.5 125 687.5 c 1
 125 708.333333333 125 729.166666667 125 750 c 1
EndSplineSet
EndChar

StartChar: c
Encoding: 99 99 69
Width: 500
Flags: HW
LayerCount: 2
Back
Fore
SplineSet
187.5 437.5 m 1
 375 437.5 l 1
 375 416.666666667 375 395.833333333 375 375 c 1
 312.5 375 250 375 187.5 375 c 1
 187.5 395.833333333 187.5 416.666666667 187.5 437.5 c 1
125 375 m 1
 187.5 375 l 1
 187.5 270.833333333 187.5 166.666666667 187.5 62.5 c 1
 166.666666667 62.5 145.833333333 62.5 125 62.5 c 1
 125 125 125 187.5 125 250 c 1
 104.166666667 250 83.3333333333 250 62.5 250 c 1
 62.5 270.833333333 62.5 291.666666667 62.5 312.5 c 1
 83.3333333333 312.5 104.166666667 312.5 125 312.5 c 1
 125 333.333333333 125 354.166666667 125 375 c 1
375 375 m 1
 437.5 375 l 1
 437.5 354.166666667 437.5 333.333333333 437.5 312.5 c 1
 416.666666667 312.5 395.833333333 312.5 375 312.5 c 1
 375 333.333333333 375 354.166666667 375 375 c 1
375 125 m 1
 437.5 125 l 1
 437.5 104.166666667 437.5 83.3333333333 437.5 62.5 c 1
 416.666666667 62.5 395.833333333 62.5 375 62.5 c 1
 375 83.3333333333 375 104.166666667 375 125 c 1
187.5 62.5 m 1
 375 62.5 l 1
 375 41.6666666667 375 20.8333333333 375 0 c 1
 312.5 -0 250 0 187.5 0 c 1
 187.5 20.8333333333 187.5 41.6666666667 187.5 62.5 c 1
EndSplineSet
EndChar

StartChar: d
Encoding: 100 100 70
Width: 500
Flags: HW
LayerCount: 2
Back
Fore
SplineSet
375 750 m 1
 437.5 750 l 1
 437.5 500 437.5 250 437.5 0 c 1
 354.166666667 -0 270.833333333 0 187.5 0 c 1
 187.5 20.8333333333 187.5 41.6666666667 187.5 62.5 c 1
 250 62.5 312.5 62.5 375 62.5 c 1
 375 166.666666667 375 270.833333333 375 375 c 1
 312.5 375 250 375 187.5 375 c 1
 187.5 395.833333333 187.5 416.666666667 187.5 437.5 c 1
 250 437.5 312.5 437.5 375 437.5 c 1
 375 500 375 562.5 375 625 c 1
 354.166666667 625 333.333333333 625 312.5 625 c 1
 312.5 645.833333333 312.5 666.666666667 312.5 687.5 c 1
 333.333333333 687.5 354.166666667 687.5 375 687.5 c 1
 375 708.333333333 375 729.166666667 375 750 c 1
125 375 m 1
 187.5 375 l 1
 187.5 270.833333333 187.5 166.666666667 187.5 62.5 c 1
 166.666666667 62.5 145.833333333 62.5 125 62.5 c 1
 125 166.666666667 125 270.833333333 125 375 c 1
EndSplineSet
EndChar

StartChar: e
Encoding: 101 101 71
Width: 500
Flags: HW
LayerCount: 2
Back
Fore
SplineSet
187.5 437.5 m 1
 375 437.5 l 1
 375 416.666666667 375 395.833333333 375 375 c 1
 312.5 375 250 375 187.5 375 c 1
 187.5 395.833333333 187.5 416.666666667 187.5 437.5 c 1
125 375 m 1
 187.5 375 l 1
 187.5 312.5 187.5 250 187.5 187.5 c 1
 208.333333333 187.5 229.166666667 187.5 250 187.5 c 1
 250 166.666666667 250 145.833333333 250 125 c 1
 229.166666667 125 208.333333333 125 187.5 125 c 1
 187.5 104.166666667 187.5 83.3333333333 187.5 62.5 c 1
 166.666666667 62.5 145.833333333 62.5 125 62.5 c 1
 125 125 125 187.5 125 250 c 1
 104.166666667 250 83.3333333333 250 62.5 250 c 1
 62.5 270.833333333 62.5 291.666666667 62.5 312.5 c 1
 83.3333333333 312.5 104.166666667 312.5 125 312.5 c 1
 125 333.333333333 125 354.166666667 125 375 c 1
375 375 m 1
 437.5 375 l 1
 437.5 354.166666667 437.5 333.333333333 437.5 312.5 c 1
 416.666666667 312.5 395.833333333 312.5 375 312.5 c 1
 375 333.333333333 375 354.166666667 375 375 c 1
312.5 312.5 m 1
 375 312.5 l 1
 375 291.666666667 375 270.833333333 375 250 c 1
 354.166666667 250 333.333333333 250 312.5 250 c 1
 312.5 229.166666667 312.5 208.333333333 312.5 187.5 c 1
 291.666666667 187.5 270.833333333 187.5 250 187.5 c 1
 250 208.333333333 250 229.166666667 250 250 c 1
 270.833333333 250 291.666666667 250 312.5 250 c 1
 312.5 270.833333333 312.5 291.666666667 312.5 312.5 c 1
375 125 m 1
 437.5 125 l 1
 437.5 104.166666667 437.5 83.3333333333 437.5 62.5 c 1
 416.666666667 62.5 395.833333333 62.5 375 62.5 c 1
 375 83.3333333333 375 104.166666667 375 125 c 1
187.5 62.5 m 1
 375 62.5 l 1
 375 41.6666666667 375 20.8333333333 375 0 c 1
 312.5 -0 250 0 187.5 0 c 1
 187.5 20.8333333333 187.5 41.6666666667 187.5 62.5 c 1
EndSplineSet
EndChar

StartChar: f
Encoding: 102 102 72
Width: 437
Flags: HW
LayerCount: 2
Back
Fore
SplineSet
125 750 m 1
 312.5 750 l 1
 312.5 729.166666667 312.5 708.333333333 312.5 687.5 c 1
 333.333333333 687.5 354.166666667 687.5 375 687.5 c 1
 375 666.666666667 375 645.833333333 375 625 c 1
 354.166666667 625 333.333333333 625 312.5 625 c 1
 312.5 645.833333333 312.5 666.666666667 312.5 687.5 c 1
 270.833333333 687.5 229.166666667 687.5 187.5 687.5 c 1
 187.5 604.166666667 187.5 520.833333333 187.5 437.5 c 1
 229.166666667 437.5 270.833333333 437.5 312.5 437.5 c 1
 312.5 416.666666667 312.5 395.833333333 312.5 375 c 1
 270.833333333 375 229.166666667 375 187.5 375 c 1
 187.5 250 187.5 125 187.5 0 c 1
 145.833333333 -0 104.166666667 0 62.5 0 c 1
 62.5 20.8333333333 62.5 41.6666666667 62.5 62.5 c 1
 83.3333333333 62.5 104.166666667 62.5 125 62.5 c 1
 125 250 125 437.5 125 625 c 1
 104.166666667 625 83.3333333333 625 62.5 625 c 1
 62.5 645.833333333 62.5 666.666666667 62.5 687.5 c 1
 83.3333333333 687.5 104.166666667 687.5 125 687.5 c 1
 125 708.333333333 125 729.166666667 125 750 c 1
EndSplineSet
EndChar

StartChar: g
Encoding: 103 103 73
Width: 500
Flags: HW
LayerCount: 2
Back
Fore
SplineSet
187.5 437.5 m 1
 375 437.5 l 1
 375 416.666666667 375 395.833333333 375 375 c 1
 312.5 375 250 375 187.5 375 c 1
 187.5 395.833333333 187.5 416.666666667 187.5 437.5 c 1
125 375 m 1
 187.5 375 l 1
 187.5 270.833333333 187.5 166.666666667 187.5 62.5 c 1
 166.666666667 62.5 145.833333333 62.5 125 62.5 c 1
 125 125 125 187.5 125 250 c 1
 104.166666667 250 83.3333333333 250 62.5 250 c 1
 62.5 270.833333333 62.5 291.666666667 62.5 312.5 c 1
 83.3333333333 312.5 104.166666667 312.5 125 312.5 c 1
 125 333.333333333 125 354.166666667 125 375 c 1
375 375 m 1
 437.5 375 l 1
 437.5 187.5 437.5 -9.84039379172e-14 437.5 -187.5 c 1
 416.666666667 -187.5 395.833333333 -187.5 375 -187.5 c 1
 375 -104.166666667 375 -20.8333333333 375 62.5 c 1
 354.166666667 62.5 333.333333333 62.5 312.5 62.5 c 1
 312.5 83.3333333333 312.5 104.166666667 312.5 125 c 1
 333.333333333 125 354.166666667 125 375 125 c 1
 375 208.333333333 375 291.666666667 375 375 c 1
187.5 62.5 m 1
 312.5 62.5 l 1
 312.5 41.6666666667 312.5 20.8333333333 312.5 0 c 1
 270.833333333 -0 229.166666667 0 187.5 0 c 1
 187.5 20.8333333333 187.5 41.6666666667 187.5 62.5 c 1
125 -125 m 1
 187.5 -125 l 1
 187.5 -145.833333333 187.5 -166.666666667 187.5 -187.5 c 1
 166.666666667 -187.5 145.833333333 -187.5 125 -187.5 c 1
 125 -166.666666667 125 -145.833333333 125 -125 c 1
187.5 -187.5 m 1
 375 -187.5 l 1
 375 -208.333333333 375 -229.166666667 375 -250 c 1
 312.5 -250 250 -250 187.5 -250 c 1
 187.5 -229.166666667 187.5 -208.333333333 187.5 -187.5 c 1
EndSplineSet
EndChar

StartChar: h
Encoding: 104 104 74
Width: 500
Flags: HW
LayerCount: 2
Back
Fore
SplineSet
125 750 m 1
 187.5 750 l 1
 187.5 645.833333333 187.5 541.666666667 187.5 437.5 c 1
 250 437.5 312.5 437.5 375 437.5 c 1
 375 416.666666667 375 395.833333333 375 375 c 1
 395.833333333 375 416.666666667 375 437.5 375 c 1
 437.5 250 437.5 125 437.5 0 c 1
 395.833333333 -0 354.166666667 0 312.5 0 c 1
 312.5 20.8333333333 312.5 41.6666666667 312.5 62.5 c 1
 333.333333333 62.5 354.166666667 62.5 375 62.5 c 1
 375 166.666666667 375 270.833333333 375 375 c 1
 312.5 375 250 375 187.5 375 c 1
 187.5 250 187.5 125 187.5 0 c 1
 145.833333333 -0 104.166666667 0 62.5 0 c 1
 62.5 20.8333333333 62.5 41.6666666667 62.5 62.5 c 1
 83.3333333333 62.5 104.166666667 62.5 125 62.5 c 1
 125 250 125 437.5 125 625 c 1
 104.166666667 625 83.3333333333 625 62.5 625 c 1
 62.5 645.833333333 62.5 666.666666667 62.5 687.5 c 1
 83.3333333333 687.5 104.166666667 687.5 125 687.5 c 1
 125 708.333333333 125 729.166666667 125 750 c 1
EndSplineSet
EndChar

StartChar: i
Encoding: 105 105 75
Width: 312
Flags: HW
LayerCount: 2
Back
Fore
SplineSet
187.5 562.5 m 1
 250 562.5 l 1
 250 520.833333333 250 479.166666667 250 437.5 c 1
 229.166666667 437.5 208.333333333 437.5 187.5 437.5 c 1
 187.5 479.166666667 187.5 520.833333333 187.5 562.5 c 1
187.5 375 m 1
 250 375 l 1
 250 250 250 125 250 0 c 1
 229.166666667 -0 208.333333333 0 187.5 0 c 1
 187.5 83.3333333333 187.5 166.666666667 187.5 250 c 1
 166.666666667 250 145.833333333 250 125 250 c 1
 125 270.833333333 125 291.666666667 125 312.5 c 1
 145.833333333 312.5 166.666666667 312.5 187.5 312.5 c 1
 187.5 333.333333333 187.5 354.166666667 187.5 375 c 1
EndSplineSet
EndChar

StartChar: j
Encoding: 106 106 76
Width: 437
Flags: HW
LayerCount: 2
Back
Fore
SplineSet
312.5 562.5 m 1
 375 562.5 l 1
 375 520.833333333 375 479.166666667 375 437.5 c 1
 354.166666667 437.5 333.333333333 437.5 312.5 437.5 c 1
 312.5 479.166666667 312.5 520.833333333 312.5 562.5 c 1
312.5 375 m 1
 375 375 l 1
 375 187.5 375 -9.84039379172e-14 375 -187.5 c 1
 354.166666667 -187.5 333.333333333 -187.5 312.5 -187.5 c 1
 312.5 -41.6666666667 312.5 104.166666667 312.5 250 c 1
 291.666666667 250 270.833333333 250 250 250 c 1
 250 270.833333333 250 291.666666667 250 312.5 c 1
 270.833333333 312.5 291.666666667 312.5 312.5 312.5 c 1
 312.5 333.333333333 312.5 354.166666667 312.5 375 c 1
125 -125 m 1
 187.5 -125 l 1
 187.5 -145.833333333 187.5 -166.666666667 187.5 -187.5 c 1
 166.666666667 -187.5 145.833333333 -187.5 125 -187.5 c 1
 125 -166.666666667 125 -145.833333333 125 -125 c 1
187.5 -187.5 m 1
 312.5 -187.5 l 1
 312.5 -208.333333333 312.5 -229.166666667 312.5 -250 c 1
 270.833333333 -250 229.166666667 -250 187.5 -250 c 1
 187.5 -229.166666667 187.5 -208.333333333 187.5 -187.5 c 1
EndSplineSet
EndChar

StartChar: k
Encoding: 107 107 77
Width: 437
Flags: HW
LayerCount: 2
Back
Fore
SplineSet
125 750 m 1
 187.5 750 l 1
 187.5 625 187.5 500 187.5 375 c 1
 208.333333333 375 229.166666667 375 250 375 c 1
 250 395.833333333 250 416.666666667 250 437.5 c 1
 270.833333333 437.5 291.666666667 437.5 312.5 437.5 c 1
 312.5 458.333333333 312.5 479.166666667 312.5 500 c 1
 333.333333333 500 354.166666667 500 375 500 c 1
 375 479.166666667 375 458.333333333 375 437.5 c 1
 354.166666667 437.5 333.333333333 437.5 312.5 437.5 c 1
 312.5 416.666666667 312.5 395.833333333 312.5 375 c 1
 291.666666667 375 270.833333333 375 250 375 c 1
 250 354.166666667 250 333.333333333 250 312.5 c 1
 270.833333333 312.5 291.666666667 312.5 312.5 312.5 c 1
 312.5 270.833333333 312.5 229.166666667 312.5 187.5 c 1
 333.333333333 187.5 354.166666667 187.5 375 187.5 c 1
 375 125 375 62.5 375 0 c 1
 354.166666667 -0 333.333333333 0 312.5 0 c 1
 312.5 62.5 312.5 125 312.5 187.5 c 1
 291.666666667 187.5 270.833333333 187.5 250 187.5 c 1
 250 229.166666667 250 270.833333333 250 312.5 c 1
 229.166666667 312.5 208.333333333 312.5 187.5 312.5 c 1
 187.5 208.333333333 187.5 104.166666667 187.5 0 c 1
 145.833333333 -0 104.166666667 0 62.5 0 c 1
 62.5 20.8333333333 62.5 41.6666666667 62.5 62.5 c 1
 83.3333333333 62.5 104.166666667 62.5 125 62.5 c 1
 125 250 125 437.5 125 625 c 1
 104.166666667 625 83.3333333333 625 62.5 625 c 1
 62.5 645.833333333 62.5 666.666666667 62.5 687.5 c 1
 83.3333333333 687.5 104.166666667 687.5 125 687.5 c 1
 125 708.333333333 125 729.166666667 125 750 c 1
EndSplineSet
EndChar

StartChar: l
Encoding: 108 108 78
Width: 437
Flags: HW
LayerCount: 2
Back
Fore
SplineSet
250 750 m 1
 312.5 750 l 1
 312.5 520.833333333 312.5 291.666666667 312.5 62.5 c 1
 333.333333333 62.5 354.166666667 62.5 375 62.5 c 1
 375 41.6666666667 375 20.8333333333 375 0 c 1
 333.333333333 -0 291.666666667 0 250 0 c 1
 250 208.333333333 250 416.666666667 250 625 c 1
 229.166666667 625 208.333333333 625 187.5 625 c 1
 187.5 645.833333333 187.5 666.666666667 187.5 687.5 c 1
 208.333333333 687.5 229.166666667 687.5 250 687.5 c 1
 250 708.333333333 250 729.166666667 250 750 c 1
EndSplineSet
EndChar

StartChar: m
Encoding: 109 109 79
Width: 750
Flags: HW
LayerCount: 2
Back
Fore
SplineSet
187.5 437.5 m 1
 375 437.5 l 1
 375 416.666666667 375 395.833333333 375 375 c 1
 312.5 375 250 375 187.5 375 c 1
 187.5 395.833333333 187.5 416.666666667 187.5 437.5 c 1
437.5 437.5 m 1
 625 437.5 l 1
 625 416.666666667 625 395.833333333 625 375 c 1
 562.5 375 500 375 437.5 375 c 1
 437.5 395.833333333 437.5 416.666666667 437.5 437.5 c 1
125 375 m 1
 187.5 375 l 1
 187.5 250 187.5 125 187.5 0 c 1
 166.666666667 -0 145.833333333 0 125 0 c 1
 125 83.3333333333 125 166.666666667 125 250 c 1
 104.166666667 250 83.3333333333 250 62.5 250 c 1
 62.5 270.833333333 62.5 291.666666667 62.5 312.5 c 1
 83.3333333333 312.5 104.166666667 312.5 125 312.5 c 1
 125 333.333333333 125 354.166666667 125 375 c 1
375 375 m 1
 437.5 375 l 1
 437.5 250 437.5 125 437.5 0 c 1
 416.666666667 -0 395.833333333 0 375 0 c 1
 375 125 375 250 375 375 c 1
625 375 m 1
 687.5 375 l 1
 687.5 250 687.5 125 687.5 0 c 1
 666.666666667 -0 645.833333333 0 625 0 c 1
 625 125 625 250 625 375 c 1
EndSplineSet
EndChar

StartChar: n
Encoding: 110 110 80
Width: 500
Flags: HW
LayerCount: 2
Back
Fore
SplineSet
187.5 437.5 m 1
 375 437.5 l 1
 375 416.666666667 375 395.833333333 375 375 c 1
 312.5 375 250 375 187.5 375 c 1
 187.5 395.833333333 187.5 416.666666667 187.5 437.5 c 1
125 375 m 1
 187.5 375 l 1
 187.5 250 187.5 125 187.5 0 c 1
 166.666666667 -0 145.833333333 0 125 0 c 1
 125 83.3333333333 125 166.666666667 125 250 c 1
 104.166666667 250 83.3333333333 250 62.5 250 c 1
 62.5 270.833333333 62.5 291.666666667 62.5 312.5 c 1
 83.3333333333 312.5 104.166666667 312.5 125 312.5 c 1
 125 333.333333333 125 354.166666667 125 375 c 1
375 375 m 1
 437.5 375 l 1
 437.5 250 437.5 125 437.5 0 c 1
 416.666666667 -0 395.833333333 0 375 0 c 1
 375 125 375 250 375 375 c 1
EndSplineSet
EndChar

StartChar: o
Encoding: 111 111 81
Width: 500
Flags: HW
LayerCount: 2
Back
Fore
SplineSet
187.5 437.5 m 1
 375 437.5 l 1
 375 416.666666667 375 395.833333333 375 375 c 1
 312.5 375 250 375 187.5 375 c 1
 187.5 395.833333333 187.5 416.666666667 187.5 437.5 c 1
125 375 m 1
 187.5 375 l 1
 187.5 270.833333333 187.5 166.666666667 187.5 62.5 c 1
 166.666666667 62.5 145.833333333 62.5 125 62.5 c 1
 125 125 125 187.5 125 250 c 1
 104.166666667 250 83.3333333333 250 62.5 250 c 1
 62.5 270.833333333 62.5 291.666666667 62.5 312.5 c 1
 83.3333333333 312.5 104.166666667 312.5 125 312.5 c 1
 125 333.333333333 125 354.166666667 125 375 c 1
375 375 m 1
 437.5 375 l 1
 437.5 270.833333333 437.5 166.666666667 437.5 62.5 c 1
 416.666666667 62.5 395.833333333 62.5 375 62.5 c 1
 375 166.666666667 375 270.833333333 375 375 c 1
187.5 62.5 m 1
 375 62.5 l 1
 375 41.6666666667 375 20.8333333333 375 0 c 1
 312.5 -0 250 0 187.5 0 c 1
 187.5 20.8333333333 187.5 41.6666666667 187.5 62.5 c 1
EndSplineSet
EndChar

StartChar: p
Encoding: 112 112 82
Width: 500
Flags: HW
LayerCount: 2
Back
Fore
SplineSet
187.5 437.5 m 1
 375 437.5 l 1
 375 416.666666667 375 395.833333333 375 375 c 1
 312.5 375 250 375 187.5 375 c 1
 187.5 395.833333333 187.5 416.666666667 187.5 437.5 c 1
125 375 m 1
 187.5 375 l 1
 187.5 270.833333333 187.5 166.666666667 187.5 62.5 c 1
 250 62.5 312.5 62.5 375 62.5 c 1
 375 41.6666666667 375 20.8333333333 375 0 c 1
 312.5 -0 250 0 187.5 0 c 1
 187.5 -83.3333333333 187.5 -166.666666667 187.5 -250 c 1
 166.666666667 -250 145.833333333 -250 125 -250 c 1
 125 -83.3333333333 125 83.3333333333 125 250 c 1
 104.166666667 250 83.3333333333 250 62.5 250 c 1
 62.5 270.833333333 62.5 291.666666667 62.5 312.5 c 1
 83.3333333333 312.5 104.166666667 312.5 125 312.5 c 1
 125 333.333333333 125 354.166666667 125 375 c 1
375 375 m 1
 437.5 375 l 1
 437.5 270.833333333 437.5 166.666666667 437.5 62.5 c 1
 416.666666667 62.5 395.833333333 62.5 375 62.5 c 1
 375 166.666666667 375 270.833333333 375 375 c 1
EndSplineSet
EndChar

StartChar: q
Encoding: 113 113 83
Width: 562
Flags: HW
LayerCount: 2
Back
Fore
SplineSet
187.5 437.5 m 1
 375 437.5 l 1
 375 416.666666667 375 395.833333333 375 375 c 1
 312.5 375 250 375 187.5 375 c 1
 187.5 395.833333333 187.5 416.666666667 187.5 437.5 c 1
125 375 m 1
 187.5 375 l 1
 187.5 270.833333333 187.5 166.666666667 187.5 62.5 c 1
 166.666666667 62.5 145.833333333 62.5 125 62.5 c 1
 125 125 125 187.5 125 250 c 1
 104.166666667 250 83.3333333333 250 62.5 250 c 1
 62.5 270.833333333 62.5 291.666666667 62.5 312.5 c 1
 83.3333333333 312.5 104.166666667 312.5 125 312.5 c 1
 125 333.333333333 125 354.166666667 125 375 c 1
375 375 m 1
 437.5 375 l 1
 437.5 208.333333333 437.5 41.6666666667 437.5 -125 c 1
 458.333333333 -125 479.166666667 -125 500 -125 c 1
 500 -145.833333333 500 -166.666666667 500 -187.5 c 1
 479.166666667 -187.5 458.333333333 -187.5 437.5 -187.5 c 1
 437.5 -208.333333333 437.5 -229.166666667 437.5 -250 c 1
 416.666666667 -250 395.833333333 -250 375 -250 c 1
 375 -166.666666667 375 -83.3333333333 375 0 c 1
 312.5 -0 250 0 187.5 0 c 1
 187.5 20.8333333333 187.5 41.6666666667 187.5 62.5 c 1
 250 62.5 312.5 62.5 375 62.5 c 1
 375 166.666666667 375 270.833333333 375 375 c 1
EndSplineSet
EndChar

StartChar: r
Encoding: 114 114 84
Width: 500
Flags: HW
LayerCount: 2
Back
Fore
SplineSet
187.5 437.5 m 1
 375 437.5 l 1
 375 416.666666667 375 395.833333333 375 375 c 1
 312.5 375 250 375 187.5 375 c 1
 187.5 395.833333333 187.5 416.666666667 187.5 437.5 c 1
125 375 m 1
 187.5 375 l 1
 187.5 250 187.5 125 187.5 0 c 1
 166.666666667 -0 145.833333333 0 125 0 c 1
 125 83.3333333333 125 166.666666667 125 250 c 1
 104.166666667 250 83.3333333333 250 62.5 250 c 1
 62.5 270.833333333 62.5 291.666666667 62.5 312.5 c 1
 83.3333333333 312.5 104.166666667 312.5 125 312.5 c 1
 125 333.333333333 125 354.166666667 125 375 c 1
375 375 m 1
 437.5 375 l 1
 437.5 354.166666667 437.5 333.333333333 437.5 312.5 c 1
 416.666666667 312.5 395.833333333 312.5 375 312.5 c 1
 375 333.333333333 375 354.166666667 375 375 c 1
EndSplineSet
EndChar

StartChar: s
Encoding: 115 115 85
Width: 500
Flags: HW
LayerCount: 2
Back
Fore
SplineSet
187.5 437.5 m 1
 375 437.5 l 1
 375 416.666666667 375 395.833333333 375 375 c 1
 312.5 375 250 375 187.5 375 c 1
 187.5 395.833333333 187.5 416.666666667 187.5 437.5 c 1
125 375 m 1
 187.5 375 l 1
 187.5 333.333333333 187.5 291.666666667 187.5 250 c 1
 145.833333333 250 104.166666667 250 62.5 250 c 1
 62.5 270.833333333 62.5 291.666666667 62.5 312.5 c 1
 83.3333333333 312.5 104.166666667 312.5 125 312.5 c 1
 125 333.333333333 125 354.166666667 125 375 c 1
375 375 m 1
 437.5 375 l 1
 437.5 354.166666667 437.5 333.333333333 437.5 312.5 c 1
 416.666666667 312.5 395.833333333 312.5 375 312.5 c 1
 375 333.333333333 375 354.166666667 375 375 c 1
187.5 250 m 1
 375 250 l 1
 375 229.166666667 375 208.333333333 375 187.5 c 1
 312.5 187.5 250 187.5 187.5 187.5 c 1
 187.5 208.333333333 187.5 229.166666667 187.5 250 c 1
375 187.5 m 1
 437.5 187.5 l 1
 437.5 145.833333333 437.5 104.166666667 437.5 62.5 c 1
 416.666666667 62.5 395.833333333 62.5 375 62.5 c 1
 375 104.166666667 375 145.833333333 375 187.5 c 1
125 125 m 1
 187.5 125 l 1
 187.5 104.166666667 187.5 83.3333333333 187.5 62.5 c 1
 166.666666667 62.5 145.833333333 62.5 125 62.5 c 1
 125 83.3333333333 125 104.166666667 125 125 c 1
187.5 62.5 m 1
 375 62.5 l 1
 375 41.6666666667 375 20.8333333333 375 0 c 1
 312.5 -0 250 0 187.5 0 c 1
 187.5 20.8333333333 187.5 41.6666666667 187.5 62.5 c 1
EndSplineSet
EndChar

StartChar: t
Encoding: 116 116 86
Width: 437
Flags: HW
LayerCount: 2
Back
Fore
SplineSet
125 750 m 1
 187.5 750 l 1
 187.5 645.833333333 187.5 541.666666667 187.5 437.5 c 1
 229.166666667 437.5 270.833333333 437.5 312.5 437.5 c 1
 312.5 416.666666667 312.5 395.833333333 312.5 375 c 1
 270.833333333 375 229.166666667 375 187.5 375 c 1
 187.5 270.833333333 187.5 166.666666667 187.5 62.5 c 1
 229.166666667 62.5 270.833333333 62.5 312.5 62.5 c 1
 312.5 83.3333333333 312.5 104.166666667 312.5 125 c 1
 333.333333333 125 354.166666667 125 375 125 c 1
 375 104.166666667 375 83.3333333333 375 62.5 c 1
 354.166666667 62.5 333.333333333 62.5 312.5 62.5 c 1
 312.5 41.6666666667 312.5 20.8333333333 312.5 0 c 1
 270.833333333 -0 229.166666667 0 187.5 0 c 1
 187.5 20.8333333333 187.5 41.6666666667 187.5 62.5 c 1
 166.666666667 62.5 145.833333333 62.5 125 62.5 c 1
 125 166.666666667 125 270.833333333 125 375 c 1
 104.166666667 375 83.3333333333 375 62.5 375 c 1
 62.5 395.833333333 62.5 416.666666667 62.5 437.5 c 1
 83.3333333333 437.5 104.166666667 437.5 125 437.5 c 1
 125 500 125 562.5 125 625 c 1
 104.166666667 625 83.3333333333 625 62.5 625 c 1
 62.5 645.833333333 62.5 666.666666667 62.5 687.5 c 1
 83.3333333333 687.5 104.166666667 687.5 125 687.5 c 1
 125 708.333333333 125 729.166666667 125 750 c 1
EndSplineSet
EndChar

StartChar: u
Encoding: 117 117 87
Width: 500
Flags: HW
LayerCount: 2
Back
Fore
SplineSet
375 437.5 m 1
 437.5 437.5 l 1
 437.5 291.666666667 437.5 145.833333333 437.5 0 c 1
 354.166666667 -0 270.833333333 0 187.5 0 c 1
 187.5 20.8333333333 187.5 41.6666666667 187.5 62.5 c 1
 250 62.5 312.5 62.5 375 62.5 c 1
 375 125 375 187.5 375 250 c 1
 354.166666667 250 333.333333333 250 312.5 250 c 1
 312.5 270.833333333 312.5 291.666666667 312.5 312.5 c 1
 333.333333333 312.5 354.166666667 312.5 375 312.5 c 1
 375 354.166666667 375 395.833333333 375 437.5 c 1
125 375 m 1
 187.5 375 l 1
 187.5 270.833333333 187.5 166.666666667 187.5 62.5 c 1
 166.666666667 62.5 145.833333333 62.5 125 62.5 c 1
 125 125 125 187.5 125 250 c 1
 104.166666667 250 83.3333333333 250 62.5 250 c 1
 62.5 270.833333333 62.5 291.666666667 62.5 312.5 c 1
 83.3333333333 312.5 104.166666667 312.5 125 312.5 c 1
 125 333.333333333 125 354.166666667 125 375 c 1
EndSplineSet
EndChar

StartChar: v
Encoding: 118 118 88
Width: 500
Flags: HW
LayerCount: 2
Back
Fore
SplineSet
375 437.5 m 1
 437.5 437.5 l 1
 437.5 333.333333333 437.5 229.166666667 437.5 125 c 1
 416.666666667 125 395.833333333 125 375 125 c 1
 375 166.666666667 375 208.333333333 375 250 c 1
 354.166666667 250 333.333333333 250 312.5 250 c 1
 312.5 270.833333333 312.5 291.666666667 312.5 312.5 c 1
 333.333333333 312.5 354.166666667 312.5 375 312.5 c 1
 375 354.166666667 375 395.833333333 375 437.5 c 1
125 375 m 1
 187.5 375 l 1
 187.5 291.666666667 187.5 208.333333333 187.5 125 c 1
 166.666666667 125 145.833333333 125 125 125 c 1
 125 166.666666667 125 208.333333333 125 250 c 1
 104.166666667 250 83.3333333333 250 62.5 250 c 1
 62.5 270.833333333 62.5 291.666666667 62.5 312.5 c 1
 83.3333333333 312.5 104.166666667 312.5 125 312.5 c 1
 125 333.333333333 125 354.166666667 125 375 c 1
187.5 125 m 1
 250 125 l 1
 250 104.166666667 250 83.3333333333 250 62.5 c 1
 229.166666667 62.5 208.333333333 62.5 187.5 62.5 c 1
 187.5 83.3333333333 187.5 104.166666667 187.5 125 c 1
312.5 125 m 1
 375 125 l 1
 375 104.166666667 375 83.3333333333 375 62.5 c 1
 354.166666667 62.5 333.333333333 62.5 312.5 62.5 c 1
 312.5 83.3333333333 312.5 104.166666667 312.5 125 c 1
250 62.5 m 1
 312.5 62.5 l 1
 312.5 41.6666666667 312.5 20.8333333333 312.5 0 c 1
 291.666666667 -0 270.833333333 0 250 0 c 1
 250 20.8333333333 250 41.6666666667 250 62.5 c 1
EndSplineSet
EndChar

StartChar: w
Encoding: 119 119 89
Width: 750
Flags: HW
LayerCount: 2
Back
Fore
SplineSet
625 437.5 m 1
 687.5 437.5 l 1
 687.5 333.333333333 687.5 229.166666667 687.5 125 c 1
 666.666666667 125 645.833333333 125 625 125 c 1
 625 166.666666667 625 208.333333333 625 250 c 1
 604.166666667 250 583.333333333 250 562.5 250 c 1
 562.5 270.833333333 562.5 291.666666667 562.5 312.5 c 1
 583.333333333 312.5 604.166666667 312.5 625 312.5 c 1
 625 354.166666667 625 395.833333333 625 437.5 c 1
125 375 m 1
 187.5 375 l 1
 187.5 291.666666667 187.5 208.333333333 187.5 125 c 1
 166.666666667 125 145.833333333 125 125 125 c 1
 125 166.666666667 125 208.333333333 125 250 c 1
 104.166666667 250 83.3333333333 250 62.5 250 c 1
 62.5 270.833333333 62.5 291.666666667 62.5 312.5 c 1
 83.3333333333 312.5 104.166666667 312.5 125 312.5 c 1
 125 333.333333333 125 354.166666667 125 375 c 1
375 375 m 1
 437.5 375 l 1
 437.5 291.666666667 437.5 208.333333333 437.5 125 c 1
 458.333333333 125 479.166666667 125 500 125 c 1
 500 104.166666667 500 83.3333333333 500 62.5 c 1
 479.166666667 62.5 458.333333333 62.5 437.5 62.5 c 1
 437.5 83.3333333333 437.5 104.166666667 437.5 125 c 1
 416.666666667 125 395.833333333 125 375 125 c 1
 375 104.166666667 375 83.3333333333 375 62.5 c 1
 354.166666667 62.5 333.333333333 62.5 312.5 62.5 c 1
 312.5 83.3333333333 312.5 104.166666667 312.5 125 c 1
 333.333333333 125 354.166666667 125 375 125 c 1
 375 166.666666667 375 208.333333333 375 250 c 1
 354.166666667 250 333.333333333 250 312.5 250 c 1
 312.5 270.833333333 312.5 291.666666667 312.5 312.5 c 1
 333.333333333 312.5 354.166666667 312.5 375 312.5 c 1
 375 333.333333333 375 354.166666667 375 375 c 1
187.5 125 m 1
 250 125 l 1
 250 104.166666667 250 83.3333333333 250 62.5 c 1
 229.166666667 62.5 208.333333333 62.5 187.5 62.5 c 1
 187.5 83.3333333333 187.5 104.166666667 187.5 125 c 1
562.5 125 m 1
 625 125 l 1
 625 104.166666667 625 83.3333333333 625 62.5 c 1
 604.166666667 62.5 583.333333333 62.5 562.5 62.5 c 1
 562.5 83.3333333333 562.5 104.166666667 562.5 125 c 1
250 62.5 m 1
 312.5 62.5 l 1
 312.5 41.6666666667 312.5 20.8333333333 312.5 0 c 1
 291.666666667 -0 270.833333333 0 250 0 c 1
 250 20.8333333333 250 41.6666666667 250 62.5 c 1
500 62.5 m 1
 562.5 62.5 l 1
 562.5 41.6666666667 562.5 20.8333333333 562.5 0 c 1
 541.666666667 -0 520.833333333 0 500 0 c 1
 500 20.8333333333 500 41.6666666667 500 62.5 c 1
EndSplineSet
EndChar

StartChar: x
Encoding: 120 120 90
Width: 500
Flags: HW
LayerCount: 2
Back
Fore
SplineSet
125 437.5 m 1
 187.5 437.5 l 1
 187.5 395.833333333 187.5 354.166666667 187.5 312.5 c 1
 208.333333333 312.5 229.166666667 312.5 250 312.5 c 1
 250 291.666666667 250 270.833333333 250 250 c 1
 270.833333333 250 291.666666667 250 312.5 250 c 1
 312.5 270.833333333 312.5 291.666666667 312.5 312.5 c 1
 333.333333333 312.5 354.166666667 312.5 375 312.5 c 1
 375 354.166666667 375 395.833333333 375 437.5 c 1
 395.833333333 437.5 416.666666667 437.5 437.5 437.5 c 1
 437.5 395.833333333 437.5 354.166666667 437.5 312.5 c 1
 416.666666667 312.5 395.833333333 312.5 375 312.5 c 1
 375 291.666666667 375 270.833333333 375 250 c 1
 354.166666667 250 333.333333333 250 312.5 250 c 1
 312.5 229.166666667 312.5 208.333333333 312.5 187.5 c 1
 333.333333333 187.5 354.166666667 187.5 375 187.5 c 1
 375 166.666666667 375 145.833333333 375 125 c 1
 395.833333333 125 416.666666667 125 437.5 125 c 1
 437.5 83.3333333333 437.5 41.6666666667 437.5 0 c 1
 416.666666667 -0 395.833333333 0 375 0 c 1
 375 41.6666666667 375 83.3333333333 375 125 c 1
 354.166666667 125 333.333333333 125 312.5 125 c 1
 312.5 145.833333333 312.5 166.666666667 312.5 187.5 c 1
 291.666666667 187.5 270.833333333 187.5 250 187.5 c 1
 250 166.666666667 250 145.833333333 250 125 c 1
 229.166666667 125 208.333333333 125 187.5 125 c 1
 187.5 83.3333333333 187.5 41.6666666667 187.5 0 c 1
 145.833333333 -0 104.166666667 0 62.5 0 c 1
 62.5 20.8333333333 62.5 41.6666666667 62.5 62.5 c 1
 83.3333333333 62.5 104.166666667 62.5 125 62.5 c 1
 125 83.3333333333 125 104.166666667 125 125 c 1
 145.833333333 125 166.666666667 125 187.5 125 c 1
 187.5 145.833333333 187.5 166.666666667 187.5 187.5 c 1
 208.333333333 187.5 229.166666667 187.5 250 187.5 c 1
 250 208.333333333 250 229.166666667 250 250 c 1
 229.166666667 250 208.333333333 250 187.5 250 c 1
 187.5 270.833333333 187.5 291.666666667 187.5 312.5 c 1
 145.833333333 312.5 104.166666667 312.5 62.5 312.5 c 1
 62.5 333.333333333 62.5 354.166666667 62.5 375 c 1
 83.3333333333 375 104.166666667 375 125 375 c 1
 125 395.833333333 125 416.666666667 125 437.5 c 1
EndSplineSet
EndChar

StartChar: y
Encoding: 121 121 91
Width: 500
Flags: HW
LayerCount: 2
Back
Fore
SplineSet
125 437.5 m 1
 187.5 437.5 l 1
 187.5 312.5 187.5 187.5 187.5 62.5 c 1
 229.166666667 62.5 270.833333333 62.5 312.5 62.5 c 1
 312.5 83.3333333333 312.5 104.166666667 312.5 125 c 1
 333.333333333 125 354.166666667 125 375 125 c 1
 375 187.5 375 250 375 312.5 c 1
 354.166666667 312.5 333.333333333 312.5 312.5 312.5 c 1
 312.5 333.333333333 312.5 354.166666667 312.5 375 c 1
 333.333333333 375 354.166666667 375 375 375 c 1
 375 395.833333333 375 416.666666667 375 437.5 c 1
 395.833333333 437.5 416.666666667 437.5 437.5 437.5 c 1
 437.5 229.166666667 437.5 20.8333333333 437.5 -187.5 c 1
 416.666666667 -187.5 395.833333333 -187.5 375 -187.5 c 1
 375 -208.333333333 375 -229.166666667 375 -250 c 1
 312.5 -250 250 -250 187.5 -250 c 1
 187.5 -229.166666667 187.5 -208.333333333 187.5 -187.5 c 1
 166.666666667 -187.5 145.833333333 -187.5 125 -187.5 c 1
 125 -166.666666667 125 -145.833333333 125 -125 c 1
 145.833333333 -125 166.666666667 -125 187.5 -125 c 1
 187.5 -145.833333333 187.5 -166.666666667 187.5 -187.5 c 1
 250 -187.5 312.5 -187.5 375 -187.5 c 1
 375 -104.166666667 375 -20.8333333333 375 62.5 c 1
 354.166666667 62.5 333.333333333 62.5 312.5 62.5 c 1
 312.5 41.6666666667 312.5 20.8333333333 312.5 0 c 1
 270.833333333 -0 229.166666667 0 187.5 0 c 1
 187.5 20.8333333333 187.5 41.6666666667 187.5 62.5 c 1
 166.666666667 62.5 145.833333333 62.5 125 62.5 c 1
 125 145.833333333 125 229.166666667 125 312.5 c 1
 104.166666667 312.5 83.3333333333 312.5 62.5 312.5 c 1
 62.5 333.333333333 62.5 354.166666667 62.5 375 c 1
 83.3333333333 375 104.166666667 375 125 375 c 1
 125 395.833333333 125 416.666666667 125 437.5 c 1
EndSplineSet
EndChar

StartChar: z
Encoding: 122 122 92
Width: 500
Flags: HW
LayerCount: 2
Back
Fore
SplineSet
187.5 437.5 m 1
 437.5 437.5 l 1
 437.5 395.833333333 437.5 354.166666667 437.5 312.5 c 1
 416.666666667 312.5 395.833333333 312.5 375 312.5 c 1
 375 333.333333333 375 354.166666667 375 375 c 1
 312.5 375 250 375 187.5 375 c 1
 187.5 395.833333333 187.5 416.666666667 187.5 437.5 c 1
125 375 m 1
 187.5 375 l 1
 187.5 354.166666667 187.5 333.333333333 187.5 312.5 c 1
 166.666666667 312.5 145.833333333 312.5 125 312.5 c 1
 125 333.333333333 125 354.166666667 125 375 c 1
312.5 312.5 m 1
 375 312.5 l 1
 375 291.666666667 375 270.833333333 375 250 c 1
 354.166666667 250 333.333333333 250 312.5 250 c 1
 312.5 208.333333333 312.5 166.666666667 312.5 125 c 1
 291.666666667 125 270.833333333 125 250 125 c 1
 250 166.666666667 250 208.333333333 250 250 c 1
 270.833333333 250 291.666666667 250 312.5 250 c 1
 312.5 270.833333333 312.5 291.666666667 312.5 312.5 c 1
187.5 125 m 1
 250 125 l 1
 250 104.166666667 250 83.3333333333 250 62.5 c 1
 312.5 62.5 375 62.5 437.5 62.5 c 1
 437.5 41.6666666667 437.5 20.8333333333 437.5 0 c 1
 333.333333333 -0 229.166666667 0 125 0 c 1
 125 20.8333333333 125 41.6666666667 125 62.5 c 1
 145.833333333 62.5 166.666666667 62.5 187.5 62.5 c 1
 187.5 83.3333333333 187.5 104.166666667 187.5 125 c 1
EndSplineSet
EndChar

StartChar: braceleft
Encoding: 123 123 93
Width: 375
Flags: HW
LayerCount: 2
Back
Fore
SplineSet
187.5 750 m 1
 312.5 750 l 1
 312.5 729.166666667 312.5 708.333333333 312.5 687.5 c 1
 270.833333333 687.5 229.166666667 687.5 187.5 687.5 c 1
 187.5 708.333333333 187.5 729.166666667 187.5 750 c 1
62.5 687.5 m 1
 187.5 687.5 l 1
 187.5 604.166666667 187.5 520.833333333 187.5 437.5 c 1
 166.666666667 437.5 145.833333333 437.5 125 437.5 c 1
 125 416.666666667 125 395.833333333 125 375 c 1
 104.166666667 375 83.3333333333 375 62.5 375 c 1
 62.5 395.833333333 62.5 416.666666667 62.5 437.5 c 1
 83.3333333333 437.5 104.166666667 437.5 125 437.5 c 1
 125 500 125 562.5 125 625 c 1
 104.166666667 625 83.3333333333 625 62.5 625 c 1
 62.5 645.833333333 62.5 666.666666667 62.5 687.5 c 1
0 375 m 1
 62.5 375 l 1
 62.5 333.333333333 62.5 291.666666667 62.5 250 c 1
 41.6666666667 250 20.8333333333 250 0 250 c 1
 -0 291.666666667 0 333.333333333 0 375 c 1
62.5 250 m 1
 125 250 l 1
 125 229.166666667 125 208.333333333 125 187.5 c 1
 145.833333333 187.5 166.666666667 187.5 187.5 187.5 c 1
 187.5 104.166666667 187.5 20.8333333333 187.5 -62.5 c 1
 166.666666667 -62.5 145.833333333 -62.5 125 -62.5 c 1
 125 20.8333333333 125 104.166666667 125 187.5 c 1
 104.166666667 187.5 83.3333333333 187.5 62.5 187.5 c 1
 62.5 208.333333333 62.5 229.166666667 62.5 250 c 1
187.5 -62.5 m 1
 312.5 -62.5 l 1
 312.5 -83.3333333333 312.5 -104.166666667 312.5 -125 c 1
 270.833333333 -125 229.166666667 -125 187.5 -125 c 1
 187.5 -104.166666667 187.5 -83.3333333333 187.5 -62.5 c 1
EndSplineSet
EndChar

StartChar: bar
Encoding: 124 124 94
Width: 250
Flags: HW
LayerCount: 2
Back
Fore
SplineSet
125 750 m 1
 187.5 750 l 1
 187.5 416.666666667 187.5 83.3333333333 187.5 -250 c 1
 166.666666667 -250 145.833333333 -250 125 -250 c 1
 125 41.6666666667 125 333.333333333 125 625 c 1
 104.166666667 625 83.3333333333 625 62.5 625 c 1
 62.5 645.833333333 62.5 666.666666667 62.5 687.5 c 1
 83.3333333333 687.5 104.166666667 687.5 125 687.5 c 1
 125 708.333333333 125 729.166666667 125 750 c 1
EndSplineSet
EndChar

StartChar: braceright
Encoding: 125 125 95
Width: 437
Flags: HW
LayerCount: 2
Back
Fore
SplineSet
62.5 750 m 1
 187.5 750 l 1
 187.5 729.166666667 187.5 708.333333333 187.5 687.5 c 1
 208.333333333 687.5 229.166666667 687.5 250 687.5 c 1
 250 604.166666667 250 520.833333333 250 437.5 c 1
 270.833333333 437.5 291.666666667 437.5 312.5 437.5 c 1
 312.5 416.666666667 312.5 395.833333333 312.5 375 c 1
 333.333333333 375 354.166666667 375 375 375 c 1
 375 333.333333333 375 291.666666667 375 250 c 1
 354.166666667 250 333.333333333 250 312.5 250 c 1
 312.5 229.166666667 312.5 208.333333333 312.5 187.5 c 1
 291.666666667 187.5 270.833333333 187.5 250 187.5 c 1
 250 104.166666667 250 20.8333333333 250 -62.5 c 1
 229.166666667 -62.5 208.333333333 -62.5 187.5 -62.5 c 1
 187.5 -83.3333333333 187.5 -104.166666667 187.5 -125 c 1
 145.833333333 -125 104.166666667 -125 62.5 -125 c 1
 62.5 -104.166666667 62.5 -83.3333333333 62.5 -62.5 c 1
 104.166666667 -62.5 145.833333333 -62.5 187.5 -62.5 c 1
 187.5 20.8333333333 187.5 104.166666667 187.5 187.5 c 1
 208.333333333 187.5 229.166666667 187.5 250 187.5 c 1
 250 208.333333333 250 229.166666667 250 250 c 1
 270.833333333 250 291.666666667 250 312.5 250 c 1
 312.5 291.666666667 312.5 333.333333333 312.5 375 c 1
 291.666666667 375 270.833333333 375 250 375 c 1
 250 395.833333333 250 416.666666667 250 437.5 c 1
 229.166666667 437.5 208.333333333 437.5 187.5 437.5 c 1
 187.5 520.833333333 187.5 604.166666667 187.5 687.5 c 1
 145.833333333 687.5 104.166666667 687.5 62.5 687.5 c 1
 62.5 708.333333333 62.5 729.166666667 62.5 750 c 1
EndSplineSet
EndChar

StartChar: asciitilde
Encoding: 126 126 96
Width: 562
Flags: HW
LayerCount: 2
Back
Fore
SplineSet
125 437.5 m 1
 250 437.5 l 1
 250 416.666666667 250 395.833333333 250 375 c 1
 208.333333333 375 166.666666667 375 125 375 c 1
 125 395.833333333 125 416.666666667 125 437.5 c 1
62.5 375 m 1
 125 375 l 1
 125 354.166666667 125 333.333333333 125 312.5 c 1
 104.166666667 312.5 83.3333333333 312.5 62.5 312.5 c 1
 62.5 333.333333333 62.5 354.166666667 62.5 375 c 1
250 375 m 1
 312.5 375 l 1
 312.5 354.166666667 312.5 333.333333333 312.5 312.5 c 1
 291.666666667 312.5 270.833333333 312.5 250 312.5 c 1
 250 333.333333333 250 354.166666667 250 375 c 1
437.5 375 m 1
 500 375 l 1
 500 354.166666667 500 333.333333333 500 312.5 c 1
 479.166666667 312.5 458.333333333 312.5 437.5 312.5 c 1
 437.5 333.333333333 437.5 354.166666667 437.5 375 c 1
312.5 312.5 m 1
 437.5 312.5 l 1
 437.5 291.666666667 437.5 270.833333333 437.5 250 c 1
 395.833333333 250 354.166666667 250 312.5 250 c 1
 312.5 270.833333333 312.5 291.666666667 312.5 312.5 c 1
EndSplineSet
EndChar

StartChar: exclamdown
Encoding: 161 161 98
Width: 312
Flags: HW
LayerCount: 2
Back
Fore
SplineSet
187.5 562.5 m 1
 250 562.5 l 1
 250 520.833333333 250 479.166666667 250 437.5 c 1
 229.166666667 437.5 208.333333333 437.5 187.5 437.5 c 1
 187.5 479.166666667 187.5 520.833333333 187.5 562.5 c 1
187.5 375 m 1
 250 375 l 1
 250 187.5 250 -9.84039379172e-14 250 -187.5 c 1
 229.166666667 -187.5 208.333333333 -187.5 187.5 -187.5 c 1
 187.5 -41.6666666667 187.5 104.166666667 187.5 250 c 1
 166.666666667 250 145.833333333 250 125 250 c 1
 125 270.833333333 125 291.666666667 125 312.5 c 1
 145.833333333 312.5 166.666666667 312.5 187.5 312.5 c 1
 187.5 333.333333333 187.5 354.166666667 187.5 375 c 1
EndSplineSet
EndChar

StartChar: cent
Encoding: 162 162 99
Width: 500
Flags: HW
LayerCount: 2
Back
Fore
SplineSet
125 437.5 m 1
 187.5 437.5 l 1
 187.5 333.333333333 187.5 229.166666667 187.5 125 c 1
 166.666666667 125 145.833333333 125 125 125 c 1
 125 187.5 125 250 125 312.5 c 1
 104.166666667 312.5 83.3333333333 312.5 62.5 312.5 c 1
 62.5 333.333333333 62.5 354.166666667 62.5 375 c 1
 83.3333333333 375 104.166666667 375 125 375 c 1
 125 395.833333333 125 416.666666667 125 437.5 c 1
250 562.5 m 1
 312.5 562.5 l 1
 312.5 541.666666667 312.5 520.833333333 312.5 500 c 1
 333.333333333 500 354.166666667 500 375 500 c 1
 375 479.166666667 375 458.333333333 375 437.5 c 1
 395.833333333 437.5 416.666666667 437.5 437.5 437.5 c 1
 437.5 416.666666667 437.5 395.833333333 437.5 375 c 1
 416.666666667 375 395.833333333 375 375 375 c 1
 375 395.833333333 375 416.666666667 375 437.5 c 1
 354.166666667 437.5 333.333333333 437.5 312.5 437.5 c 1
 312.5 333.333333333 312.5 229.166666667 312.5 125 c 1
 333.333333333 125 354.166666667 125 375 125 c 1
 375 145.833333333 375 166.666666667 375 187.5 c 1
 395.833333333 187.5 416.666666667 187.5 437.5 187.5 c 1
 437.5 166.666666667 437.5 145.833333333 437.5 125 c 1
 416.666666667 125 395.833333333 125 375 125 c 1
 375 104.166666667 375 83.3333333333 375 62.5 c 1
 354.166666667 62.5 333.333333333 62.5 312.5 62.5 c 1
 312.5 41.6666666667 312.5 20.8333333333 312.5 0 c 1
 291.666666667 -0 270.833333333 0 250 0 c 1
 250 20.8333333333 250 41.6666666667 250 62.5 c 1
 229.166666667 62.5 208.333333333 62.5 187.5 62.5 c 1
 187.5 83.3333333333 187.5 104.166666667 187.5 125 c 1
 208.333333333 125 229.166666667 125 250 125 c 1
 250 229.166666667 250 333.333333333 250 437.5 c 1
 229.166666667 437.5 208.333333333 437.5 187.5 437.5 c 1
 187.5 458.333333333 187.5 479.166666667 187.5 500 c 1
 208.333333333 500 229.166666667 500 250 500 c 1
 250 520.833333333 250 541.666666667 250 562.5 c 1
EndSplineSet
EndChar

StartChar: sterling
Encoding: 163 163 100
Width: 500
Flags: HW
LayerCount: 2
Back
Fore
SplineSet
250 625 m 1
 375 625 l 1
 375 604.166666667 375 583.333333333 375 562.5 c 1
 333.333333333 562.5 291.666666667 562.5 250 562.5 c 1
 250 583.333333333 250 604.166666667 250 625 c 1
187.5 562.5 m 1
 250 562.5 l 1
 250 500 250 437.5 250 375 c 1
 229.166666667 375 208.333333333 375 187.5 375 c 1
 187.5 395.833333333 187.5 416.666666667 187.5 437.5 c 1
 166.666666667 437.5 145.833333333 437.5 125 437.5 c 1
 125 458.333333333 125 479.166666667 125 500 c 1
 145.833333333 500 166.666666667 500 187.5 500 c 1
 187.5 520.833333333 187.5 541.666666667 187.5 562.5 c 1
375 562.5 m 1
 437.5 562.5 l 1
 437.5 541.666666667 437.5 520.833333333 437.5 500 c 1
 416.666666667 500 395.833333333 500 375 500 c 1
 375 520.833333333 375 541.666666667 375 562.5 c 1
250 375 m 1
 312.5 375 l 1
 312.5 354.166666667 312.5 333.333333333 312.5 312.5 c 1
 333.333333333 312.5 354.166666667 312.5 375 312.5 c 1
 375 291.666666667 375 270.833333333 375 250 c 1
 354.166666667 250 333.333333333 250 312.5 250 c 1
 312.5 229.166666667 312.5 208.333333333 312.5 187.5 c 1
 291.666666667 187.5 270.833333333 187.5 250 187.5 c 1
 250 208.333333333 250 229.166666667 250 250 c 1
 229.166666667 250 208.333333333 250 187.5 250 c 1
 187.5 270.833333333 187.5 291.666666667 187.5 312.5 c 1
 208.333333333 312.5 229.166666667 312.5 250 312.5 c 1
 250 333.333333333 250 354.166666667 250 375 c 1
187.5 187.5 m 1
 250 187.5 l 1
 250 145.833333333 250 104.166666667 250 62.5 c 1
 312.5 62.5 375 62.5 437.5 62.5 c 1
 437.5 41.6666666667 437.5 20.8333333333 437.5 0 c 1
 333.333333333 -0 229.166666667 0 125 0 c 1
 125 20.8333333333 125 41.6666666667 125 62.5 c 1
 145.833333333 62.5 166.666666667 62.5 187.5 62.5 c 1
 187.5 104.166666667 187.5 145.833333333 187.5 187.5 c 1
EndSplineSet
EndChar

StartChar: currency
Encoding: 164 164 101
Width: 500
Flags: HW
LayerCount: 2
Back
Fore
SplineSet
250 375 m 1
 250 354.166666667 250 333.333333333 250 312.5 c 1
 270.833333333 312.5 291.666666667 312.5 312.5 312.5 c 1
 312.5 333.333333333 312.5 354.166666667 312.5 375 c 1
 250 375 l 1
125 500 m 1
 187.5 500 l 1
 187.5 479.166666667 187.5 458.333333333 187.5 437.5 c 1
 250 437.5 312.5 437.5 375 437.5 c 1
 375 458.333333333 375 479.166666667 375 500 c 1
 395.833333333 500 416.666666667 500 437.5 500 c 1
 437.5 479.166666667 437.5 458.333333333 437.5 437.5 c 1
 416.666666667 437.5 395.833333333 437.5 375 437.5 c 1
 375 375 375 312.5 375 250 c 1
 395.833333333 250 416.666666667 250 437.5 250 c 1
 437.5 229.166666667 437.5 208.333333333 437.5 187.5 c 1
 416.666666667 187.5 395.833333333 187.5 375 187.5 c 1
 375 208.333333333 375 229.166666667 375 250 c 1
 312.5 250 250 250 187.5 250 c 1
 187.5 229.166666667 187.5 208.333333333 187.5 187.5 c 1
 166.666666667 187.5 145.833333333 187.5 125 187.5 c 1
 125 208.333333333 125 229.166666667 125 250 c 1
 145.833333333 250 166.666666667 250 187.5 250 c 1
 187.5 312.5 187.5 375 187.5 437.5 c 1
 166.666666667 437.5 145.833333333 437.5 125 437.5 c 1
 125 458.333333333 125 479.166666667 125 500 c 1
EndSplineSet
EndChar

StartChar: yen
Encoding: 165 165 102
Width: 500
Flags: HW
LayerCount: 2
Back
Fore
SplineSet
125 750 m 1
 187.5 750 l 1
 187.5 666.666666667 187.5 583.333333333 187.5 500 c 1
 208.333333333 500 229.166666667 500 250 500 c 1
 250 479.166666667 250 458.333333333 250 437.5 c 1
 270.833333333 437.5 291.666666667 437.5 312.5 437.5 c 1
 312.5 458.333333333 312.5 479.166666667 312.5 500 c 1
 333.333333333 500 354.166666667 500 375 500 c 1
 375 541.666666667 375 583.333333333 375 625 c 1
 354.166666667 625 333.333333333 625 312.5 625 c 1
 312.5 645.833333333 312.5 666.666666667 312.5 687.5 c 1
 333.333333333 687.5 354.166666667 687.5 375 687.5 c 1
 375 708.333333333 375 729.166666667 375 750 c 1
 395.833333333 750 416.666666667 750 437.5 750 c 1
 437.5 666.666666667 437.5 583.333333333 437.5 500 c 1
 416.666666667 500 395.833333333 500 375 500 c 1
 375 479.166666667 375 458.333333333 375 437.5 c 1
 354.166666667 437.5 333.333333333 437.5 312.5 437.5 c 1
 312.5 395.833333333 312.5 354.166666667 312.5 312.5 c 1
 333.333333333 312.5 354.166666667 312.5 375 312.5 c 1
 375 291.666666667 375 270.833333333 375 250 c 1
 354.166666667 250 333.333333333 250 312.5 250 c 1
 312.5 229.166666667 312.5 208.333333333 312.5 187.5 c 1
 333.333333333 187.5 354.166666667 187.5 375 187.5 c 1
 375 166.666666667 375 145.833333333 375 125 c 1
 354.166666667 125 333.333333333 125 312.5 125 c 1
 312.5 83.3333333333 312.5 41.6666666667 312.5 0 c 1
 291.666666667 -0 270.833333333 0 250 0 c 1
 250 41.6666666667 250 83.3333333333 250 125 c 1
 229.166666667 125 208.333333333 125 187.5 125 c 1
 187.5 145.833333333 187.5 166.666666667 187.5 187.5 c 1
 208.333333333 187.5 229.166666667 187.5 250 187.5 c 1
 250 208.333333333 250 229.166666667 250 250 c 1
 229.166666667 250 208.333333333 250 187.5 250 c 1
 187.5 270.833333333 187.5 291.666666667 187.5 312.5 c 1
 208.333333333 312.5 229.166666667 312.5 250 312.5 c 1
 250 354.166666667 250 395.833333333 250 437.5 c 1
 229.166666667 437.5 208.333333333 437.5 187.5 437.5 c 1
 187.5 458.333333333 187.5 479.166666667 187.5 500 c 1
 166.666666667 500 145.833333333 500 125 500 c 1
 125 541.666666667 125 583.333333333 125 625 c 1
 104.166666667 625 83.3333333333 625 62.5 625 c 1
 62.5 645.833333333 62.5 666.666666667 62.5 687.5 c 1
 83.3333333333 687.5 104.166666667 687.5 125 687.5 c 1
 125 708.333333333 125 729.166666667 125 750 c 1
EndSplineSet
EndChar

StartChar: dieresis
Encoding: 168 168 103
Width: 875
Flags: HW
LayerCount: 2
Back
Fore
SplineSet
312.5 250 m 1
 375 250 l 1
 375 208.333333333 375 166.666666667 375 125 c 1
 354.166666667 125 333.333333333 125 312.5 125 c 1
 312.5 166.666666667 312.5 208.333333333 312.5 250 c 1
500 250 m 1
 562.5 250 l 1
 562.5 208.333333333 562.5 166.666666667 562.5 125 c 1
 541.666666667 125 520.833333333 125 500 125 c 1
 500 166.666666667 500 208.333333333 500 250 c 1
375 62.5 m 1
 500 62.5 l 1
 500 41.6666666667 500 20.8333333333 500 0 c 1
 458.333333333 -0 416.666666667 0 375 0 c 1
 375 20.8333333333 375 41.6666666667 375 62.5 c 1
250 312.5 m 1
 250 291.666666667 250 270.833333333 250 250 c 1
 229.166666667 250 208.333333333 250 187.5 250 c 1
 187.5 208.333333333 187.5 166.666666667 187.5 125 c 1
 166.666666667 125 145.833333333 125 125 125 c 1
 125 83.3333333333 125 41.6666666667 125 0 c 1
 145.833333333 -0 166.666666667 0 187.5 0 c 1
 187.5 -20.8333333333 187.5 -41.6666666667 187.5 -62.5 c 1
 312.5 -62.5 437.5 -62.5 562.5 -62.5 c 1
 562.5 -41.6666666667 562.5 -20.8333333333 562.5 0 c 1
 583.333333333 -0 604.166666667 0 625 0 c 1
 625 104.166666667 625 208.333333333 625 312.5 c 1
 250 312.5 l 1
125 625 m 1
 250 625 l 1
 250 604.166666667 250 583.333333333 250 562.5 c 1
 208.333333333 562.5 166.666666667 562.5 125 562.5 c 1
 125 583.333333333 125 604.166666667 125 625 c 1
312.5 625 m 1
 625 625 l 1
 625 604.166666667 625 583.333333333 625 562.5 c 1
 520.833333333 562.5 416.666666667 562.5 312.5 562.5 c 1
 312.5 583.333333333 312.5 604.166666667 312.5 625 c 1
62.5 562.5 m 1
 125 562.5 l 1
 125 500 125 437.5 125 375 c 1
 291.666666667 375 458.333333333 375 625 375 c 1
 625 437.5 625 500 625 562.5 c 1
 645.833333333 562.5 666.666666667 562.5 687.5 562.5 c 1
 687.5 500 687.5 437.5 687.5 375 c 1
 729.166666667 375 770.833333333 375 812.5 375 c 1
 812.5 354.166666667 812.5 333.333333333 812.5 312.5 c 1
 770.833333333 312.5 729.166666667 312.5 687.5 312.5 c 1
 687.5 208.333333333 687.5 104.166666667 687.5 0 c 1
 666.666666667 -0 645.833333333 0 625 0 c 1
 625 -20.8333333333 625 -41.6666666667 625 -62.5 c 1
 604.166666667 -62.5 583.333333333 -62.5 562.5 -62.5 c 1
 562.5 -83.3333333333 562.5 -104.166666667 562.5 -125 c 1
 437.5 -125 312.5 -125 187.5 -125 c 1
 187.5 -104.166666667 187.5 -83.3333333333 187.5 -62.5 c 1
 166.666666667 -62.5 145.833333333 -62.5 125 -62.5 c 1
 125 -41.6666666667 125 -20.8333333333 125 0 c 1
 104.166666667 -0 83.3333333333 0 62.5 0 c 1
 62.5 104.166666667 62.5 208.333333333 62.5 312.5 c 1
 20.8333333333 312.5 -20.8333333333 312.5 -62.5 312.5 c 1
 -62.5 333.333333333 -62.5 354.166666667 -62.5 375 c 1
 -20.8333333333 375 20.8333333333 375 62.5 375 c 1
 62.5 437.5 62.5 500 62.5 562.5 c 1
250 562.5 m 1
 312.5 562.5 l 1
 312.5 541.666666667 312.5 520.833333333 312.5 500 c 1
 291.666666667 500 270.833333333 500 250 500 c 1
 250 520.833333333 250 541.666666667 250 562.5 c 1
EndSplineSet
EndChar

StartChar: copyright
Encoding: 169 169 104
Width: 812
Flags: HW
LayerCount: 2
Back
Fore
SplineSet
250 625 m 1
 562.5 625 l 1
 562.5 604.166666667 562.5 583.333333333 562.5 562.5 c 1
 458.333333333 562.5 354.166666667 562.5 250 562.5 c 1
 250 583.333333333 250 604.166666667 250 625 c 1
187.5 562.5 m 1
 250 562.5 l 1
 250 541.666666667 250 520.833333333 250 500 c 1
 229.166666667 500 208.333333333 500 187.5 500 c 1
 187.5 479.166666667 187.5 458.333333333 187.5 437.5 c 1
 166.666666667 437.5 145.833333333 437.5 125 437.5 c 1
 125 458.333333333 125 479.166666667 125 500 c 1
 145.833333333 500 166.666666667 500 187.5 500 c 1
 187.5 520.833333333 187.5 541.666666667 187.5 562.5 c 1
562.5 562.5 m 1
 625 562.5 l 1
 625 541.666666667 625 520.833333333 625 500 c 1
 645.833333333 500 666.666666667 500 687.5 500 c 1
 687.5 479.166666667 687.5 458.333333333 687.5 437.5 c 1
 666.666666667 437.5 645.833333333 437.5 625 437.5 c 1
 625 458.333333333 625 479.166666667 625 500 c 1
 604.166666667 500 583.333333333 500 562.5 500 c 1
 562.5 520.833333333 562.5 541.666666667 562.5 562.5 c 1
62.5 437.5 m 1
 125 437.5 l 1
 125 354.166666667 125 270.833333333 125 187.5 c 1
 104.166666667 187.5 83.3333333333 187.5 62.5 187.5 c 1
 62.5 270.833333333 62.5 354.166666667 62.5 437.5 c 1
312.5 437.5 m 1
 500 437.5 l 1
 500 416.666666667 500 395.833333333 500 375 c 1
 437.5 375 375 375 312.5 375 c 1
 312.5 333.333333333 312.5 291.666666667 312.5 250 c 1
 375 250 437.5 250 500 250 c 1
 500 229.166666667 500 208.333333333 500 187.5 c 1
 437.5 187.5 375 187.5 312.5 187.5 c 1
 312.5 208.333333333 312.5 229.166666667 312.5 250 c 1
 291.666666667 250 270.833333333 250 250 250 c 1
 250 291.666666667 250 333.333333333 250 375 c 1
 270.833333333 375 291.666666667 375 312.5 375 c 1
 312.5 395.833333333 312.5 416.666666667 312.5 437.5 c 1
687.5 437.5 m 1
 750 437.5 l 1
 750 354.166666667 750 270.833333333 750 187.5 c 1
 729.166666667 187.5 708.333333333 187.5 687.5 187.5 c 1
 687.5 270.833333333 687.5 354.166666667 687.5 437.5 c 1
125 187.5 m 1
 187.5 187.5 l 1
 187.5 166.666666667 187.5 145.833333333 187.5 125 c 1
 208.333333333 125 229.166666667 125 250 125 c 1
 250 104.166666667 250 83.3333333333 250 62.5 c 1
 229.166666667 62.5 208.333333333 62.5 187.5 62.5 c 1
 187.5 83.3333333333 187.5 104.166666667 187.5 125 c 1
 166.666666667 125 145.833333333 125 125 125 c 1
 125 145.833333333 125 166.666666667 125 187.5 c 1
625 187.5 m 1
 687.5 187.5 l 1
 687.5 166.666666667 687.5 145.833333333 687.5 125 c 1
 666.666666667 125 645.833333333 125 625 125 c 1
 625 104.166666667 625 83.3333333333 625 62.5 c 1
 604.166666667 62.5 583.333333333 62.5 562.5 62.5 c 1
 562.5 83.3333333333 562.5 104.166666667 562.5 125 c 1
 583.333333333 125 604.166666667 125 625 125 c 1
 625 145.833333333 625 166.666666667 625 187.5 c 1
250 62.5 m 1
 562.5 62.5 l 1
 562.5 41.6666666667 562.5 20.8333333333 562.5 0 c 1
 458.333333333 -0 354.166666667 0 250 0 c 1
 250 20.8333333333 250 41.6666666667 250 62.5 c 1
EndSplineSet
EndChar

StartChar: afii10023
Encoding: 1025 1025 105
Width: 437
Flags: HW
LayerCount: 2
Back
Fore
SplineSet
125 875 m 1
 187.5 875 l 1
 187.5 854.166666667 187.5 833.333333333 187.5 812.5 c 1
 166.666666667 812.5 145.833333333 812.5 125 812.5 c 1
 125 833.333333333 125 854.166666667 125 875 c 1
250 875 m 1
 312.5 875 l 1
 312.5 854.166666667 312.5 833.333333333 312.5 812.5 c 1
 291.666666667 812.5 270.833333333 812.5 250 812.5 c 1
 250 833.333333333 250 854.166666667 250 875 c 1
125 750 m 1
 375 750 l 1
 375 729.166666667 375 708.333333333 375 687.5 c 1
 312.5 687.5 250 687.5 187.5 687.5 c 1
 187.5 604.166666667 187.5 520.833333333 187.5 437.5 c 1
 229.166666667 437.5 270.833333333 437.5 312.5 437.5 c 1
 312.5 416.666666667 312.5 395.833333333 312.5 375 c 1
 270.833333333 375 229.166666667 375 187.5 375 c 1
 187.5 270.833333333 187.5 166.666666667 187.5 62.5 c 1
 250 62.5 312.5 62.5 375 62.5 c 1
 375 41.6666666667 375 20.8333333333 375 0 c 1
 270.833333333 -0 166.666666667 0 62.5 0 c 1
 62.5 20.8333333333 62.5 41.6666666667 62.5 62.5 c 1
 83.3333333333 62.5 104.166666667 62.5 125 62.5 c 1
 125 250 125 437.5 125 625 c 1
 104.166666667 625 83.3333333333 625 62.5 625 c 1
 62.5 645.833333333 62.5 666.666666667 62.5 687.5 c 1
 83.3333333333 687.5 104.166666667 687.5 125 687.5 c 1
 125 708.333333333 125 729.166666667 125 750 c 1
EndSplineSet
EndChar

StartChar: afii10017
Encoding: 1040 1040 106
Width: 500
Flags: HW
LayerCount: 2
Back
Fore
SplineSet
187.5 687.5 m 1
 187.5 604.166666667 187.5 520.833333333 187.5 437.5 c 1
 250 437.5 312.5 437.5 375 437.5 c 1
 375 520.833333333 375 604.166666667 375 687.5 c 1
 187.5 687.5 l 1
125 750 m 1
 437.5 750 l 1
 437.5 500 437.5 250 437.5 0 c 1
 395.833333333 -0 354.166666667 0 312.5 0 c 1
 312.5 20.8333333333 312.5 41.6666666667 312.5 62.5 c 1
 333.333333333 62.5 354.166666667 62.5 375 62.5 c 1
 375 166.666666667 375 270.833333333 375 375 c 1
 312.5 375 250 375 187.5 375 c 1
 187.5 250 187.5 125 187.5 0 c 1
 145.833333333 -0 104.166666667 0 62.5 0 c 1
 62.5 20.8333333333 62.5 41.6666666667 62.5 62.5 c 1
 83.3333333333 62.5 104.166666667 62.5 125 62.5 c 1
 125 229.166666667 125 395.833333333 125 562.5 c 1
 104.166666667 562.5 83.3333333333 562.5 62.5 562.5 c 1
 62.5 583.333333333 62.5 604.166666667 62.5 625 c 1
 83.3333333333 625 104.166666667 625 125 625 c 1
 125 666.666666667 125 708.333333333 125 750 c 1
EndSplineSet
EndChar

StartChar: afii10018
Encoding: 1041 1041 107
Width: 500
Flags: HW
LayerCount: 2
Back
Fore
SplineSet
187.5 375 m 1
 187.5 270.833333333 187.5 166.666666667 187.5 62.5 c 1
 250 62.5 312.5 62.5 375 62.5 c 1
 375 166.666666667 375 270.833333333 375 375 c 1
 187.5 375 l 1
125 750 m 1
 437.5 750 l 1
 437.5 729.166666667 437.5 708.333333333 437.5 687.5 c 1
 354.166666667 687.5 270.833333333 687.5 187.5 687.5 c 1
 187.5 604.166666667 187.5 520.833333333 187.5 437.5 c 1
 250 437.5 312.5 437.5 375 437.5 c 1
 375 416.666666667 375 395.833333333 375 375 c 1
 395.833333333 375 416.666666667 375 437.5 375 c 1
 437.5 270.833333333 437.5 166.666666667 437.5 62.5 c 1
 416.666666667 62.5 395.833333333 62.5 375 62.5 c 1
 375 41.6666666667 375 20.8333333333 375 0 c 1
 270.833333333 -0 166.666666667 0 62.5 0 c 1
 62.5 20.8333333333 62.5 41.6666666667 62.5 62.5 c 1
 83.3333333333 62.5 104.166666667 62.5 125 62.5 c 1
 125 250 125 437.5 125 625 c 1
 104.166666667 625 83.3333333333 625 62.5 625 c 1
 62.5 645.833333333 62.5 666.666666667 62.5 687.5 c 1
 83.3333333333 687.5 104.166666667 687.5 125 687.5 c 1
 125 708.333333333 125 729.166666667 125 750 c 1
EndSplineSet
EndChar

StartChar: afii10019
Encoding: 1042 1042 108
Width: 500
Flags: HW
LayerCount: 2
Back
Fore
SplineSet
187.5 687.5 m 1
 187.5 604.166666667 187.5 520.833333333 187.5 437.5 c 1
 250 437.5 312.5 437.5 375 437.5 c 1
 375 520.833333333 375 604.166666667 375 687.5 c 1
 187.5 687.5 l 1
187.5 375 m 1
 187.5 270.833333333 187.5 166.666666667 187.5 62.5 c 1
 250 62.5 312.5 62.5 375 62.5 c 1
 375 166.666666667 375 270.833333333 375 375 c 1
 187.5 375 l 1
125 750 m 1
 375 750 l 1
 375 729.166666667 375 708.333333333 375 687.5 c 1
 395.833333333 687.5 416.666666667 687.5 437.5 687.5 c 1
 437.5 604.166666667 437.5 520.833333333 437.5 437.5 c 1
 416.666666667 437.5 395.833333333 437.5 375 437.5 c 1
 375 416.666666667 375 395.833333333 375 375 c 1
 395.833333333 375 416.666666667 375 437.5 375 c 1
 437.5 270.833333333 437.5 166.666666667 437.5 62.5 c 1
 416.666666667 62.5 395.833333333 62.5 375 62.5 c 1
 375 41.6666666667 375 20.8333333333 375 0 c 1
 270.833333333 -0 166.666666667 0 62.5 0 c 1
 62.5 20.8333333333 62.5 41.6666666667 62.5 62.5 c 1
 83.3333333333 62.5 104.166666667 62.5 125 62.5 c 1
 125 250 125 437.5 125 625 c 1
 104.166666667 625 83.3333333333 625 62.5 625 c 1
 62.5 645.833333333 62.5 666.666666667 62.5 687.5 c 1
 83.3333333333 687.5 104.166666667 687.5 125 687.5 c 1
 125 708.333333333 125 729.166666667 125 750 c 1
EndSplineSet
EndChar

StartChar: afii10020
Encoding: 1043 1043 109
Width: 500
Flags: HW
LayerCount: 2
Back
Fore
SplineSet
125 750 m 1
 437.5 750 l 1
 437.5 729.166666667 437.5 708.333333333 437.5 687.5 c 1
 416.666666667 687.5 395.833333333 687.5 375 687.5 c 1
 375 666.666666667 375 645.833333333 375 625 c 1
 354.166666667 625 333.333333333 625 312.5 625 c 1
 312.5 645.833333333 312.5 666.666666667 312.5 687.5 c 1
 270.833333333 687.5 229.166666667 687.5 187.5 687.5 c 1
 187.5 458.333333333 187.5 229.166666667 187.5 0 c 1
 166.666666667 -0 145.833333333 0 125 0 c 1
 125 208.333333333 125 416.666666667 125 625 c 1
 104.166666667 625 83.3333333333 625 62.5 625 c 1
 62.5 645.833333333 62.5 666.666666667 62.5 687.5 c 1
 83.3333333333 687.5 104.166666667 687.5 125 687.5 c 1
 125 708.333333333 125 729.166666667 125 750 c 1
EndSplineSet
EndChar

StartChar: afii10021
Encoding: 1044 1044 110
Width: 562
Flags: HW
LayerCount: 2
Back
Fore
SplineSet
187.5 750 m 1
 437.5 750 l 1
 437.5 541.666666667 437.5 333.333333333 437.5 125 c 1
 458.333333333 125 479.166666667 125 500 125 c 1
 500 83.3333333333 500 41.6666666667 500 0 c 1
 479.166666667 -0 458.333333333 0 437.5 0 c 1
 437.5 20.8333333333 437.5 41.6666666667 437.5 62.5 c 1
 333.333333333 62.5 229.166666667 62.5 125 62.5 c 1
 125 41.6666666667 125 20.8333333333 125 0 c 1
 104.166666667 -0 83.3333333333 0 62.5 0 c 1
 62.5 41.6666666667 62.5 83.3333333333 62.5 125 c 1
 83.3333333333 125 104.166666667 125 125 125 c 1
 125 270.833333333 125 416.666666667 125 562.5 c 1
 104.166666667 562.5 83.3333333333 562.5 62.5 562.5 c 1
 62.5 583.333333333 62.5 604.166666667 62.5 625 c 1
 83.3333333333 625 104.166666667 625 125 625 c 1
 125 645.833333333 125 666.666666667 125 687.5 c 1
 145.833333333 687.5 166.666666667 687.5 187.5 687.5 c 1
 187.5 500 187.5 312.5 187.5 125 c 1
 250 125 312.5 125 375 125 c 1
 375 312.5 375 500 375 687.5 c 1
 312.5 687.5 250 687.5 187.5 687.5 c 1
 187.5 708.333333333 187.5 729.166666667 187.5 750 c 1
EndSplineSet
EndChar

StartChar: afii10022
Encoding: 1045 1045 111
Width: 437
Flags: HW
LayerCount: 2
Back
Fore
SplineSet
125 750 m 1
 375 750 l 1
 375 729.166666667 375 708.333333333 375 687.5 c 1
 312.5 687.5 250 687.5 187.5 687.5 c 1
 187.5 604.166666667 187.5 520.833333333 187.5 437.5 c 1
 229.166666667 437.5 270.833333333 437.5 312.5 437.5 c 1
 312.5 416.666666667 312.5 395.833333333 312.5 375 c 1
 270.833333333 375 229.166666667 375 187.5 375 c 1
 187.5 270.833333333 187.5 166.666666667 187.5 62.5 c 1
 250 62.5 312.5 62.5 375 62.5 c 1
 375 41.6666666667 375 20.8333333333 375 0 c 1
 270.833333333 -0 166.666666667 0 62.5 0 c 1
 62.5 20.8333333333 62.5 41.6666666667 62.5 62.5 c 1
 83.3333333333 62.5 104.166666667 62.5 125 62.5 c 1
 125 250 125 437.5 125 625 c 1
 104.166666667 625 83.3333333333 625 62.5 625 c 1
 62.5 645.833333333 62.5 666.666666667 62.5 687.5 c 1
 83.3333333333 687.5 104.166666667 687.5 125 687.5 c 1
 125 708.333333333 125 729.166666667 125 750 c 1
EndSplineSet
EndChar

StartChar: afii10024
Encoding: 1046 1046 112
Width: 623
Flags: HW
LayerCount: 2
Back
Fore
SplineSet
125 750 m 1
 187.5 750 l 1
 187.5 666.666666667 187.5 583.333333333 187.5 500 c 1
 208.333333333 500 229.166666667 500 250 500 c 1
 250 479.166666667 250 458.333333333 250 437.5 c 1
 270.833333333 437.5 291.666666667 437.5 312.5 437.5 c 1
 312.5 500 312.5 562.5 312.5 625 c 1
 291.666666667 625 270.833333333 625 250 625 c 1
 250 645.833333333 250 666.666666667 250 687.5 c 1
 270.833333333 687.5 291.666666667 687.5 312.5 687.5 c 1
 312.5 708.333333333 312.5 729.166666667 312.5 750 c 1
 333.333333333 750 354.166666667 750 375 750 c 1
 375 645.833333333 375 541.666666667 375 437.5 c 1
 395.833333333 437.5 416.666666667 437.5 437.5 437.5 c 1
 437.5 458.333333333 437.5 479.166666667 437.5 500 c 1
 458.333333333 500 479.166666667 500 500 500 c 1
 500 541.666666667 500 583.333333333 500 625 c 1
 479.166666667 625 458.333333333 625 437.5 625 c 1
 437.5 645.833333333 437.5 666.666666667 437.5 687.5 c 1
 458.333333333 687.5 479.166666667 687.5 500 687.5 c 1
 500 708.333333333 500 729.166666667 500 750 c 1
 520.833333333 750 541.666666667 750 562.5 750 c 1
 562.5 666.666666667 562.5 583.333333333 562.5 500 c 1
 541.666666667 500 520.833333333 500 500 500 c 1
 500 479.166666667 500 458.333333333 500 437.5 c 1
 479.166666667 437.5 458.333333333 437.5 437.5 437.5 c 1
 437.5 416.666666667 437.5 395.833333333 437.5 375 c 1
 458.333333333 375 479.166666667 375 500 375 c 1
 500 333.333333333 500 291.666666667 500 250 c 1
 520.833333333 250 541.666666667 250 562.5 250 c 1
 562.5 166.666666667 562.5 83.3333333333 562.5 0 c 1
 520.833333333 -0 479.166666667 0 437.5 0 c 1
 437.5 20.8333333333 437.5 41.6666666667 437.5 62.5 c 1
 458.333333333 62.5 479.166666667 62.5 500 62.5 c 1
 500 125 500 187.5 500 250 c 1
 479.166666667 250 458.333333333 250 437.5 250 c 1
 437.5 291.666666667 437.5 333.333333333 437.5 375 c 1
 416.666666667 375 395.833333333 375 375 375 c 1
 375 250 375 125 375 0 c 1
 333.333333333 -0 291.666666667 0 250 0 c 1
 250 20.8333333333 250 41.6666666667 250 62.5 c 1
 270.833333333 62.5 291.666666667 62.5 312.5 62.5 c 1
 312.5 166.666666667 312.5 270.833333333 312.5 375 c 1
 291.666666667 375 270.833333333 375 250 375 c 1
 250 333.333333333 250 291.666666667 250 250 c 1
 229.166666667 250 208.333333333 250 187.5 250 c 1
 187.5 166.666666667 187.5 83.3333333333 187.5 0 c 1
 145.833333333 -0 104.166666667 0 62.5 0 c 1
 62.5 20.8333333333 62.5 41.6666666667 62.5 62.5 c 1
 83.3333333333 62.5 104.166666667 62.5 125 62.5 c 1
 125 125 125 187.5 125 250 c 1
 145.833333333 250 166.666666667 250 187.5 250 c 1
 187.5 291.666666667 187.5 333.333333333 187.5 375 c 1
 208.333333333 375 229.166666667 375 250 375 c 1
 250 395.833333333 250 416.666666667 250 437.5 c 1
 229.166666667 437.5 208.333333333 437.5 187.5 437.5 c 1
 187.5 458.333333333 187.5 479.166666667 187.5 500 c 1
 166.666666667 500 145.833333333 500 125 500 c 1
 125 541.666666667 125 583.333333333 125 625 c 1
 104.166666667 625 83.3333333333 625 62.5 625 c 1
 62.5 645.833333333 62.5 666.666666667 62.5 687.5 c 1
 83.3333333333 687.5 104.166666667 687.5 125 687.5 c 1
 125 708.333333333 125 729.166666667 125 750 c 1
EndSplineSet
EndChar

StartChar: afii10025
Encoding: 1047 1047 113
Width: 500
Flags: HW
LayerCount: 2
Back
Fore
SplineSet
187.5 750 m 1
 375 750 l 1
 375 729.166666667 375 708.333333333 375 687.5 c 1
 312.5 687.5 250 687.5 187.5 687.5 c 1
 187.5 708.333333333 187.5 729.166666667 187.5 750 c 1
125 687.5 m 1
 187.5 687.5 l 1
 187.5 666.666666667 187.5 645.833333333 187.5 625 c 1
 166.666666667 625 145.833333333 625 125 625 c 1
 125 645.833333333 125 666.666666667 125 687.5 c 1
375 687.5 m 1
 437.5 687.5 l 1
 437.5 604.166666667 437.5 520.833333333 437.5 437.5 c 1
 416.666666667 437.5 395.833333333 437.5 375 437.5 c 1
 375 479.166666667 375 520.833333333 375 562.5 c 1
 354.166666667 562.5 333.333333333 562.5 312.5 562.5 c 1
 312.5 583.333333333 312.5 604.166666667 312.5 625 c 1
 333.333333333 625 354.166666667 625 375 625 c 1
 375 645.833333333 375 666.666666667 375 687.5 c 1
250 437.5 m 1
 375 437.5 l 1
 375 416.666666667 375 395.833333333 375 375 c 1
 333.333333333 375 291.666666667 375 250 375 c 1
 250 395.833333333 250 416.666666667 250 437.5 c 1
375 375 m 1
 437.5 375 l 1
 437.5 270.833333333 437.5 166.666666667 437.5 62.5 c 1
 416.666666667 62.5 395.833333333 62.5 375 62.5 c 1
 375 166.666666667 375 270.833333333 375 375 c 1
187.5 187.5 m 1
 250 187.5 l 1
 250 166.666666667 250 145.833333333 250 125 c 1
 229.166666667 125 208.333333333 125 187.5 125 c 1
 187.5 145.833333333 187.5 166.666666667 187.5 187.5 c 1
125 125 m 1
 187.5 125 l 1
 187.5 104.166666667 187.5 83.3333333333 187.5 62.5 c 1
 166.666666667 62.5 145.833333333 62.5 125 62.5 c 1
 125 83.3333333333 125 104.166666667 125 125 c 1
187.5 62.5 m 1
 375 62.5 l 1
 375 41.6666666667 375 20.8333333333 375 0 c 1
 312.5 -0 250 0 187.5 0 c 1
 187.5 20.8333333333 187.5 41.6666666667 187.5 62.5 c 1
EndSplineSet
EndChar

StartChar: afii10026
Encoding: 1048 1048 114
Width: 560
Flags: HW
LayerCount: 2
Back
Fore
SplineSet
125 750 m 1
 187.5 750 l 1
 187.5 562.5 187.5 375 187.5 187.5 c 1
 208.333333333 187.5 229.166666667 187.5 250 187.5 c 1
 250 250 250 312.5 250 375 c 1
 270.833333333 375 291.666666667 375 312.5 375 c 1
 312.5 437.5 312.5 500 312.5 562.5 c 1
 333.333333333 562.5 354.166666667 562.5 375 562.5 c 1
 375 604.166666667 375 645.833333333 375 687.5 c 1
 395.833333333 687.5 416.666666667 687.5 437.5 687.5 c 1
 437.5 708.333333333 437.5 729.166666667 437.5 750 c 1
 458.333333333 750 479.166666667 750 500 750 c 1
 500 500 500 250 500 0 c 1
 458.333333333 -0 416.666666667 0 375 0 c 1
 375 20.8333333333 375 41.6666666667 375 62.5 c 1
 395.833333333 62.5 416.666666667 62.5 437.5 62.5 c 1
 437.5 229.166666667 437.5 395.833333333 437.5 562.5 c 1
 416.666666667 562.5 395.833333333 562.5 375 562.5 c 1
 375 500 375 437.5 375 375 c 1
 354.166666667 375 333.333333333 375 312.5 375 c 1
 312.5 312.5 312.5 250 312.5 187.5 c 1
 291.666666667 187.5 270.833333333 187.5 250 187.5 c 1
 250 145.833333333 250 104.166666667 250 62.5 c 1
 229.166666667 62.5 208.333333333 62.5 187.5 62.5 c 1
 187.5 41.6666666667 187.5 20.8333333333 187.5 0 c 1
 145.833333333 -0 104.166666667 0 62.5 0 c 1
 62.5 20.8333333333 62.5 41.6666666667 62.5 62.5 c 1
 83.3333333333 62.5 104.166666667 62.5 125 62.5 c 1
 125 250 125 437.5 125 625 c 1
 104.166666667 625 83.3333333333 625 62.5 625 c 1
 62.5 645.833333333 62.5 666.666666667 62.5 687.5 c 1
 83.3333333333 687.5 104.166666667 687.5 125 687.5 c 1
 125 708.333333333 125 729.166666667 125 750 c 1
EndSplineSet
EndChar

StartChar: afii10027
Encoding: 1049 1049 115
Width: 562
Flags: HW
LayerCount: 2
Back
Fore
SplineSet
312.5 562.5 m 1
 375 562.5 l 1
 375 500 375 437.5 375 375 c 1
 354.166666667 375 333.333333333 375 312.5 375 c 1
 312.5 312.5 312.5 250 312.5 187.5 c 1
 291.666666667 187.5 270.833333333 187.5 250 187.5 c 1
 250 250 250 312.5 250 375 c 1
 270.833333333 375 291.666666667 375 312.5 375 c 1
 312.5 437.5 312.5 500 312.5 562.5 c 1
187.5 937.5 m 1
 250 937.5 l 1
 250 916.666666667 250 895.833333333 250 875 c 1
 229.166666667 875 208.333333333 875 187.5 875 c 1
 187.5 895.833333333 187.5 916.666666667 187.5 937.5 c 1
375 937.5 m 1
 437.5 937.5 l 1
 437.5 916.666666667 437.5 895.833333333 437.5 875 c 1
 416.666666667 875 395.833333333 875 375 875 c 1
 375 895.833333333 375 916.666666667 375 937.5 c 1
250 875 m 1
 375 875 l 1
 375 854.166666667 375 833.333333333 375 812.5 c 1
 333.333333333 812.5 291.666666667 812.5 250 812.5 c 1
 250 833.333333333 250 854.166666667 250 875 c 1
125 750 m 1
 187.5 750 l 1
 187.5 562.5 187.5 375 187.5 187.5 c 1
 208.333333333 187.5 229.166666667 187.5 250 187.5 c 1
 250 145.833333333 250 104.166666667 250 62.5 c 1
 229.166666667 62.5 208.333333333 62.5 187.5 62.5 c 1
 187.5 41.6666666667 187.5 20.8333333333 187.5 0 c 1
 145.833333333 -0 104.166666667 0 62.5 0 c 1
 62.5 20.8333333333 62.5 41.6666666667 62.5 62.5 c 1
 83.3333333333 62.5 104.166666667 62.5 125 62.5 c 1
 125 250 125 437.5 125 625 c 1
 104.166666667 625 83.3333333333 625 62.5 625 c 1
 62.5 645.833333333 62.5 666.666666667 62.5 687.5 c 1
 83.3333333333 687.5 104.166666667 687.5 125 687.5 c 1
 125 708.333333333 125 729.166666667 125 750 c 1
437.5 750 m 1
 500 750 l 1
 500 500 500 250 500 0 c 1
 458.333333333 -0 416.666666667 0 375 0 c 1
 375 20.8333333333 375 41.6666666667 375 62.5 c 1
 395.833333333 62.5 416.666666667 62.5 437.5 62.5 c 1
 437.5 229.166666667 437.5 395.833333333 437.5 562.5 c 1
 416.666666667 562.5 395.833333333 562.5 375 562.5 c 1
 375 604.166666667 375 645.833333333 375 687.5 c 1
 395.833333333 687.5 416.666666667 687.5 437.5 687.5 c 1
 437.5 708.333333333 437.5 729.166666667 437.5 750 c 1
EndSplineSet
EndChar

StartChar: afii10028
Encoding: 1050 1050 116
Width: 500
Flags: HW
LayerCount: 2
Back
Fore
SplineSet
125 750 m 1
 187.5 750 l 1
 187.5 645.833333333 187.5 541.666666667 187.5 437.5 c 1
 208.333333333 437.5 229.166666667 437.5 250 437.5 c 1
 250 479.166666667 250 520.833333333 250 562.5 c 1
 270.833333333 562.5 291.666666667 562.5 312.5 562.5 c 1
 312.5 604.166666667 312.5 645.833333333 312.5 687.5 c 1
 333.333333333 687.5 354.166666667 687.5 375 687.5 c 1
 375 708.333333333 375 729.166666667 375 750 c 1
 395.833333333 750 416.666666667 750 437.5 750 c 1
 437.5 729.166666667 437.5 708.333333333 437.5 687.5 c 1
 416.666666667 687.5 395.833333333 687.5 375 687.5 c 1
 375 645.833333333 375 604.166666667 375 562.5 c 1
 354.166666667 562.5 333.333333333 562.5 312.5 562.5 c 1
 312.5 520.833333333 312.5 479.166666667 312.5 437.5 c 1
 291.666666667 437.5 270.833333333 437.5 250 437.5 c 1
 250 416.666666667 250 395.833333333 250 375 c 1
 270.833333333 375 291.666666667 375 312.5 375 c 1
 312.5 333.333333333 312.5 291.666666667 312.5 250 c 1
 333.333333333 250 354.166666667 250 375 250 c 1
 375 187.5 375 125 375 62.5 c 1
 395.833333333 62.5 416.666666667 62.5 437.5 62.5 c 1
 437.5 41.6666666667 437.5 20.8333333333 437.5 0 c 1
 416.666666667 -0 395.833333333 0 375 0 c 1
 375 20.8333333333 375 41.6666666667 375 62.5 c 1
 354.166666667 62.5 333.333333333 62.5 312.5 62.5 c 1
 312.5 125 312.5 187.5 312.5 250 c 1
 291.666666667 250 270.833333333 250 250 250 c 1
 250 291.666666667 250 333.333333333 250 375 c 1
 229.166666667 375 208.333333333 375 187.5 375 c 1
 187.5 250 187.5 125 187.5 0 c 1
 145.833333333 -0 104.166666667 0 62.5 0 c 1
 62.5 20.8333333333 62.5 41.6666666667 62.5 62.5 c 1
 83.3333333333 62.5 104.166666667 62.5 125 62.5 c 1
 125 250 125 437.5 125 625 c 1
 104.166666667 625 83.3333333333 625 62.5 625 c 1
 62.5 645.833333333 62.5 666.666666667 62.5 687.5 c 1
 83.3333333333 687.5 104.166666667 687.5 125 687.5 c 1
 125 708.333333333 125 729.166666667 125 750 c 1
EndSplineSet
EndChar

StartChar: afii10029
Encoding: 1051 1051 117
Width: 500
Flags: HW
LayerCount: 2
Back
Fore
SplineSet
250 750 m 1
 437.5 750 l 1
 437.5 500 437.5 250 437.5 0 c 1
 395.833333333 -0 354.166666667 0 312.5 0 c 1
 312.5 20.8333333333 312.5 41.6666666667 312.5 62.5 c 1
 333.333333333 62.5 354.166666667 62.5 375 62.5 c 1
 375 229.166666667 375 395.833333333 375 562.5 c 1
 354.166666667 562.5 333.333333333 562.5 312.5 562.5 c 1
 312.5 583.333333333 312.5 604.166666667 312.5 625 c 1
 333.333333333 625 354.166666667 625 375 625 c 1
 375 645.833333333 375 666.666666667 375 687.5 c 1
 333.333333333 687.5 291.666666667 687.5 250 687.5 c 1
 250 708.333333333 250 729.166666667 250 750 c 1
187.5 687.5 m 1
 250 687.5 l 1
 250 604.166666667 250 520.833333333 250 437.5 c 1
 229.166666667 437.5 208.333333333 437.5 187.5 437.5 c 1
 187.5 479.166666667 187.5 520.833333333 187.5 562.5 c 1
 166.666666667 562.5 145.833333333 562.5 125 562.5 c 1
 125 583.333333333 125 604.166666667 125 625 c 1
 145.833333333 625 166.666666667 625 187.5 625 c 1
 187.5 645.833333333 187.5 666.666666667 187.5 687.5 c 1
125 437.5 m 1
 187.5 437.5 l 1
 187.5 291.666666667 187.5 145.833333333 187.5 0 c 1
 145.833333333 -0 104.166666667 0 62.5 0 c 1
 62.5 20.8333333333 62.5 41.6666666667 62.5 62.5 c 1
 83.3333333333 62.5 104.166666667 62.5 125 62.5 c 1
 125 187.5 125 312.5 125 437.5 c 1
EndSplineSet
EndChar

StartChar: afii10030
Encoding: 1052 1052 118
Width: 625
Flags: HW
LayerCount: 2
Back
Fore
SplineSet
125 750 m 1
 250 750 l 1
 250 729.166666667 250 708.333333333 250 687.5 c 1
 270.833333333 687.5 291.666666667 687.5 312.5 687.5 c 1
 312.5 645.833333333 312.5 604.166666667 312.5 562.5 c 1
 333.333333333 562.5 354.166666667 562.5 375 562.5 c 1
 375 604.166666667 375 645.833333333 375 687.5 c 1
 395.833333333 687.5 416.666666667 687.5 437.5 687.5 c 1
 437.5 708.333333333 437.5 729.166666667 437.5 750 c 1
 479.166666667 750 520.833333333 750 562.5 750 c 1
 562.5 500 562.5 250 562.5 0 c 1
 520.833333333 -0 479.166666667 0 437.5 0 c 1
 437.5 20.8333333333 437.5 41.6666666667 437.5 62.5 c 1
 458.333333333 62.5 479.166666667 62.5 500 62.5 c 1
 500 270.833333333 500 479.166666667 500 687.5 c 1
 479.166666667 687.5 458.333333333 687.5 437.5 687.5 c 1
 437.5 645.833333333 437.5 604.166666667 437.5 562.5 c 1
 416.666666667 562.5 395.833333333 562.5 375 562.5 c 1
 375 500 375 437.5 375 375 c 1
 354.166666667 375 333.333333333 375 312.5 375 c 1
 312.5 437.5 312.5 500 312.5 562.5 c 1
 291.666666667 562.5 270.833333333 562.5 250 562.5 c 1
 250 604.166666667 250 645.833333333 250 687.5 c 1
 229.166666667 687.5 208.333333333 687.5 187.5 687.5 c 1
 187.5 458.333333333 187.5 229.166666667 187.5 0 c 1
 145.833333333 -0 104.166666667 0 62.5 0 c 1
 62.5 20.8333333333 62.5 41.6666666667 62.5 62.5 c 1
 83.3333333333 62.5 104.166666667 62.5 125 62.5 c 1
 125 250 125 437.5 125 625 c 1
 104.166666667 625 83.3333333333 625 62.5 625 c 1
 62.5 645.833333333 62.5 666.666666667 62.5 687.5 c 1
 83.3333333333 687.5 104.166666667 687.5 125 687.5 c 1
 125 708.333333333 125 729.166666667 125 750 c 1
EndSplineSet
EndChar

StartChar: afii10031
Encoding: 1053 1053 119
Width: 500
Flags: HW
LayerCount: 2
Back
Fore
SplineSet
125 750 m 1
 187.5 750 l 1
 187.5 645.833333333 187.5 541.666666667 187.5 437.5 c 1
 250 437.5 312.5 437.5 375 437.5 c 1
 375 500 375 562.5 375 625 c 1
 354.166666667 625 333.333333333 625 312.5 625 c 1
 312.5 645.833333333 312.5 666.666666667 312.5 687.5 c 1
 333.333333333 687.5 354.166666667 687.5 375 687.5 c 1
 375 708.333333333 375 729.166666667 375 750 c 1
 395.833333333 750 416.666666667 750 437.5 750 c 1
 437.5 500 437.5 250 437.5 0 c 1
 395.833333333 -0 354.166666667 0 312.5 0 c 1
 312.5 20.8333333333 312.5 41.6666666667 312.5 62.5 c 1
 333.333333333 62.5 354.166666667 62.5 375 62.5 c 1
 375 166.666666667 375 270.833333333 375 375 c 1
 312.5 375 250 375 187.5 375 c 1
 187.5 250 187.5 125 187.5 0 c 1
 145.833333333 -0 104.166666667 0 62.5 0 c 1
 62.5 20.8333333333 62.5 41.6666666667 62.5 62.5 c 1
 83.3333333333 62.5 104.166666667 62.5 125 62.5 c 1
 125 250 125 437.5 125 625 c 1
 104.166666667 625 83.3333333333 625 62.5 625 c 1
 62.5 645.833333333 62.5 666.666666667 62.5 687.5 c 1
 83.3333333333 687.5 104.166666667 687.5 125 687.5 c 1
 125 708.333333333 125 729.166666667 125 750 c 1
EndSplineSet
EndChar

StartChar: afii10032
Encoding: 1054 1054 120
Width: 500
Flags: HW
LayerCount: 2
Back
Fore
SplineSet
187.5 750 m 1
 375 750 l 1
 375 729.166666667 375 708.333333333 375 687.5 c 1
 312.5 687.5 250 687.5 187.5 687.5 c 1
 187.5 708.333333333 187.5 729.166666667 187.5 750 c 1
125 687.5 m 1
 187.5 687.5 l 1
 187.5 479.166666667 187.5 270.833333333 187.5 62.5 c 1
 166.666666667 62.5 145.833333333 62.5 125 62.5 c 1
 125 229.166666667 125 395.833333333 125 562.5 c 1
 104.166666667 562.5 83.3333333333 562.5 62.5 562.5 c 1
 62.5 583.333333333 62.5 604.166666667 62.5 625 c 1
 83.3333333333 625 104.166666667 625 125 625 c 1
 125 645.833333333 125 666.666666667 125 687.5 c 1
375 687.5 m 1
 437.5 687.5 l 1
 437.5 479.166666667 437.5 270.833333333 437.5 62.5 c 1
 416.666666667 62.5 395.833333333 62.5 375 62.5 c 1
 375 270.833333333 375 479.166666667 375 687.5 c 1
187.5 62.5 m 1
 375 62.5 l 1
 375 41.6666666667 375 20.8333333333 375 0 c 1
 312.5 -0 250 0 187.5 0 c 1
 187.5 20.8333333333 187.5 41.6666666667 187.5 62.5 c 1
EndSplineSet
EndChar

StartChar: afii10033
Encoding: 1055 1055 121
Width: 500
Flags: HW
LayerCount: 2
Back
Fore
SplineSet
125 750 m 1
 437.5 750 l 1
 437.5 500 437.5 250 437.5 0 c 1
 395.833333333 -0 354.166666667 0 312.5 0 c 1
 312.5 20.8333333333 312.5 41.6666666667 312.5 62.5 c 1
 333.333333333 62.5 354.166666667 62.5 375 62.5 c 1
 375 270.833333333 375 479.166666667 375 687.5 c 1
 312.5 687.5 250 687.5 187.5 687.5 c 1
 187.5 458.333333333 187.5 229.166666667 187.5 0 c 1
 145.833333333 -0 104.166666667 0 62.5 0 c 1
 62.5 20.8333333333 62.5 41.6666666667 62.5 62.5 c 1
 83.3333333333 62.5 104.166666667 62.5 125 62.5 c 1
 125 250 125 437.5 125 625 c 1
 104.166666667 625 83.3333333333 625 62.5 625 c 1
 62.5 645.833333333 62.5 666.666666667 62.5 687.5 c 1
 83.3333333333 687.5 104.166666667 687.5 125 687.5 c 1
 125 708.333333333 125 729.166666667 125 750 c 1
EndSplineSet
EndChar

StartChar: afii10034
Encoding: 1056 1056 122
Width: 500
Flags: HW
LayerCount: 2
Back
Fore
SplineSet
187.5 687.5 m 1
 187.5 604.166666667 187.5 520.833333333 187.5 437.5 c 1
 250 437.5 312.5 437.5 375 437.5 c 1
 375 520.833333333 375 604.166666667 375 687.5 c 1
 187.5 687.5 l 1
125 750 m 1
 375 750 l 1
 375 729.166666667 375 708.333333333 375 687.5 c 1
 395.833333333 687.5 416.666666667 687.5 437.5 687.5 c 1
 437.5 604.166666667 437.5 520.833333333 437.5 437.5 c 1
 416.666666667 437.5 395.833333333 437.5 375 437.5 c 1
 375 416.666666667 375 395.833333333 375 375 c 1
 312.5 375 250 375 187.5 375 c 1
 187.5 250 187.5 125 187.5 0 c 1
 145.833333333 -0 104.166666667 0 62.5 0 c 1
 62.5 20.8333333333 62.5 41.6666666667 62.5 62.5 c 1
 83.3333333333 62.5 104.166666667 62.5 125 62.5 c 1
 125 250 125 437.5 125 625 c 1
 104.166666667 625 83.3333333333 625 62.5 625 c 1
 62.5 645.833333333 62.5 666.666666667 62.5 687.5 c 1
 83.3333333333 687.5 104.166666667 687.5 125 687.5 c 1
 125 708.333333333 125 729.166666667 125 750 c 1
EndSplineSet
EndChar

StartChar: afii10035
Encoding: 1057 1057 123
Width: 500
Flags: HW
LayerCount: 2
Back
Fore
SplineSet
187.5 750 m 1
 375 750 l 1
 375 729.166666667 375 708.333333333 375 687.5 c 1
 312.5 687.5 250 687.5 187.5 687.5 c 1
 187.5 708.333333333 187.5 729.166666667 187.5 750 c 1
62.5 687.5 m 1
 187.5 687.5 l 1
 187.5 479.166666667 187.5 270.833333333 187.5 62.5 c 1
 166.666666667 62.5 145.833333333 62.5 125 62.5 c 1
 125 250 125 437.5 125 625 c 1
 104.166666667 625 83.3333333333 625 62.5 625 c 1
 62.5 645.833333333 62.5 666.666666667 62.5 687.5 c 1
375 687.5 m 1
 437.5 687.5 l 1
 437.5 666.666666667 437.5 645.833333333 437.5 625 c 1
 416.666666667 625 395.833333333 625 375 625 c 1
 375 645.833333333 375 666.666666667 375 687.5 c 1
375 125 m 1
 437.5 125 l 1
 437.5 104.166666667 437.5 83.3333333333 437.5 62.5 c 1
 416.666666667 62.5 395.833333333 62.5 375 62.5 c 1
 375 83.3333333333 375 104.166666667 375 125 c 1
187.5 62.5 m 1
 375 62.5 l 1
 375 41.6666666667 375 20.8333333333 375 0 c 1
 312.5 -0 250 0 187.5 0 c 1
 187.5 20.8333333333 187.5 41.6666666667 187.5 62.5 c 1
EndSplineSet
EndChar

StartChar: afii10036
Encoding: 1058 1058 124
Width: 687
Flags: HW
LayerCount: 2
Back
Fore
SplineSet
125 750 m 1
 625 750 l 1
 625 729.166666667 625 708.333333333 625 687.5 c 1
 604.166666667 687.5 583.333333333 687.5 562.5 687.5 c 1
 562.5 666.666666667 562.5 645.833333333 562.5 625 c 1
 541.666666667 625 520.833333333 625 500 625 c 1
 500 645.833333333 500 666.666666667 500 687.5 c 1
 458.333333333 687.5 416.666666667 687.5 375 687.5 c 1
 375 458.333333333 375 229.166666667 375 0 c 1
 333.333333333 -0 291.666666667 0 250 0 c 1
 250 20.8333333333 250 41.6666666667 250 62.5 c 1
 270.833333333 62.5 291.666666667 62.5 312.5 62.5 c 1
 312.5 270.833333333 312.5 479.166666667 312.5 687.5 c 1
 270.833333333 687.5 229.166666667 687.5 187.5 687.5 c 1
 187.5 666.666666667 187.5 645.833333333 187.5 625 c 1
 145.833333333 625 104.166666667 625 62.5 625 c 1
 62.5 645.833333333 62.5 666.666666667 62.5 687.5 c 1
 83.3333333333 687.5 104.166666667 687.5 125 687.5 c 1
 125 708.333333333 125 729.166666667 125 750 c 1
EndSplineSet
EndChar

StartChar: afii10037
Encoding: 1059 1059 125
Width: 500
Flags: HW
LayerCount: 2
Back
Fore
SplineSet
125 750 m 1
 187.5 750 l 1
 187.5 645.833333333 187.5 541.666666667 187.5 437.5 c 1
 250 437.5 312.5 437.5 375 437.5 c 1
 375 500 375 562.5 375 625 c 1
 354.166666667 625 333.333333333 625 312.5 625 c 1
 312.5 645.833333333 312.5 666.666666667 312.5 687.5 c 1
 333.333333333 687.5 354.166666667 687.5 375 687.5 c 1
 375 708.333333333 375 729.166666667 375 750 c 1
 395.833333333 750 416.666666667 750 437.5 750 c 1
 437.5 520.833333333 437.5 291.666666667 437.5 62.5 c 1
 416.666666667 62.5 395.833333333 62.5 375 62.5 c 1
 375 41.6666666667 375 20.8333333333 375 0 c 1
 312.5 -0 250 0 187.5 0 c 1
 187.5 20.8333333333 187.5 41.6666666667 187.5 62.5 c 1
 166.666666667 62.5 145.833333333 62.5 125 62.5 c 1
 125 83.3333333333 125 104.166666667 125 125 c 1
 145.833333333 125 166.666666667 125 187.5 125 c 1
 187.5 104.166666667 187.5 83.3333333333 187.5 62.5 c 1
 250 62.5 312.5 62.5 375 62.5 c 1
 375 166.666666667 375 270.833333333 375 375 c 1
 312.5 375 250 375 187.5 375 c 1
 187.5 395.833333333 187.5 416.666666667 187.5 437.5 c 1
 166.666666667 437.5 145.833333333 437.5 125 437.5 c 1
 125 500 125 562.5 125 625 c 1
 104.166666667 625 83.3333333333 625 62.5 625 c 1
 62.5 645.833333333 62.5 666.666666667 62.5 687.5 c 1
 83.3333333333 687.5 104.166666667 687.5 125 687.5 c 1
 125 708.333333333 125 729.166666667 125 750 c 1
EndSplineSet
EndChar

StartChar: afii10038
Encoding: 1060 1060 126
Width: 687
Flags: HW
LayerCount: 2
Back
Fore
SplineSet
62.5 562.5 m 1
 125 562.5 l 1
 125 458.333333333 125 354.166666667 125 250 c 1
 104.166666667 250 83.3333333333 250 62.5 250 c 1
 62.5 354.166666667 62.5 458.333333333 62.5 562.5 c 1
125 250 m 1
 187.5 250 l 1
 187.5 229.166666667 187.5 208.333333333 187.5 187.5 c 1
 166.666666667 187.5 145.833333333 187.5 125 187.5 c 1
 125 208.333333333 125 229.166666667 125 250 c 1
375 625 m 1
 375 479.166666667 375 333.333333333 375 187.5 c 1
 416.666666667 187.5 458.333333333 187.5 500 187.5 c 1
 500 208.333333333 500 229.166666667 500 250 c 1
 520.833333333 250 541.666666667 250 562.5 250 c 1
 562.5 354.166666667 562.5 458.333333333 562.5 562.5 c 1
 541.666666667 562.5 520.833333333 562.5 500 562.5 c 1
 500 583.333333333 500 604.166666667 500 625 c 1
 375 625 l 1
125 625 m 1
 187.5 625 l 1
 187.5 604.166666667 187.5 583.333333333 187.5 562.5 c 1
 166.666666667 562.5 145.833333333 562.5 125 562.5 c 1
 125 583.333333333 125 604.166666667 125 625 c 1
312.5 750 m 1
 375 750 l 1
 375 729.166666667 375 708.333333333 375 687.5 c 1
 416.666666667 687.5 458.333333333 687.5 500 687.5 c 1
 500 666.666666667 500 645.833333333 500 625 c 1
 520.833333333 625 541.666666667 625 562.5 625 c 1
 562.5 604.166666667 562.5 583.333333333 562.5 562.5 c 1
 583.333333333 562.5 604.166666667 562.5 625 562.5 c 1
 625 458.333333333 625 354.166666667 625 250 c 1
 604.166666667 250 583.333333333 250 562.5 250 c 1
 562.5 229.166666667 562.5 208.333333333 562.5 187.5 c 1
 541.666666667 187.5 520.833333333 187.5 500 187.5 c 1
 500 166.666666667 500 145.833333333 500 125 c 1
 458.333333333 125 416.666666667 125 375 125 c 1
 375 83.3333333333 375 41.6666666667 375 0 c 1
 333.333333333 -0 291.666666667 0 250 0 c 1
 250 20.8333333333 250 41.6666666667 250 62.5 c 1
 270.833333333 62.5 291.666666667 62.5 312.5 62.5 c 1
 312.5 83.3333333333 312.5 104.166666667 312.5 125 c 1
 270.833333333 125 229.166666667 125 187.5 125 c 1
 187.5 145.833333333 187.5 166.666666667 187.5 187.5 c 1
 229.166666667 187.5 270.833333333 187.5 312.5 187.5 c 1
 312.5 291.666666667 312.5 395.833333333 312.5 500 c 1
 291.666666667 500 270.833333333 500 250 500 c 1
 250 520.833333333 250 541.666666667 250 562.5 c 1
 270.833333333 562.5 291.666666667 562.5 312.5 562.5 c 1
 312.5 583.333333333 312.5 604.166666667 312.5 625 c 1
 270.833333333 625 229.166666667 625 187.5 625 c 1
 187.5 645.833333333 187.5 666.666666667 187.5 687.5 c 1
 229.166666667 687.5 270.833333333 687.5 312.5 687.5 c 1
 312.5 708.333333333 312.5 729.166666667 312.5 750 c 1
EndSplineSet
EndChar

StartChar: afii10039
Encoding: 1061 1061 127
Width: 500
Flags: HW
LayerCount: 2
Back
Fore
SplineSet
125 750 m 1
 187.5 750 l 1
 187.5 687.5 187.5 625 187.5 562.5 c 1
 208.333333333 562.5 229.166666667 562.5 250 562.5 c 1
 250 520.833333333 250 479.166666667 250 437.5 c 1
 270.833333333 437.5 291.666666667 437.5 312.5 437.5 c 1
 312.5 479.166666667 312.5 520.833333333 312.5 562.5 c 1
 333.333333333 562.5 354.166666667 562.5 375 562.5 c 1
 375 583.333333333 375 604.166666667 375 625 c 1
 354.166666667 625 333.333333333 625 312.5 625 c 1
 312.5 645.833333333 312.5 666.666666667 312.5 687.5 c 1
 333.333333333 687.5 354.166666667 687.5 375 687.5 c 1
 375 708.333333333 375 729.166666667 375 750 c 1
 395.833333333 750 416.666666667 750 437.5 750 c 1
 437.5 687.5 437.5 625 437.5 562.5 c 1
 416.666666667 562.5 395.833333333 562.5 375 562.5 c 1
 375 520.833333333 375 479.166666667 375 437.5 c 1
 354.166666667 437.5 333.333333333 437.5 312.5 437.5 c 1
 312.5 395.833333333 312.5 354.166666667 312.5 312.5 c 1
 333.333333333 312.5 354.166666667 312.5 375 312.5 c 1
 375 270.833333333 375 229.166666667 375 187.5 c 1
 395.833333333 187.5 416.666666667 187.5 437.5 187.5 c 1
 437.5 125 437.5 62.5 437.5 0 c 1
 395.833333333 -0 354.166666667 0 312.5 0 c 1
 312.5 20.8333333333 312.5 41.6666666667 312.5 62.5 c 1
 333.333333333 62.5 354.166666667 62.5 375 62.5 c 1
 375 104.166666667 375 145.833333333 375 187.5 c 1
 354.166666667 187.5 333.333333333 187.5 312.5 187.5 c 1
 312.5 229.166666667 312.5 270.833333333 312.5 312.5 c 1
 291.666666667 312.5 270.833333333 312.5 250 312.5 c 1
 250 270.833333333 250 229.166666667 250 187.5 c 1
 229.166666667 187.5 208.333333333 187.5 187.5 187.5 c 1
 187.5 125 187.5 62.5 187.5 0 c 1
 145.833333333 -0 104.166666667 0 62.5 0 c 1
 62.5 20.8333333333 62.5 41.6666666667 62.5 62.5 c 1
 83.3333333333 62.5 104.166666667 62.5 125 62.5 c 1
 125 104.166666667 125 145.833333333 125 187.5 c 1
 145.833333333 187.5 166.666666667 187.5 187.5 187.5 c 1
 187.5 229.166666667 187.5 270.833333333 187.5 312.5 c 1
 208.333333333 312.5 229.166666667 312.5 250 312.5 c 1
 250 354.166666667 250 395.833333333 250 437.5 c 1
 229.166666667 437.5 208.333333333 437.5 187.5 437.5 c 1
 187.5 479.166666667 187.5 520.833333333 187.5 562.5 c 1
 166.666666667 562.5 145.833333333 562.5 125 562.5 c 1
 125 583.333333333 125 604.166666667 125 625 c 1
 104.166666667 625 83.3333333333 625 62.5 625 c 1
 62.5 645.833333333 62.5 666.666666667 62.5 687.5 c 1
 83.3333333333 687.5 104.166666667 687.5 125 687.5 c 1
 125 708.333333333 125 729.166666667 125 750 c 1
EndSplineSet
EndChar

StartChar: afii10040
Encoding: 1062 1062 128
Width: 562
Flags: HW
LayerCount: 2
Back
Fore
SplineSet
125 750 m 1
 187.5 750 l 1
 187.5 541.666666667 187.5 333.333333333 187.5 125 c 1
 250 125 312.5 125 375 125 c 1
 375 291.666666667 375 458.333333333 375 625 c 1
 354.166666667 625 333.333333333 625 312.5 625 c 1
 312.5 645.833333333 312.5 666.666666667 312.5 687.5 c 1
 333.333333333 687.5 354.166666667 687.5 375 687.5 c 1
 375 708.333333333 375 729.166666667 375 750 c 1
 395.833333333 750 416.666666667 750 437.5 750 c 1
 437.5 541.666666667 437.5 333.333333333 437.5 125 c 1
 458.333333333 125 479.166666667 125 500 125 c 1
 500 83.3333333333 500 41.6666666667 500 0 c 1
 479.166666667 -0 458.333333333 0 437.5 0 c 1
 437.5 20.8333333333 437.5 41.6666666667 437.5 62.5 c 1
 354.166666667 62.5 270.833333333 62.5 187.5 62.5 c 1
 187.5 83.3333333333 187.5 104.166666667 187.5 125 c 1
 166.666666667 125 145.833333333 125 125 125 c 1
 125 291.666666667 125 458.333333333 125 625 c 1
 104.166666667 625 83.3333333333 625 62.5 625 c 1
 62.5 645.833333333 62.5 666.666666667 62.5 687.5 c 1
 83.3333333333 687.5 104.166666667 687.5 125 687.5 c 1
 125 708.333333333 125 729.166666667 125 750 c 1
EndSplineSet
EndChar

StartChar: afii10041
Encoding: 1063 1063 129
Width: 500
Flags: HW
LayerCount: 2
Back
Fore
SplineSet
125 750 m 1
 187.5 750 l 1
 187.5 645.833333333 187.5 541.666666667 187.5 437.5 c 1
 250 437.5 312.5 437.5 375 437.5 c 1
 375 500 375 562.5 375 625 c 1
 354.166666667 625 333.333333333 625 312.5 625 c 1
 312.5 645.833333333 312.5 666.666666667 312.5 687.5 c 1
 333.333333333 687.5 354.166666667 687.5 375 687.5 c 1
 375 708.333333333 375 729.166666667 375 750 c 1
 395.833333333 750 416.666666667 750 437.5 750 c 1
 437.5 500 437.5 250 437.5 0 c 1
 395.833333333 -0 354.166666667 0 312.5 0 c 1
 312.5 20.8333333333 312.5 41.6666666667 312.5 62.5 c 1
 333.333333333 62.5 354.166666667 62.5 375 62.5 c 1
 375 166.666666667 375 270.833333333 375 375 c 1
 312.5 375 250 375 187.5 375 c 1
 187.5 395.833333333 187.5 416.666666667 187.5 437.5 c 1
 166.666666667 437.5 145.833333333 437.5 125 437.5 c 1
 125 500 125 562.5 125 625 c 1
 104.166666667 625 83.3333333333 625 62.5 625 c 1
 62.5 645.833333333 62.5 666.666666667 62.5 687.5 c 1
 83.3333333333 687.5 104.166666667 687.5 125 687.5 c 1
 125 708.333333333 125 729.166666667 125 750 c 1
EndSplineSet
EndChar

StartChar: afii10042
Encoding: 1064 1064 130
Width: 750
Flags: HW
LayerCount: 2
Back
Fore
SplineSet
125 750 m 1
 187.5 750 l 1
 187.5 520.833333333 187.5 291.666666667 187.5 62.5 c 1
 250 62.5 312.5 62.5 375 62.5 c 1
 375 229.166666667 375 395.833333333 375 562.5 c 1
 354.166666667 562.5 333.333333333 562.5 312.5 562.5 c 1
 312.5 583.333333333 312.5 604.166666667 312.5 625 c 1
 333.333333333 625 354.166666667 625 375 625 c 1
 375 645.833333333 375 666.666666667 375 687.5 c 1
 395.833333333 687.5 416.666666667 687.5 437.5 687.5 c 1
 437.5 479.166666667 437.5 270.833333333 437.5 62.5 c 1
 500 62.5 562.5 62.5 625 62.5 c 1
 625 250 625 437.5 625 625 c 1
 604.166666667 625 583.333333333 625 562.5 625 c 1
 562.5 645.833333333 562.5 666.666666667 562.5 687.5 c 1
 583.333333333 687.5 604.166666667 687.5 625 687.5 c 1
 625 708.333333333 625 729.166666667 625 750 c 1
 645.833333333 750 666.666666667 750 687.5 750 c 1
 687.5 520.833333333 687.5 291.666666667 687.5 62.5 c 1
 666.666666667 62.5 645.833333333 62.5 625 62.5 c 1
 625 41.6666666667 625 20.8333333333 625 0 c 1
 562.5 -0 500 0 437.5 0 c 1
 437.5 20.8333333333 437.5 41.6666666667 437.5 62.5 c 1
 416.666666667 62.5 395.833333333 62.5 375 62.5 c 1
 375 41.6666666667 375 20.8333333333 375 0 c 1
 270.833333333 -0 166.666666667 0 62.5 0 c 1
 62.5 20.8333333333 62.5 41.6666666667 62.5 62.5 c 1
 83.3333333333 62.5 104.166666667 62.5 125 62.5 c 1
 125 250 125 437.5 125 625 c 1
 104.166666667 625 83.3333333333 625 62.5 625 c 1
 62.5 645.833333333 62.5 666.666666667 62.5 687.5 c 1
 83.3333333333 687.5 104.166666667 687.5 125 687.5 c 1
 125 708.333333333 125 729.166666667 125 750 c 1
EndSplineSet
EndChar

StartChar: afii10043
Encoding: 1065 1065 131
Width: 812
Flags: HW
LayerCount: 2
Back
Fore
SplineSet
125 750 m 1
 187.5 750 l 1
 187.5 541.666666667 187.5 333.333333333 187.5 125 c 1
 250 125 312.5 125 375 125 c 1
 375 270.833333333 375 416.666666667 375 562.5 c 1
 354.166666667 562.5 333.333333333 562.5 312.5 562.5 c 1
 312.5 583.333333333 312.5 604.166666667 312.5 625 c 1
 333.333333333 625 354.166666667 625 375 625 c 1
 375 645.833333333 375 666.666666667 375 687.5 c 1
 395.833333333 687.5 416.666666667 687.5 437.5 687.5 c 1
 437.5 500 437.5 312.5 437.5 125 c 1
 500 125 562.5 125 625 125 c 1
 625 291.666666667 625 458.333333333 625 625 c 1
 604.166666667 625 583.333333333 625 562.5 625 c 1
 562.5 645.833333333 562.5 666.666666667 562.5 687.5 c 1
 583.333333333 687.5 604.166666667 687.5 625 687.5 c 1
 625 708.333333333 625 729.166666667 625 750 c 1
 645.833333333 750 666.666666667 750 687.5 750 c 1
 687.5 541.666666667 687.5 333.333333333 687.5 125 c 1
 708.333333333 125 729.166666667 125 750 125 c 1
 750 83.3333333333 750 41.6666666667 750 0 c 1
 729.166666667 -0 708.333333333 0 687.5 0 c 1
 687.5 20.8333333333 687.5 41.6666666667 687.5 62.5 c 1
 604.166666667 62.5 520.833333333 62.5 437.5 62.5 c 1
 437.5 83.3333333333 437.5 104.166666667 437.5 125 c 1
 416.666666667 125 395.833333333 125 375 125 c 1
 375 104.166666667 375 83.3333333333 375 62.5 c 1
 270.833333333 62.5 166.666666667 62.5 62.5 62.5 c 1
 62.5 83.3333333333 62.5 104.166666667 62.5 125 c 1
 83.3333333333 125 104.166666667 125 125 125 c 1
 125 291.666666667 125 458.333333333 125 625 c 1
 104.166666667 625 83.3333333333 625 62.5 625 c 1
 62.5 645.833333333 62.5 666.666666667 62.5 687.5 c 1
 83.3333333333 687.5 104.166666667 687.5 125 687.5 c 1
 125 708.333333333 125 729.166666667 125 750 c 1
EndSplineSet
EndChar

StartChar: afii10044
Encoding: 1066 1066 132
Width: 560
Flags: HW
LayerCount: 2
Back
Fore
SplineSet
250 375 m 1
 250 270.833333333 250 166.666666667 250 62.5 c 1
 312.5 62.5 375 62.5 437.5 62.5 c 1
 437.5 166.666666667 437.5 270.833333333 437.5 375 c 1
 250 375 l 1
62.5 750 m 1
 250 750 l 1
 250 645.833333333 250 541.666666667 250 437.5 c 1
 312.5 437.5 375 437.5 437.5 437.5 c 1
 437.5 416.666666667 437.5 395.833333333 437.5 375 c 1
 458.333333333 375 479.166666667 375 500 375 c 1
 500 270.833333333 500 166.666666667 500 62.5 c 1
 479.166666667 62.5 458.333333333 62.5 437.5 62.5 c 1
 437.5 41.6666666667 437.5 20.8333333333 437.5 0 c 1
 333.333333333 -0 229.166666667 0 125 0 c 1
 125 20.8333333333 125 41.6666666667 125 62.5 c 1
 145.833333333 62.5 166.666666667 62.5 187.5 62.5 c 1
 187.5 270.833333333 187.5 479.166666667 187.5 687.5 c 1
 145.833333333 687.5 104.166666667 687.5 62.5 687.5 c 1
 62.5 708.333333333 62.5 729.166666667 62.5 750 c 1
EndSplineSet
EndChar

StartChar: afii10045
Encoding: 1067 1067 133
Width: 625
Flags: HW
LayerCount: 2
Back
Fore
SplineSet
187.5 375 m 1
 187.5 270.833333333 187.5 166.666666667 187.5 62.5 c 1
 250 62.5 312.5 62.5 375 62.5 c 1
 375 166.666666667 375 270.833333333 375 375 c 1
 187.5 375 l 1
500 750 m 1
 562.5 750 l 1
 562.5 500 562.5 250 562.5 0 c 1
 541.666666667 -0 520.833333333 0 500 0 c 1
 500 208.333333333 500 416.666666667 500 625 c 1
 479.166666667 625 458.333333333 625 437.5 625 c 1
 437.5 645.833333333 437.5 666.666666667 437.5 687.5 c 1
 458.333333333 687.5 479.166666667 687.5 500 687.5 c 1
 500 708.333333333 500 729.166666667 500 750 c 1
125 750 m 1
 187.5 750 l 1
 187.5 645.833333333 187.5 541.666666667 187.5 437.5 c 1
 250 437.5 312.5 437.5 375 437.5 c 1
 375 416.666666667 375 395.833333333 375 375 c 1
 395.833333333 375 416.666666667 375 437.5 375 c 1
 437.5 270.833333333 437.5 166.666666667 437.5 62.5 c 1
 416.666666667 62.5 395.833333333 62.5 375 62.5 c 1
 375 41.6666666667 375 20.8333333333 375 0 c 1
 270.833333333 -0 166.666666667 0 62.5 0 c 1
 62.5 20.8333333333 62.5 41.6666666667 62.5 62.5 c 1
 83.3333333333 62.5 104.166666667 62.5 125 62.5 c 1
 125 250 125 437.5 125 625 c 1
 104.166666667 625 83.3333333333 625 62.5 625 c 1
 62.5 645.833333333 62.5 666.666666667 62.5 687.5 c 1
 83.3333333333 687.5 104.166666667 687.5 125 687.5 c 1
 125 708.333333333 125 729.166666667 125 750 c 1
EndSplineSet
EndChar

StartChar: afii10046
Encoding: 1068 1068 134
Width: 500
Flags: HW
LayerCount: 2
Back
Fore
SplineSet
187.5 375 m 1
 187.5 270.833333333 187.5 166.666666667 187.5 62.5 c 1
 250 62.5 312.5 62.5 375 62.5 c 1
 375 166.666666667 375 270.833333333 375 375 c 1
 187.5 375 l 1
125 750 m 1
 187.5 750 l 1
 187.5 645.833333333 187.5 541.666666667 187.5 437.5 c 1
 250 437.5 312.5 437.5 375 437.5 c 1
 375 416.666666667 375 395.833333333 375 375 c 1
 395.833333333 375 416.666666667 375 437.5 375 c 1
 437.5 270.833333333 437.5 166.666666667 437.5 62.5 c 1
 416.666666667 62.5 395.833333333 62.5 375 62.5 c 1
 375 41.6666666667 375 20.8333333333 375 0 c 1
 270.833333333 -0 166.666666667 0 62.5 0 c 1
 62.5 20.8333333333 62.5 41.6666666667 62.5 62.5 c 1
 83.3333333333 62.5 104.166666667 62.5 125 62.5 c 1
 125 250 125 437.5 125 625 c 1
 104.166666667 625 83.3333333333 625 62.5 625 c 1
 62.5 645.833333333 62.5 666.666666667 62.5 687.5 c 1
 83.3333333333 687.5 104.166666667 687.5 125 687.5 c 1
 125 708.333333333 125 729.166666667 125 750 c 1
EndSplineSet
EndChar

StartChar: afii10047
Encoding: 1069 1069 135
Width: 500
Flags: HW
LayerCount: 2
Back
Fore
SplineSet
125 750 m 1
 312.5 750 l 1
 312.5 729.166666667 312.5 708.333333333 312.5 687.5 c 1
 333.333333333 687.5 354.166666667 687.5 375 687.5 c 1
 375 666.666666667 375 645.833333333 375 625 c 1
 395.833333333 625 416.666666667 625 437.5 625 c 1
 437.5 458.333333333 437.5 291.666666667 437.5 125 c 1
 416.666666667 125 395.833333333 125 375 125 c 1
 375 104.166666667 375 83.3333333333 375 62.5 c 1
 354.166666667 62.5 333.333333333 62.5 312.5 62.5 c 1
 312.5 41.6666666667 312.5 20.8333333333 312.5 0 c 1
 250 -0 187.5 0 125 0 c 1
 125 20.8333333333 125 41.6666666667 125 62.5 c 1
 104.166666667 62.5 83.3333333333 62.5 62.5 62.5 c 1
 62.5 83.3333333333 62.5 104.166666667 62.5 125 c 1
 83.3333333333 125 104.166666667 125 125 125 c 1
 125 104.166666667 125 83.3333333333 125 62.5 c 1
 187.5 62.5 250 62.5 312.5 62.5 c 1
 312.5 83.3333333333 312.5 104.166666667 312.5 125 c 1
 333.333333333 125 354.166666667 125 375 125 c 1
 375 208.333333333 375 291.666666667 375 375 c 1
 291.666666667 375 208.333333333 375 125 375 c 1
 125 395.833333333 125 416.666666667 125 437.5 c 1
 208.333333333 437.5 291.666666667 437.5 375 437.5 c 1
 375 500 375 562.5 375 625 c 1
 354.166666667 625 333.333333333 625 312.5 625 c 1
 312.5 645.833333333 312.5 666.666666667 312.5 687.5 c 1
 270.833333333 687.5 229.166666667 687.5 187.5 687.5 c 1
 187.5 666.666666667 187.5 645.833333333 187.5 625 c 1
 145.833333333 625 104.166666667 625 62.5 625 c 1
 62.5 645.833333333 62.5 666.666666667 62.5 687.5 c 1
 83.3333333333 687.5 104.166666667 687.5 125 687.5 c 1
 125 708.333333333 125 729.166666667 125 750 c 1
EndSplineSet
EndChar

StartChar: afii10048
Encoding: 1070 1070 136
Width: 687
Flags: HW
LayerCount: 2
Back
Fore
SplineSet
375 687.5 m 1
 375 479.166666667 375 270.833333333 375 62.5 c 1
 437.5 62.5 500 62.5 562.5 62.5 c 1
 562.5 270.833333333 562.5 479.166666667 562.5 687.5 c 1
 375 687.5 l 1
125 750 m 1
 187.5 750 l 1
 187.5 645.833333333 187.5 541.666666667 187.5 437.5 c 1
 229.166666667 437.5 270.833333333 437.5 312.5 437.5 c 1
 312.5 500 312.5 562.5 312.5 625 c 1
 291.666666667 625 270.833333333 625 250 625 c 1
 250 645.833333333 250 666.666666667 250 687.5 c 1
 291.666666667 687.5 333.333333333 687.5 375 687.5 c 1
 375 708.333333333 375 729.166666667 375 750 c 1
 437.5 750 500 750 562.5 750 c 1
 562.5 729.166666667 562.5 708.333333333 562.5 687.5 c 1
 583.333333333 687.5 604.166666667 687.5 625 687.5 c 1
 625 479.166666667 625 270.833333333 625 62.5 c 1
 604.166666667 62.5 583.333333333 62.5 562.5 62.5 c 1
 562.5 41.6666666667 562.5 20.8333333333 562.5 0 c 1
 500 -0 437.5 0 375 0 c 1
 375 20.8333333333 375 41.6666666667 375 62.5 c 1
 354.166666667 62.5 333.333333333 62.5 312.5 62.5 c 1
 312.5 166.666666667 312.5 270.833333333 312.5 375 c 1
 270.833333333 375 229.166666667 375 187.5 375 c 1
 187.5 250 187.5 125 187.5 0 c 1
 145.833333333 -0 104.166666667 0 62.5 0 c 1
 62.5 20.8333333333 62.5 41.6666666667 62.5 62.5 c 1
 83.3333333333 62.5 104.166666667 62.5 125 62.5 c 1
 125 250 125 437.5 125 625 c 1
 104.166666667 625 83.3333333333 625 62.5 625 c 1
 62.5 645.833333333 62.5 666.666666667 62.5 687.5 c 1
 83.3333333333 687.5 104.166666667 687.5 125 687.5 c 1
 125 708.333333333 125 729.166666667 125 750 c 1
EndSplineSet
EndChar

StartChar: afii10049
Encoding: 1071 1071 137
Width: 625
Flags: HW
LayerCount: 2
Back
Fore
SplineSet
250 750 m 1
 500 750 l 1
 500 500 500 250 500 0 c 1
 458.333333333 -0 416.666666667 0 375 0 c 1
 375 20.8333333333 375 41.6666666667 375 62.5 c 1
 395.833333333 62.5 416.666666667 62.5 437.5 62.5 c 1
 437.5 166.666666667 437.5 270.833333333 437.5 375 c 1
 395.833333333 375 354.166666667 375 312.5 375 c 1
 312.5 354.166666667 312.5 333.333333333 312.5 312.5 c 1
 291.666666667 312.5 270.833333333 312.5 250 312.5 c 1
 250 354.166666667 250 395.833333333 250 437.5 c 1
 312.5 437.5 375 437.5 437.5 437.5 c 1
 437.5 479.166666667 437.5 520.833333333 437.5 562.5 c 1
 416.666666667 562.5 395.833333333 562.5 375 562.5 c 1
 375 583.333333333 375 604.166666667 375 625 c 1
 395.833333333 625 416.666666667 625 437.5 625 c 1
 437.5 645.833333333 437.5 666.666666667 437.5 687.5 c 1
 375 687.5 312.5 687.5 250 687.5 c 1
 250 708.333333333 250 729.166666667 250 750 c 1
187.5 687.5 m 1
 250 687.5 l 1
 250 604.166666667 250 520.833333333 250 437.5 c 1
 229.166666667 437.5 208.333333333 437.5 187.5 437.5 c 1
 187.5 479.166666667 187.5 520.833333333 187.5 562.5 c 1
 166.666666667 562.5 145.833333333 562.5 125 562.5 c 1
 125 583.333333333 125 604.166666667 125 625 c 1
 145.833333333 625 166.666666667 625 187.5 625 c 1
 187.5 645.833333333 187.5 666.666666667 187.5 687.5 c 1
187.5 312.5 m 1
 250 312.5 l 1
 250 208.333333333 250 104.166666667 250 0 c 1
 208.333333333 -0 166.666666667 0 125 0 c 1
 125 20.8333333333 125 41.6666666667 125 62.5 c 1
 145.833333333 62.5 166.666666667 62.5 187.5 62.5 c 1
 187.5 145.833333333 187.5 229.166666667 187.5 312.5 c 1
EndSplineSet
EndChar

StartChar: afii10065
Encoding: 1072 1072 138
Width: 500
Flags: HW
LayerCount: 2
Back
Fore
SplineSet
187.5 437.5 m 1
 375 437.5 l 1
 375 416.666666667 375 395.833333333 375 375 c 1
 312.5 375 250 375 187.5 375 c 1
 187.5 395.833333333 187.5 416.666666667 187.5 437.5 c 1
125 375 m 1
 187.5 375 l 1
 187.5 354.166666667 187.5 333.333333333 187.5 312.5 c 1
 166.666666667 312.5 145.833333333 312.5 125 312.5 c 1
 125 333.333333333 125 354.166666667 125 375 c 1
375 375 m 1
 437.5 375 l 1
 437.5 250 437.5 125 437.5 0 c 1
 416.666666667 -0 395.833333333 0 375 0 c 1
 375 20.8333333333 375 41.6666666667 375 62.5 c 1
 354.166666667 62.5 333.333333333 62.5 312.5 62.5 c 1
 312.5 83.3333333333 312.5 104.166666667 312.5 125 c 1
 333.333333333 125 354.166666667 125 375 125 c 1
 375 145.833333333 375 166.666666667 375 187.5 c 1
 312.5 187.5 250 187.5 187.5 187.5 c 1
 187.5 208.333333333 187.5 229.166666667 187.5 250 c 1
 250 250 312.5 250 375 250 c 1
 375 291.666666667 375 333.333333333 375 375 c 1
125 187.5 m 1
 187.5 187.5 l 1
 187.5 145.833333333 187.5 104.166666667 187.5 62.5 c 1
 166.666666667 62.5 145.833333333 62.5 125 62.5 c 1
 125 104.166666667 125 145.833333333 125 187.5 c 1
187.5 62.5 m 1
 312.5 62.5 l 1
 312.5 41.6666666667 312.5 20.8333333333 312.5 0 c 1
 270.833333333 -0 229.166666667 0 187.5 0 c 1
 187.5 20.8333333333 187.5 41.6666666667 187.5 62.5 c 1
EndSplineSet
EndChar

StartChar: afii10066
Encoding: 1073 1073 139
Width: 500
Flags: HW
LayerCount: 2
Back
Fore
SplineSet
375 375 m 1
 437.5 375 l 1
 437.5 270.833333333 437.5 166.666666667 437.5 62.5 c 1
 416.666666667 62.5 395.833333333 62.5 375 62.5 c 1
 375 166.666666667 375 270.833333333 375 375 c 1
375 750 m 1
 437.5 750 l 1
 437.5 729.166666667 437.5 708.333333333 437.5 687.5 c 1
 416.666666667 687.5 395.833333333 687.5 375 687.5 c 1
 375 708.333333333 375 729.166666667 375 750 c 1
187.5 687.5 m 1
 375 687.5 l 1
 375 666.666666667 375 645.833333333 375 625 c 1
 312.5 625 250 625 187.5 625 c 1
 187.5 645.833333333 187.5 666.666666667 187.5 687.5 c 1
125 625 m 1
 187.5 625 l 1
 187.5 562.5 187.5 500 187.5 437.5 c 1
 250 437.5 312.5 437.5 375 437.5 c 1
 375 416.666666667 375 395.833333333 375 375 c 1
 312.5 375 250 375 187.5 375 c 1
 187.5 270.833333333 187.5 166.666666667 187.5 62.5 c 1
 250 62.5 312.5 62.5 375 62.5 c 1
 375 41.6666666667 375 20.8333333333 375 0 c 1
 270.833333333 -0 166.666666667 0 62.5 0 c 1
 62.5 20.8333333333 62.5 41.6666666667 62.5 62.5 c 1
 83.3333333333 62.5 104.166666667 62.5 125 62.5 c 1
 125 208.333333333 125 354.166666667 125 500 c 1
 104.166666667 500 83.3333333333 500 62.5 500 c 1
 62.5 520.833333333 62.5 541.666666667 62.5 562.5 c 1
 83.3333333333 562.5 104.166666667 562.5 125 562.5 c 1
 125 583.333333333 125 604.166666667 125 625 c 1
EndSplineSet
EndChar

StartChar: afii10067
Encoding: 1074 1074 140
Width: 500
Flags: HW
LayerCount: 2
Back
Fore
SplineSet
187.5 375 m 1
 187.5 333.333333333 187.5 291.666666667 187.5 250 c 1
 229.166666667 250 270.833333333 250 312.5 250 c 1
 312.5 291.666666667 312.5 333.333333333 312.5 375 c 1
 187.5 375 l 1
187.5 187.5 m 1
 187.5 145.833333333 187.5 104.166666667 187.5 62.5 c 1
 250 62.5 312.5 62.5 375 62.5 c 1
 375 104.166666667 375 145.833333333 375 187.5 c 1
 187.5 187.5 l 1
125 437.5 m 1
 312.5 437.5 l 1
 312.5 416.666666667 312.5 395.833333333 312.5 375 c 1
 333.333333333 375 354.166666667 375 375 375 c 1
 375 312.5 375 250 375 187.5 c 1
 395.833333333 187.5 416.666666667 187.5 437.5 187.5 c 1
 437.5 145.833333333 437.5 104.166666667 437.5 62.5 c 1
 416.666666667 62.5 395.833333333 62.5 375 62.5 c 1
 375 41.6666666667 375 20.8333333333 375 0 c 1
 291.666666667 -0 208.333333333 0 125 0 c 1
 125 104.166666667 125 208.333333333 125 312.5 c 1
 104.166666667 312.5 83.3333333333 312.5 62.5 312.5 c 1
 62.5 333.333333333 62.5 354.166666667 62.5 375 c 1
 83.3333333333 375 104.166666667 375 125 375 c 1
 125 395.833333333 125 416.666666667 125 437.5 c 1
EndSplineSet
EndChar

StartChar: afii10068
Encoding: 1075 1075 141
Width: 437
Flags: HW
LayerCount: 2
Back
Fore
SplineSet
125 437.5 m 1
 375 437.5 l 1
 375 416.666666667 375 395.833333333 375 375 c 1
 312.5 375 250 375 187.5 375 c 1
 187.5 250 187.5 125 187.5 0 c 1
 166.666666667 -0 145.833333333 0 125 0 c 1
 125 104.166666667 125 208.333333333 125 312.5 c 1
 104.166666667 312.5 83.3333333333 312.5 62.5 312.5 c 1
 62.5 333.333333333 62.5 354.166666667 62.5 375 c 1
 83.3333333333 375 104.166666667 375 125 375 c 1
 125 395.833333333 125 416.666666667 125 437.5 c 1
EndSplineSet
EndChar

StartChar: afii10069
Encoding: 1076 1076 142
Width: 500
Flags: HW
LayerCount: 2
Back
Fore
SplineSet
187.5 437.5 m 1
 375 437.5 l 1
 375 333.333333333 375 229.166666667 375 125 c 1
 395.833333333 125 416.666666667 125 437.5 125 c 1
 437.5 83.3333333333 437.5 41.6666666667 437.5 0 c 1
 416.666666667 -0 395.833333333 0 375 0 c 1
 375 20.8333333333 375 41.6666666667 375 62.5 c 1
 291.666666667 62.5 208.333333333 62.5 125 62.5 c 1
 125 41.6666666667 125 20.8333333333 125 0 c 1
 104.166666667 -0 83.3333333333 0 62.5 0 c 1
 62.5 41.6666666667 62.5 83.3333333333 62.5 125 c 1
 83.3333333333 125 104.166666667 125 125 125 c 1
 125 166.666666667 125 208.333333333 125 250 c 1
 104.166666667 250 83.3333333333 250 62.5 250 c 1
 62.5 270.833333333 62.5 291.666666667 62.5 312.5 c 1
 83.3333333333 312.5 104.166666667 312.5 125 312.5 c 1
 125 333.333333333 125 354.166666667 125 375 c 1
 145.833333333 375 166.666666667 375 187.5 375 c 1
 187.5 291.666666667 187.5 208.333333333 187.5 125 c 1
 229.166666667 125 270.833333333 125 312.5 125 c 1
 312.5 208.333333333 312.5 291.666666667 312.5 375 c 1
 270.833333333 375 229.166666667 375 187.5 375 c 1
 187.5 395.833333333 187.5 416.666666667 187.5 437.5 c 1
EndSplineSet
EndChar

StartChar: afii10070
Encoding: 1077 1077 143
Width: 500
Flags: HW
LayerCount: 2
Back
Fore
SplineSet
187.5 437.5 m 1
 375 437.5 l 1
 375 416.666666667 375 395.833333333 375 375 c 1
 312.5 375 250 375 187.5 375 c 1
 187.5 395.833333333 187.5 416.666666667 187.5 437.5 c 1
125 375 m 1
 187.5 375 l 1
 187.5 312.5 187.5 250 187.5 187.5 c 1
 208.333333333 187.5 229.166666667 187.5 250 187.5 c 1
 250 166.666666667 250 145.833333333 250 125 c 1
 229.166666667 125 208.333333333 125 187.5 125 c 1
 187.5 104.166666667 187.5 83.3333333333 187.5 62.5 c 1
 166.666666667 62.5 145.833333333 62.5 125 62.5 c 1
 125 125 125 187.5 125 250 c 1
 104.166666667 250 83.3333333333 250 62.5 250 c 1
 62.5 270.833333333 62.5 291.666666667 62.5 312.5 c 1
 83.3333333333 312.5 104.166666667 312.5 125 312.5 c 1
 125 333.333333333 125 354.166666667 125 375 c 1
375 375 m 1
 437.5 375 l 1
 437.5 354.166666667 437.5 333.333333333 437.5 312.5 c 1
 416.666666667 312.5 395.833333333 312.5 375 312.5 c 1
 375 333.333333333 375 354.166666667 375 375 c 1
312.5 312.5 m 1
 375 312.5 l 1
 375 291.666666667 375 270.833333333 375 250 c 1
 354.166666667 250 333.333333333 250 312.5 250 c 1
 312.5 229.166666667 312.5 208.333333333 312.5 187.5 c 1
 291.666666667 187.5 270.833333333 187.5 250 187.5 c 1
 250 208.333333333 250 229.166666667 250 250 c 1
 270.833333333 250 291.666666667 250 312.5 250 c 1
 312.5 270.833333333 312.5 291.666666667 312.5 312.5 c 1
375 125 m 1
 437.5 125 l 1
 437.5 104.166666667 437.5 83.3333333333 437.5 62.5 c 1
 416.666666667 62.5 395.833333333 62.5 375 62.5 c 1
 375 83.3333333333 375 104.166666667 375 125 c 1
187.5 62.5 m 1
 375 62.5 l 1
 375 41.6666666667 375 20.8333333333 375 0 c 1
 312.5 -0 250 0 187.5 0 c 1
 187.5 20.8333333333 187.5 41.6666666667 187.5 62.5 c 1
EndSplineSet
EndChar

StartChar: afii10072
Encoding: 1078 1078 144
Width: 625
Flags: HW
LayerCount: 2
Back
Fore
SplineSet
125 437.5 m 1
 187.5 437.5 l 1
 187.5 375 187.5 312.5 187.5 250 c 1
 208.333333333 250 229.166666667 250 250 250 c 1
 250 229.166666667 250 208.333333333 250 187.5 c 1
 270.833333333 187.5 291.666666667 187.5 312.5 187.5 c 1
 312.5 229.166666667 312.5 270.833333333 312.5 312.5 c 1
 291.666666667 312.5 270.833333333 312.5 250 312.5 c 1
 250 333.333333333 250 354.166666667 250 375 c 1
 270.833333333 375 291.666666667 375 312.5 375 c 1
 312.5 395.833333333 312.5 416.666666667 312.5 437.5 c 1
 333.333333333 437.5 354.166666667 437.5 375 437.5 c 1
 375 354.166666667 375 270.833333333 375 187.5 c 1
 395.833333333 187.5 416.666666667 187.5 437.5 187.5 c 1
 437.5 208.333333333 437.5 229.166666667 437.5 250 c 1
 458.333333333 250 479.166666667 250 500 250 c 1
 500 270.833333333 500 291.666666667 500 312.5 c 1
 479.166666667 312.5 458.333333333 312.5 437.5 312.5 c 1
 437.5 333.333333333 437.5 354.166666667 437.5 375 c 1
 458.333333333 375 479.166666667 375 500 375 c 1
 500 395.833333333 500 416.666666667 500 437.5 c 1
 520.833333333 437.5 541.666666667 437.5 562.5 437.5 c 1
 562.5 375 562.5 312.5 562.5 250 c 1
 541.666666667 250 520.833333333 250 500 250 c 1
 500 229.166666667 500 208.333333333 500 187.5 c 1
 479.166666667 187.5 458.333333333 187.5 437.5 187.5 c 1
 437.5 166.666666667 437.5 145.833333333 437.5 125 c 1
 458.333333333 125 479.166666667 125 500 125 c 1
 500 104.166666667 500 83.3333333333 500 62.5 c 1
 520.833333333 62.5 541.666666667 62.5 562.5 62.5 c 1
 562.5 41.6666666667 562.5 20.8333333333 562.5 0 c 1
 541.666666667 -0 520.833333333 0 500 0 c 1
 500 20.8333333333 500 41.6666666667 500 62.5 c 1
 479.166666667 62.5 458.333333333 62.5 437.5 62.5 c 1
 437.5 83.3333333333 437.5 104.166666667 437.5 125 c 1
 416.666666667 125 395.833333333 125 375 125 c 1
 375 83.3333333333 375 41.6666666667 375 0 c 1
 354.166666667 -0 333.333333333 0 312.5 0 c 1
 312.5 41.6666666667 312.5 83.3333333333 312.5 125 c 1
 291.666666667 125 270.833333333 125 250 125 c 1
 250 104.166666667 250 83.3333333333 250 62.5 c 1
 229.166666667 62.5 208.333333333 62.5 187.5 62.5 c 1
 187.5 41.6666666667 187.5 20.8333333333 187.5 0 c 1
 166.666666667 -0 145.833333333 0 125 0 c 1
 125 20.8333333333 125 41.6666666667 125 62.5 c 1
 145.833333333 62.5 166.666666667 62.5 187.5 62.5 c 1
 187.5 83.3333333333 187.5 104.166666667 187.5 125 c 1
 208.333333333 125 229.166666667 125 250 125 c 1
 250 145.833333333 250 166.666666667 250 187.5 c 1
 229.166666667 187.5 208.333333333 187.5 187.5 187.5 c 1
 187.5 208.333333333 187.5 229.166666667 187.5 250 c 1
 166.666666667 250 145.833333333 250 125 250 c 1
 125 270.833333333 125 291.666666667 125 312.5 c 1
 104.166666667 312.5 83.3333333333 312.5 62.5 312.5 c 1
 62.5 333.333333333 62.5 354.166666667 62.5 375 c 1
 83.3333333333 375 104.166666667 375 125 375 c 1
 125 395.833333333 125 416.666666667 125 437.5 c 1
EndSplineSet
EndChar

StartChar: afii10073
Encoding: 1079 1079 145
Width: 500
Flags: HW
LayerCount: 2
Back
Fore
SplineSet
187.5 437.5 m 1
 375 437.5 l 1
 375 416.666666667 375 395.833333333 375 375 c 1
 312.5 375 250 375 187.5 375 c 1
 187.5 395.833333333 187.5 416.666666667 187.5 437.5 c 1
62.5 375 m 1
 187.5 375 l 1
 187.5 354.166666667 187.5 333.333333333 187.5 312.5 c 1
 145.833333333 312.5 104.166666667 312.5 62.5 312.5 c 1
 62.5 333.333333333 62.5 354.166666667 62.5 375 c 1
375 375 m 1
 437.5 375 l 1
 437.5 333.333333333 437.5 291.666666667 437.5 250 c 1
 416.666666667 250 395.833333333 250 375 250 c 1
 375 291.666666667 375 333.333333333 375 375 c 1
250 250 m 1
 375 250 l 1
 375 229.166666667 375 208.333333333 375 187.5 c 1
 333.333333333 187.5 291.666666667 187.5 250 187.5 c 1
 250 208.333333333 250 229.166666667 250 250 c 1
375 187.5 m 1
 437.5 187.5 l 1
 437.5 145.833333333 437.5 104.166666667 437.5 62.5 c 1
 416.666666667 62.5 395.833333333 62.5 375 62.5 c 1
 375 104.166666667 375 145.833333333 375 187.5 c 1
125 125 m 1
 187.5 125 l 1
 187.5 104.166666667 187.5 83.3333333333 187.5 62.5 c 1
 166.666666667 62.5 145.833333333 62.5 125 62.5 c 1
 125 83.3333333333 125 104.166666667 125 125 c 1
187.5 62.5 m 1
 375 62.5 l 1
 375 41.6666666667 375 20.8333333333 375 0 c 1
 312.5 -0 250 0 187.5 0 c 1
 187.5 20.8333333333 187.5 41.6666666667 187.5 62.5 c 1
EndSplineSet
EndChar

StartChar: afii10074
Encoding: 1080 1080 146
Width: 500
Flags: HW
LayerCount: 2
Back
Fore
SplineSet
125 437.5 m 1
 187.5 437.5 l 1
 187.5 333.333333333 187.5 229.166666667 187.5 125 c 1
 208.333333333 125 229.166666667 125 250 125 c 1
 250 166.666666667 250 208.333333333 250 250 c 1
 270.833333333 250 291.666666667 250 312.5 250 c 1
 312.5 291.666666667 312.5 333.333333333 312.5 375 c 1
 333.333333333 375 354.166666667 375 375 375 c 1
 375 395.833333333 375 416.666666667 375 437.5 c 1
 395.833333333 437.5 416.666666667 437.5 437.5 437.5 c 1
 437.5 291.666666667 437.5 145.833333333 437.5 0 c 1
 416.666666667 -0 395.833333333 0 375 0 c 1
 375 83.3333333333 375 166.666666667 375 250 c 1
 354.166666667 250 333.333333333 250 312.5 250 c 1
 312.5 208.333333333 312.5 166.666666667 312.5 125 c 1
 291.666666667 125 270.833333333 125 250 125 c 1
 250 104.166666667 250 83.3333333333 250 62.5 c 1
 229.166666667 62.5 208.333333333 62.5 187.5 62.5 c 1
 187.5 41.6666666667 187.5 20.8333333333 187.5 0 c 1
 166.666666667 -0 145.833333333 0 125 0 c 1
 125 104.166666667 125 208.333333333 125 312.5 c 1
 104.166666667 312.5 83.3333333333 312.5 62.5 312.5 c 1
 62.5 333.333333333 62.5 354.166666667 62.5 375 c 1
 83.3333333333 375 104.166666667 375 125 375 c 1
 125 395.833333333 125 416.666666667 125 437.5 c 1
EndSplineSet
EndChar

StartChar: afii10075
Encoding: 1081 1081 147
Width: 500
Flags: HW
LayerCount: 2
Back
Fore
SplineSet
250 250 m 1
 312.5 250 l 1
 312.5 208.333333333 312.5 166.666666667 312.5 125 c 1
 291.666666667 125 270.833333333 125 250 125 c 1
 250 166.666666667 250 208.333333333 250 250 c 1
187.5 625 m 1
 250 625 l 1
 250 604.166666667 250 583.333333333 250 562.5 c 1
 229.166666667 562.5 208.333333333 562.5 187.5 562.5 c 1
 187.5 583.333333333 187.5 604.166666667 187.5 625 c 1
312.5 625 m 1
 375 625 l 1
 375 604.166666667 375 583.333333333 375 562.5 c 1
 354.166666667 562.5 333.333333333 562.5 312.5 562.5 c 1
 312.5 583.333333333 312.5 604.166666667 312.5 625 c 1
250 562.5 m 1
 312.5 562.5 l 1
 312.5 541.666666667 312.5 520.833333333 312.5 500 c 1
 291.666666667 500 270.833333333 500 250 500 c 1
 250 520.833333333 250 541.666666667 250 562.5 c 1
125 437.5 m 1
 187.5 437.5 l 1
 187.5 333.333333333 187.5 229.166666667 187.5 125 c 1
 208.333333333 125 229.166666667 125 250 125 c 1
 250 104.166666667 250 83.3333333333 250 62.5 c 1
 229.166666667 62.5 208.333333333 62.5 187.5 62.5 c 1
 187.5 41.6666666667 187.5 20.8333333333 187.5 0 c 1
 166.666666667 -0 145.833333333 0 125 0 c 1
 125 104.166666667 125 208.333333333 125 312.5 c 1
 104.166666667 312.5 83.3333333333 312.5 62.5 312.5 c 1
 62.5 333.333333333 62.5 354.166666667 62.5 375 c 1
 83.3333333333 375 104.166666667 375 125 375 c 1
 125 395.833333333 125 416.666666667 125 437.5 c 1
375 437.5 m 1
 437.5 437.5 l 1
 437.5 291.666666667 437.5 145.833333333 437.5 0 c 1
 416.666666667 -0 395.833333333 0 375 0 c 1
 375 83.3333333333 375 166.666666667 375 250 c 1
 354.166666667 250 333.333333333 250 312.5 250 c 1
 312.5 291.666666667 312.5 333.333333333 312.5 375 c 1
 333.333333333 375 354.166666667 375 375 375 c 1
 375 395.833333333 375 416.666666667 375 437.5 c 1
EndSplineSet
EndChar

StartChar: afii10076
Encoding: 1082 1082 148
Width: 437
Flags: HW
LayerCount: 2
Back
Fore
SplineSet
125 437.5 m 1
 187.5 437.5 l 1
 187.5 395.833333333 187.5 354.166666667 187.5 312.5 c 1
 208.333333333 312.5 229.166666667 312.5 250 312.5 c 1
 250 333.333333333 250 354.166666667 250 375 c 1
 270.833333333 375 291.666666667 375 312.5 375 c 1
 312.5 395.833333333 312.5 416.666666667 312.5 437.5 c 1
 333.333333333 437.5 354.166666667 437.5 375 437.5 c 1
 375 416.666666667 375 395.833333333 375 375 c 1
 354.166666667 375 333.333333333 375 312.5 375 c 1
 312.5 354.166666667 312.5 333.333333333 312.5 312.5 c 1
 291.666666667 312.5 270.833333333 312.5 250 312.5 c 1
 250 291.666666667 250 270.833333333 250 250 c 1
 270.833333333 250 291.666666667 250 312.5 250 c 1
 312.5 208.333333333 312.5 166.666666667 312.5 125 c 1
 333.333333333 125 354.166666667 125 375 125 c 1
 375 83.3333333333 375 41.6666666667 375 0 c 1
 354.166666667 -0 333.333333333 0 312.5 0 c 1
 312.5 41.6666666667 312.5 83.3333333333 312.5 125 c 1
 291.666666667 125 270.833333333 125 250 125 c 1
 250 166.666666667 250 208.333333333 250 250 c 1
 229.166666667 250 208.333333333 250 187.5 250 c 1
 187.5 166.666666667 187.5 83.3333333333 187.5 0 c 1
 145.833333333 -0 104.166666667 0 62.5 0 c 1
 62.5 20.8333333333 62.5 41.6666666667 62.5 62.5 c 1
 83.3333333333 62.5 104.166666667 62.5 125 62.5 c 1
 125 145.833333333 125 229.166666667 125 312.5 c 1
 104.166666667 312.5 83.3333333333 312.5 62.5 312.5 c 1
 62.5 333.333333333 62.5 354.166666667 62.5 375 c 1
 83.3333333333 375 104.166666667 375 125 375 c 1
 125 395.833333333 125 416.666666667 125 437.5 c 1
EndSplineSet
EndChar

StartChar: afii10077
Encoding: 1083 1083 149
Width: 437
Flags: HW
LayerCount: 2
Back
Fore
SplineSet
187.5 437.5 m 1
 375 437.5 l 1
 375 291.666666667 375 145.833333333 375 0 c 1
 354.166666667 -0 333.333333333 0 312.5 0 c 1
 312.5 125 312.5 250 312.5 375 c 1
 270.833333333 375 229.166666667 375 187.5 375 c 1
 187.5 395.833333333 187.5 416.666666667 187.5 437.5 c 1
125 375 m 1
 187.5 375 l 1
 187.5 291.666666667 187.5 208.333333333 187.5 125 c 1
 166.666666667 125 145.833333333 125 125 125 c 1
 125 166.666666667 125 208.333333333 125 250 c 1
 104.166666667 250 83.3333333333 250 62.5 250 c 1
 62.5 270.833333333 62.5 291.666666667 62.5 312.5 c 1
 83.3333333333 312.5 104.166666667 312.5 125 312.5 c 1
 125 333.333333333 125 354.166666667 125 375 c 1
62.5 125 m 1
 125 125 l 1
 125 83.3333333333 125 41.6666666667 125 0 c 1
 104.166666667 -0 83.3333333333 0 62.5 0 c 1
 62.5 41.6666666667 62.5 83.3333333333 62.5 125 c 1
EndSplineSet
EndChar

StartChar: afii10078
Encoding: 1084 1084 150
Width: 625
Flags: HW
LayerCount: 2
Back
Fore
SplineSet
125 437.5 m 1
 187.5 437.5 l 1
 187.5 416.666666667 187.5 395.833333333 187.5 375 c 1
 208.333333333 375 229.166666667 375 250 375 c 1
 250 333.333333333 250 291.666666667 250 250 c 1
 270.833333333 250 291.666666667 250 312.5 250 c 1
 312.5 229.166666667 312.5 208.333333333 312.5 187.5 c 1
 333.333333333 187.5 354.166666667 187.5 375 187.5 c 1
 375 208.333333333 375 229.166666667 375 250 c 1
 395.833333333 250 416.666666667 250 437.5 250 c 1
 437.5 291.666666667 437.5 333.333333333 437.5 375 c 1
 458.333333333 375 479.166666667 375 500 375 c 1
 500 395.833333333 500 416.666666667 500 437.5 c 1
 520.833333333 437.5 541.666666667 437.5 562.5 437.5 c 1
 562.5 291.666666667 562.5 145.833333333 562.5 0 c 1
 541.666666667 -0 520.833333333 0 500 0 c 1
 500 83.3333333333 500 166.666666667 500 250 c 1
 479.166666667 250 458.333333333 250 437.5 250 c 1
 437.5 229.166666667 437.5 208.333333333 437.5 187.5 c 1
 416.666666667 187.5 395.833333333 187.5 375 187.5 c 1
 375 145.833333333 375 104.166666667 375 62.5 c 1
 354.166666667 62.5 333.333333333 62.5 312.5 62.5 c 1
 312.5 104.166666667 312.5 145.833333333 312.5 187.5 c 1
 291.666666667 187.5 270.833333333 187.5 250 187.5 c 1
 250 208.333333333 250 229.166666667 250 250 c 1
 229.166666667 250 208.333333333 250 187.5 250 c 1
 187.5 166.666666667 187.5 83.3333333333 187.5 0 c 1
 145.833333333 -0 104.166666667 0 62.5 0 c 1
 62.5 20.8333333333 62.5 41.6666666667 62.5 62.5 c 1
 83.3333333333 62.5 104.166666667 62.5 125 62.5 c 1
 125 145.833333333 125 229.166666667 125 312.5 c 1
 104.166666667 312.5 83.3333333333 312.5 62.5 312.5 c 1
 62.5 333.333333333 62.5 354.166666667 62.5 375 c 1
 83.3333333333 375 104.166666667 375 125 375 c 1
 125 395.833333333 125 416.666666667 125 437.5 c 1
EndSplineSet
EndChar

StartChar: afii10079
Encoding: 1085 1085 151
Width: 500
Flags: HW
LayerCount: 2
Back
Fore
SplineSet
125 437.5 m 1
 187.5 437.5 l 1
 187.5 375 187.5 312.5 187.5 250 c 1
 250 250 312.5 250 375 250 c 1
 375 270.833333333 375 291.666666667 375 312.5 c 1
 354.166666667 312.5 333.333333333 312.5 312.5 312.5 c 1
 312.5 333.333333333 312.5 354.166666667 312.5 375 c 1
 333.333333333 375 354.166666667 375 375 375 c 1
 375 395.833333333 375 416.666666667 375 437.5 c 1
 395.833333333 437.5 416.666666667 437.5 437.5 437.5 c 1
 437.5 291.666666667 437.5 145.833333333 437.5 0 c 1
 416.666666667 -0 395.833333333 0 375 0 c 1
 375 62.5 375 125 375 187.5 c 1
 312.5 187.5 250 187.5 187.5 187.5 c 1
 187.5 125 187.5 62.5 187.5 0 c 1
 145.833333333 -0 104.166666667 0 62.5 0 c 1
 62.5 20.8333333333 62.5 41.6666666667 62.5 62.5 c 1
 83.3333333333 62.5 104.166666667 62.5 125 62.5 c 1
 125 145.833333333 125 229.166666667 125 312.5 c 1
 104.166666667 312.5 83.3333333333 312.5 62.5 312.5 c 1
 62.5 333.333333333 62.5 354.166666667 62.5 375 c 1
 83.3333333333 375 104.166666667 375 125 375 c 1
 125 395.833333333 125 416.666666667 125 437.5 c 1
EndSplineSet
EndChar

